<?xml version="1.0" encoding="UTF-8"?> <svg xmlns="http://www.w3.org/2000/svg" xmlns:xlink="http://www.w3.org/1999/xlink" id="Layer_1" data-name="Layer 1" viewBox="0 0 90 90"><defs><style>.cls-1,.cls-2{fill:none;}.cls-2{stroke:#41c1cc;stroke-miterlimit:10;stroke-width:2px;}.cls-3{clip-path:url(#clip-path);}.cls-4{fill:#41c1cc;}.cls-5{fill:#eaa787;}</style><clipPath id="clip-path"><circle id="SVGID" class="cls-1" cx="45" cy="45.75" r="38.49"></circle></clipPath></defs><title>Artboard 7</title><circle class="cls-2" cx="45" cy="45.75" r="42.5"></circle><g class="cls-3"><circle class="cls-1" cx="45" cy="45.38" r="38.49"></circle><path class="cls-4" d="M88.26,84.65c.28-.91-1.84-.91,0,0Z"></path><path class="cls-1" d="M49.06,24.89A.77.77,0,0,0,49,24.6a13.5,13.5,0,0,0-3.79,4.62c.35.59.68,1.21,1,1.83C47.22,29,48.19,27,49.06,24.89Z"></path><path class="cls-1" d="M38.66,39.75l-.11.19c.21.41.42.81.62,1.22Z"></path><path class="cls-1" d="M47.64,39.38c.52,1,1,2,1.56,3,.42-1.1.83-2.21,1.23-3.32-.5-.86-1-1.73-1.54-2.61l-.1.25C48.42,37.57,48,38.47,47.64,39.38Z"></path><path class="cls-1" d="M51.67,35.54c.9-2.58,1.84-5.24,2.88-7.92a2.28,2.28,0,0,0-.23-1.35l-.25,0a49.1,49.1,0,0,0-4.79,9.27c.51.86,1,1.71,1.5,2.55C51.08,37.22,51.37,36.38,51.67,35.54Z"></path><path class="cls-1" d="M47.63,33.24a8.79,8.79,0,0,1,1,1.23A82.08,82.08,0,0,0,52.37,24.1a.37.37,0,0,0-.24-.33.79.79,0,0,0-.38.12c-1.78,2.75-3.36,5.59-4.88,8.38l.18.35A8,8,0,0,0,47.63,33.24Z"></path><path class="cls-1" d="M44.18,35.06,43,32.9,43,33a6.54,6.54,0,0,0-1.1,1.36l-.54.92c.41,1,.83,1.94,1.26,2.89l.31-.59Z"></path><path class="cls-1" d="M51,40l0,0-.13.36C50.88,40.2,50.94,40.1,51,40Z"></path><path class="cls-1" d="M46.52,39.33c-.6-1.07-1.18-2.13-1.75-3.19-.56,1-1.13,2.06-1.71,3.1.31.69.62,1.37.92,2s.55,1.22.83,1.84c.4-.91.81-1.81,1.21-2.69C46.18,40.07,46.35,39.7,46.52,39.33Z"></path><path class="cls-1" d="M47.34,56.47a70.28,70.28,0,0,0,5.66-13c-.51-.86-1-1.72-1.53-2.6l-.45.89a57.67,57.67,0,0,1-2.89,5.34l-.72-.35A5.49,5.49,0,0,1,48,45.44c.39-.92.75-1.83,1.11-2.75L48.6,43q-.74-1.24-1.44-2.49C46.59,41.74,46,43,45.29,44.2c0,.08.07.16.11.23v0h0l.21.49.21.5-.72.36c-.19-.33-.37-.67-.55-1l-.41-.2.13-.3c-.68-1.28-1.29-2.6-1.87-3.92-.34.58-.67,1.16-1,1.74l-.7-.39c.41-.81.83-1.62,1.25-2.42-.25-.6-.5-1.19-.74-1.78-.17-.41-.35-.82-.52-1.24l-1.5,2.56c.9,2.53,1.81,5,2.85,7.45a5.49,5.49,0,0,1,.55,1.27l-.72.35A57.67,57.67,0,0,1,39,42.57c-.3-.6-.6-1.2-.91-1.8l-1.45,2.44.28.81a71.77,71.77,0,0,0,5.76,13.3l0,0a15.65,15.65,0,0,0,2,2.91,18.51,18.51,0,0,0,2.68-3.76Z"></path><path class="cls-1" d="M45.37,35c.55,1.06,1.1,2.12,1.65,3.16.42-.93.84-1.87,1.25-2.82l-.12-.19a6.18,6.18,0,0,0-1.1-1.38,8,8,0,0,1-.63-.7c-.21.38-.42.76-.62,1.14S45.51,34.77,45.37,35Z"></path><path class="cls-1" d="M34.24,34.6l-.26.17a4.34,4.34,0,0,0,.07,1.68c.82,1.93,1.54,3.87,2.22,5.78l1.36-2.3A33.68,33.68,0,0,0,34.24,34.6Z"></path><path class="cls-1" d="M45.78,31.94l-.12-.22c-.29-.57-.59-1.13-.89-1.67-.14.27-.29.54-.43.82l-.56,1c.33.67.67,1.32,1,2C45.12,33.24,45.45,32.59,45.78,31.94Z"></path><path class="cls-1" d="M42.37,32.39c.08-.08.16-.15.23-.23-1.36-2.48-2.78-5-4.35-7.42a.7.7,0,0,0-.38-.12.36.36,0,0,0-.24.33,78.34,78.34,0,0,0,3.29,9.36c.08-.13.16-.26.23-.39A7.25,7.25,0,0,1,42.37,32.39Z"></path><path class="cls-1" d="M35.93,27.08l-.25,0a2.28,2.28,0,0,0-.23,1.35c1,2.68,2,5.34,2.88,7.92l.51,1.45,1.46-2.48A45.26,45.26,0,0,0,35.93,27.08Z"></path><path class="cls-1" d="M56,35.6A4.34,4.34,0,0,0,56,33.92l-.26-.17A36.7,36.7,0,0,0,51.91,40c.48.84,1,1.66,1.44,2.47C54.15,40.2,55,37.9,56,35.6Z"></path><path class="cls-1" d="M44.29,29.23A12.25,12.25,0,0,0,41,25.45a.77.77,0,0,0-.05.29c.75,1.79,1.57,3.54,2.41,5.27l.27-.52C43.85,30.07,44.07,29.65,44.29,29.23Z"></path><path class="cls-4" d="M45.65,62.68c.46.52.94,1.06,1.37,1.57A14.68,14.68,0,0,1,49,69c.17.56.33,1.14.52,1.71a139.73,139.73,0,0,1,3.69,14.8c.53,2.48,1.07,5,1.67,7.54l.79-.19c-.6-2.48-1.14-5-1.67-7.52A140,140,0,0,0,50.3,70.46c-.18-.56-.35-1.13-.51-1.69a15.18,15.18,0,0,0-2.14-5c-.45-.54-.93-1.08-1.39-1.6l-1.09-1.26-.54.62Z"></path><path class="cls-4" d="M34.05,36.45A4.34,4.34,0,0,1,34,34.77l.26-.17a33.68,33.68,0,0,1,3.39,5.33c.15-.28.31-.55.47-.82a31.63,31.63,0,0,0-3.53-5.37l-.33-.4-.31.42a.78.78,0,0,1-.36.3l-.25,0-.07.24a4.77,4.77,0,0,0,0,2.29l0,.09c.91,2.14,1.69,4.29,2.44,6.4l.54-.89C35.59,40.32,34.87,38.38,34.05,36.45Z"></path><path class="cls-4" d="M79.59,102.46c-.13-.29-.5-.39-.91-.24a1.51,1.51,0,0,0-.22.11c-1.28-2.5-2.55-4.79-3.88-7.2C74,94,73.33,92.88,72.71,91.74c-1.14-2.45-2.37-4.82-3.56-7.12S66.74,80,65.62,77.55c-.69-1.64-1.45-3.26-2.19-4.83-2-4.22-3.89-8.2-4.46-12.84a16.46,16.46,0,0,1,.56-4.56,17.18,17.18,0,0,0,.58-4.79,34.72,34.72,0,0,1,.18-8.7,2.52,2.52,0,0,0-.87-2.41l-.05,0-.06,0a2.62,2.62,0,0,0-2.34.76l0,0,0,.06a7.57,7.57,0,0,0-.78,2v.09a17.8,17.8,0,0,1-.71,3.45c-.51-.81-1-1.62-1.49-2.43l0,.1c-.11.29-.21.59-.32.88.53.88,1.07,1.76,1.64,2.63l.47.75.25-.85a21.53,21.53,0,0,0,1-4.43,7.49,7.49,0,0,1,.62-1.68c.53-.4,1-.73,1.5-.62a1.75,1.75,0,0,1,.5,1.5v0a35.16,35.16,0,0,0-.19,8.93,16.52,16.52,0,0,1-.57,4.56A17.14,17.14,0,0,0,58.16,60c.6,4.79,2.6,9,4.54,13.1.73,1.56,1.5,3.17,2.18,4.81C66,80.31,67.25,82.69,68.44,85S70.85,89.65,72,92.1c.63,1.16,1.26,2.3,1.88,3.42,1.46,2.64,2.84,5.13,4.23,7.9l.18.36.36-.18C79,103.43,79.83,103,79.59,102.46Z"></path><path class="cls-4" d="M38.84,37.84l-.51-1.45c-.9-2.58-1.84-5.24-2.88-7.92a2.28,2.28,0,0,1,.23-1.35l.25,0a45.26,45.26,0,0,1,4.37,8.28c.2-.35.41-.7.62-1A78.34,78.34,0,0,1,37.63,25a.36.36,0,0,1,.24-.33.7.7,0,0,1,.38.12c1.57,2.44,3,4.94,4.35,7.42l.35-.39c.13-.26.27-.51.4-.76-.84-1.73-1.66-3.48-2.41-5.27a.77.77,0,0,1,.05-.29,12.25,12.25,0,0,1,3.3,3.78l.45-.8a12.35,12.35,0,0,0-3.4-3.72.66.66,0,0,0-.75,0,1.36,1.36,0,0,0-.44,1.24l0,.08.42,1c-.55-.92-1.12-1.84-1.71-2.75l-.05-.07-.06-.05a1.53,1.53,0,0,0-1-.28,1.13,1.13,0,0,0-.89,1.27v0c.33,1.21.7,2.4,1.09,3.58-.46-.79-1-1.57-1.5-2.32l-.14-.21-1.1.2-.1.13a3,3,0,0,0-.44,2.13l0,.08c1,2.67,2,5.34,2.89,7.92.25.71.49,1.41.74,2.1l.08-.13Z"></path><path class="cls-4" d="M51,40c.14-.29.29-.57.44-.85L51.31,39c-.11.33-.23.66-.35,1Z"></path><path class="cls-5" d="M49,42.75c-1.29-2.41,0,0,0,0Z"></path><path class="cls-4" d="M47.79,46.85c.06-.11.17-.37.26-.6Z"></path><path class="cls-4" d="M45.09,43.76c.07.15.14.29.2.44.68-1.21,1.3-2.46,1.87-3.73L46.92,40C46.35,41.31,45.75,42.55,45.09,43.76Z"></path><path class="cls-4" d="M47.79,46.85l.26-.6C48.25,45.72,48.38,45.28,47.79,46.85Z"></path><path class="cls-4" d="M41.85,34.32A6.54,6.54,0,0,1,43,33L43,32.9l-.2-.37a7.2,7.2,0,0,0-1.31,1.6l-.38.65c.06.15.12.31.19.46Z"></path><path class="cls-4" d="M41.05,41.9l1.11-2.13L42,39.3c-.42.8-.84,1.61-1.25,2.42l.7.39c.35-.58.68-1.16,1-1.74-.07-.16-.14-.31-.2-.46C41.84,40.57,41.45,41.24,41.05,41.9Z"></path><polygon class="cls-4" points="44.54 44.74 44.53 44.75 44.54 44.74 44.54 44.74"></polygon><path class="cls-4" d="M41.05,41.9c1.29-2.41,0,0,0,0,.4-.66.79-1.33,1.17-2l-.06-.14Z"></path><path class="cls-4" d="M45,34.33c.34-.65.67-1.3,1-1.95-.08-.15-.15-.3-.23-.44-.33.65-.66,1.3-1,1.95C44.86,34,44.93,34.19,45,34.33Z"></path><polygon class="cls-4" points="44.53 44.75 44.54 44.74 44.54 44.74 44.53 44.75"></polygon><path class="cls-4" d="M44.2,35.1l0,0-1.3,2.48-.31.59.2.47c.55-1,1.1-2.07,1.64-3.12Z"></path><path class="cls-4" d="M37.63,39.93l-1.36,2.3c.06.16.11.32.17.49l1.41-2.37C37.77,40.21,37.7,40.07,37.63,39.93Z"></path><polygon class="cls-4" points="44.54 44.74 44.53 44.75 44.54 44.74 44.54 44.74"></polygon><path class="cls-4" d="M47.64,39.38c.39-.91.78-1.81,1.15-2.7l.1-.25L48.64,36c-.41,1-.82,2-1.24,2.93Z"></path><path class="cls-4" d="M44.41,35.48c-.54,1.05-1.09,2.08-1.64,3.12a1.42,1.42,0,0,1,.08.18c.58-1,1.14-2,1.69-3.06Z"></path><path class="cls-4" d="M45.37,35c.14-.27.29-.53.43-.79s.41-.76.62-1.14l0,0,0,0-.18-.34-1,1.91Z"></path><path class="cls-4" d="M45.15,34.6l1-1.91L46,32.38c-.33.65-.66,1.3-1,1.95Z"></path><path class="cls-4" d="M44.54,35.72c-.55,1-1.11,2-1.69,3.06l.21.46c.58-1,1.15-2.07,1.71-3.1Z"></path><path class="cls-4" d="M47.13,38.39l.13.27c.43-.95.85-1.9,1.26-2.86l-.25-.42c-.41.95-.83,1.89-1.25,2.82Z"></path><path class="cls-4" d="M46.52,39.33c-.17.37-.34.74-.5,1.11-.4.88-.81,1.78-1.21,2.69l.22.49c.58-1.29,1.15-2.57,1.73-3.85Z"></path><path class="cls-4" d="M47.4,38.93c.42-1,.83-2,1.24-2.93l-.12-.2c-.41,1-.83,1.91-1.26,2.86A2.29,2.29,0,0,1,47.4,38.93Z"></path><path class="cls-4" d="M45,43.62l.06.14c.66-1.21,1.26-2.45,1.83-3.72l-.16-.27C46.18,41.05,45.61,42.33,45,43.62Z"></path><path class="cls-4" d="M44.53,44.75h0c-.09-.15-.17-.3-.25-.45l-.13.3.41.2,0,0Z"></path><path class="cls-4" d="M41.5,34.13a7.2,7.2,0,0,1,1.31-1.6l-.21-.37c-.07.08-.15.15-.23.23a7.25,7.25,0,0,0-1.22,1.53c-.07.13-.15.26-.23.39l.2.47Z"></path><path class="cls-4" d="M40.69,36.28l-.2-.45c-.5.84-1,1.68-1.47,2.51.06.16.12.33.17.5Z"></path><path class="cls-4" d="M44.53,29.64c-.08-.14-.15-.27-.24-.41-.22.42-.44.84-.67,1.26l-.27.52c.07.15.14.3.22.45Z"></path><path class="cls-4" d="M40.3,35.36l-1.46,2.48.18.5c.48-.83,1-1.67,1.47-2.51C40.43,35.67,40.36,35.52,40.3,35.36Z"></path><path class="cls-4" d="M38.49,39.25l-.18-.5-.21.36c.08.13.15.27.23.41C38.38,39.43,38.43,39.34,38.49,39.25Z"></path><path class="cls-4" d="M49,24.6a.77.77,0,0,1,.05.29c-.87,2.1-1.84,4.14-2.84,6.16l.16.29a1.09,1.09,0,0,0,.08.15c1-2.12,2.07-4.27,3-6.49.06-.34-.15-1.09-.56-.81A13.29,13.29,0,0,0,45,28.82l.23.4A13.5,13.5,0,0,1,49,24.6Z"></path><path class="cls-4" d="M43.78,31.91l.56-1c.14-.28.29-.55.43-.82l-.24-.41-1,1.82Z"></path><path class="cls-4" d="M56.36,33.61a1.21,1.21,0,0,1-.62-.46,33.55,33.55,0,0,0-4.07,6.41l.24.41a36.7,36.7,0,0,1,3.85-6.22l.26.17A4.34,4.34,0,0,1,56,35.6c-1,2.3-1.8,4.6-2.6,6.84l.27.45c.84-2.37,1.7-4.77,2.72-7.18A4.38,4.38,0,0,0,56.36,33.61Z"></path><path class="cls-4" d="M47.34,56.47l0,0a18.51,18.51,0,0,1-2.68,3.76c.09.11.18.21.26.32a19,19,0,0,0,2.78-3.91,68.37,68.37,0,0,0,5.59-12.79L53,43.43A70.28,70.28,0,0,1,47.34,56.47Z"></path><path class="cls-4" d="M51.67,39.56a33.55,33.55,0,0,1,4.07-6.41,1.21,1.21,0,0,0,.62.46,4.38,4.38,0,0,1,0,2.1c-1,2.41-1.88,4.81-2.72,7.18l.27.45c.87-2.44,1.76-5,2.82-7.47l0-.08a4.78,4.78,0,0,0,0-2.29l-.07-.24-.25,0a.82.82,0,0,1-.36-.29l-.3-.44-.34.41a34.08,34.08,0,0,0-4,6.26l.18.32Z"></path><path class="cls-4" d="M38.66,39.75c-.06-.17-.12-.33-.17-.5-.06.09-.11.18-.16.27s.14.28.22.42Z"></path><path class="cls-4" d="M37.85,40.35l-1.41,2.37.18.49,1.45-2.44C38,40.63,37.92,40.49,37.85,40.35Z"></path><path class="cls-4" d="M48.89,24.19c.41-.28.62.47.56.81-.92,2.22-1.94,4.37-3,6.49l.18.35c1.51-2.77,3.06-5.53,4.82-8.24a1.21,1.21,0,0,1,.74-.22.74.74,0,0,1,.56.8,81.26,81.26,0,0,1-3.84,10.71,1.74,1.74,0,0,0,.11.18,47.46,47.46,0,0,1,4.85-9.28l.69.12a2.58,2.58,0,0,1,.37,1.82C53.51,31.39,52.31,35,51.05,38.5l.26.46c.38-1,.75-2.09,1.12-3.16.91-2.58,1.84-5.25,2.89-7.92l0-.08a3,3,0,0,0-.44-2.12l-.1-.14-1.1-.2-.14.21c-.54.76-1,1.53-1.5,2.32.39-1.18.76-2.37,1.09-3.58v0A1.14,1.14,0,0,0,52.27,23a1.47,1.47,0,0,0-1,.29l-.06,0-.05.07c-.59.91-1.16,1.83-1.71,2.75l.42-1,0-.08a1.37,1.37,0,0,0-.44-1.24.66.66,0,0,0-.75,0,13.34,13.34,0,0,0-3.92,4.57,3.73,3.73,0,0,1,.25.39A13.29,13.29,0,0,1,48.89,24.19Z"></path><path class="cls-4" d="M34.48,45.89a22,22,0,0,1-1-4.39,7.48,7.48,0,0,0-.72-1.89c-.62-.46-1.24-.92-2-.71a2.12,2.12,0,0,0-.71,2,35,35,0,0,1,.19,8.82c-.21,3.13,1.35,6.22,1.15,9.35-.81,6.53-4.23,11.9-6.69,17.79-2.27,4.87-4.82,9.34-7.09,14.21-2.1,3.84-4.13,7.35-6.12,11.33-1.85-.91.28-.91,0,0,2-4,4-7.49,6.12-11.33,2.27-4.87,4.82-9.34,7.09-14.21,2.46-5.89,5.88-11.26,6.69-17.79.2-3.13-1.36-6.22-1.15-9.35a35,35,0,0,0-.19-8.82,2.12,2.12,0,0,1,.71-2c.74-.21,1.36.25,2,.71a7.48,7.48,0,0,1,.72,1.89,22,22,0,0,0,1,4.39c.49-.76,1-1.52,1.42-2.29l-.17-.48q-.54.9-1.11,1.8a17.8,17.8,0,0,1-.71-3.45v-.09a7.57,7.57,0,0,0-.78-2l0-.06,0,0a2.62,2.62,0,0,0-2.34-.77l-.06,0-.06,0A2.53,2.53,0,0,0,29.71,41a34.72,34.72,0,0,1,.18,8.7,17.13,17.13,0,0,0,.58,4.79A16.82,16.82,0,0,1,31,59c-.58,4.66-2.47,8.64-4.47,12.86-.74,1.57-1.5,3.19-2.18,4.81-1.13,2.43-2.36,4.8-3.54,7.09s-2.42,4.68-3.55,7.09c-.63,1.17-1.26,2.3-1.88,3.42-1.33,2.41-2.6,4.7-3.88,7.2a1.51,1.51,0,0,0-.22-.11c-.41-.15-.78-.05-.91.24-.24.56.59,1,.95,1.14l.36.18.18-.36c1.39-2.77,2.77-5.26,4.23-7.9.62-1.13,1.25-2.26,1.89-3.44,1.13-2.43,2.36-4.8,3.54-7.09S24,79.46,25.13,77c.67-1.63,1.44-3.24,2.17-4.8,1.94-4.09,3.94-8.31,4.54-13.13a17.06,17.06,0,0,0-.58-4.78,16.52,16.52,0,0,1-.57-4.56,35.07,35.07,0,0,0-.19-8.92v0a1.75,1.75,0,0,1,.5-1.5c.5-.11,1,.23,1.5.62a7.49,7.49,0,0,1,.62,1.68,21.67,21.67,0,0,0,1,4.43l.25.85.47-.74q.65-1,1.26-2l-.18-.5C35.44,44.37,35,45.13,34.48,45.89Z"></path><path class="cls-4" d="M42.66,63.16c-1.39,1.87-1.81,4.25-2.58,6.58C37.7,77,36.5,84.71,34.72,92.1l.39.1c.6-2.49,1.14-5.06,1.67-7.54a139.73,139.73,0,0,1,3.69-14.8c.19-.57.35-1.15.52-1.71a14.78,14.78,0,0,1,2-4.73c.44-.53.92-1.07,1.38-1.59l.28-.32-.26-.32C43.79,61.85,43.21,62.5,42.66,63.16Z"></path><path class="cls-4" d="M47.79,46.85c1.3-2.07,2.34-4.25,3.44-6.44L51,40c-.05.1-.11.2-.16.31L51,40l0-.08c-.08-.12-.15-.25-.23-.38C49.87,41.77,49,44,48.05,46.25,48,46.48,47.85,46.74,47.79,46.85Z"></path><path class="cls-4" d="M51.75,23.89a.79.79,0,0,1,.38-.12.37.37,0,0,1,.24.33,82.08,82.08,0,0,1-3.71,10.37,3.21,3.21,0,0,1,.19.31l.07.11a81.26,81.26,0,0,0,3.84-10.71.74.74,0,0,0-.56-.8,1.21,1.21,0,0,0-.74.22c-1.76,2.71-3.31,5.47-4.82,8.24l.23.43C48.39,29.48,50,26.64,51.75,23.89Z"></path><path class="cls-4" d="M42.66,63.16c.55-.66,1.13-1.31,1.71-2a3.88,3.88,0,0,1-.26-.31l-.37.42c-.46.52-.94,1.07-1.4,1.62a15.09,15.09,0,0,0-2.13,5c-.16.56-.33,1.13-.51,1.69A140,140,0,0,0,36,84.49c-.53,2.48-1.07,5-1.67,7.52l.4.09c1.78-7.39,3-15.13,5.36-22.36C40.85,67.41,41.27,65,42.66,63.16Z"></path><path class="cls-4" d="M47.68,56.67a19,19,0,0,1-2.78,3.91l.27.31a20.11,20.11,0,0,0,2.87-4,67.64,67.64,0,0,0,5.5-12.55l-.27-.44A68.37,68.37,0,0,1,47.68,56.67Z"></path><path class="cls-4" d="M49.2,42.36l.1.21-.21.11h0c-.36.92-.72,1.83-1.11,2.75a5.49,5.49,0,0,0-.55,1.27l.72.35A57.67,57.67,0,0,0,51,41.72l.45-.89-.24-.42c-1.1,2.19-2.14,4.37-3.44,6.44.59-1.57.46-1.13.26-.6,1-2.23,1.82-4.48,2.64-6.76-.08-.15-.17-.3-.26-.45C50,40.15,49.62,41.26,49.2,42.36Z"></path><path class="cls-4" d="M54.07,26.23l.25,0a2.28,2.28,0,0,1,.23,1.35c-1,2.68-2,5.34-2.88,7.92-.3.84-.59,1.68-.89,2.51l.27.45c1.26-3.53,2.46-7.11,3.89-10.77a2.58,2.58,0,0,0-.37-1.82l-.69-.12A47.46,47.46,0,0,0,49,35.07c.08.15.17.29.25.43A49.1,49.1,0,0,1,54.07,26.23Z"></path><path class="cls-4" d="M36.44,42.72c-.06-.17-.11-.33-.17-.49l-.54.89.17.48C36.08,43.31,36.27,43,36.44,42.72Z"></path><path class="cls-4" d="M44.54,44.74Z"></path><path class="cls-4" d="M42.16,39.77l.06.14.63-1.13a1.42,1.42,0,0,0-.08-.18Z"></path><path class="cls-4" d="M46.76,39.77c.17-.37.34-.74.5-1.11l-.13-.27L47,38.2c-.16.38-.33.76-.5,1.13Z"></path><path class="cls-4" d="M50.69,39.49c.08.13.15.26.23.38L51,40c.12-.33.24-.66.35-1l-.26-.46Z"></path><path class="cls-4" d="M44.77,36.14l.6-1.1-.22-.44-.61,1.12Z"></path><path class="cls-4" d="M53.89,43.34l-.27-.45-.35,1,.27.44c.11-.29.21-.59.32-.88Z"></path><path class="cls-4" d="M37.85,40.35l.48-.83c-.08-.14-.15-.28-.23-.41-.16.27-.32.54-.47.82C37.7,40.07,37.77,40.21,37.85,40.35Z"></path><path class="cls-4" d="M51.91,40l-.24-.41-.44.85.24.42Z"></path><path class="cls-4" d="M44.9,60.58c-.08-.11-.17-.21-.26-.32-.17.21-.35.42-.53.62a3.88,3.88,0,0,0,.26.31Z"></path><path class="cls-4" d="M44.54,44.74h0c.19-.32.37-.65.55-1L45,43.62C44.87,44,44.7,44.36,44.54,44.74Z"></path><path class="cls-4" d="M44.37,61.19l.26.32.54-.62-.27-.31Z"></path><path class="cls-4" d="M44.53,29.64c.15-.28.3-.55.46-.82a3.73,3.73,0,0,0-.25-.39l-.45.8C44.38,29.37,44.45,29.5,44.53,29.64Z"></path><path class="cls-4" d="M44.54,35.72l.61-1.12L45,34.33l-.6,1.15Z"></path><path class="cls-4" d="M39,38.34l-.18-.5-.45.78-.08.13.18.5Z"></path><path class="cls-4" d="M36.44,42.72c-.17.29-.36.59-.54.88l.18.5.54-.89Z"></path><path class="cls-4" d="M44.54,44.74l0,0,.31.16c.14-.24.27-.5.41-.75-.06-.15-.13-.29-.2-.44C44.91,44.09,44.73,44.42,44.54,44.74Z"></path><path class="cls-4" d="M42.85,38.78l-.63,1.13c.06.15.13.3.2.46l.64-1.13Z"></path><path class="cls-4" d="M44.41,35.48l.6-1.15c-.08-.14-.15-.29-.23-.44l-.6,1.17,0,0Z"></path><path class="cls-4" d="M44.54,44.74h0c.16-.38.33-.75.49-1.12l-.22-.49-.21.46v0h0l-.21.48-.08.21c.08.15.16.3.25.45C45.45,42.58,44.59,44.62,44.54,44.74Z"></path><path class="cls-4" d="M48.66,34.47l-.39.91.25.42c.13-.3.27-.6.4-.91l-.07-.11A3.21,3.21,0,0,0,48.66,34.47Z"></path><path class="cls-4" d="M42.77,38.6l-.2-.47L42,39.3l.21.47Z"></path><path class="cls-4" d="M46.18,32.69c.15-.28.31-.56.46-.85l-.18-.35-.45.89Z"></path><path class="cls-4" d="M46.36,33l0,0,0,0,.45-.84-.23-.43c-.15.29-.31.57-.46.85Z"></path><path class="cls-4" d="M48.64,36l.39-.93a1.74,1.74,0,0,1-.11-.18c-.13.31-.27.61-.4.91Z"></path><path class="cls-4" d="M49.3,42.57l-.1-.21c-.05.11-.09.22-.13.33h0Z"></path><path class="cls-4" d="M50.43,39c.09.15.18.3.26.45l.36-1-.27-.45C50.67,38.38,50.55,38.71,50.43,39Z"></path><path class="cls-4" d="M48.89,36.43l.39-.93c-.08-.14-.17-.28-.25-.43l-.39.93Z"></path><path class="cls-4" d="M47.4,38.93,46.92,40l.24.43.48-1.09Z"></path><path class="cls-4" d="M41.12,34.78c-.22.35-.42.7-.63,1l.2.45.62-1C41.24,35.09,41.18,34.93,41.12,34.78Z"></path><path class="cls-4" d="M38.55,39.94c-.08-.14-.15-.28-.22-.42l-.48.83c.07.14.14.28.22.42Z"></path><path class="cls-4" d="M39.08,39a1.74,1.74,0,0,0,.11-.18c0-.17-.11-.34-.17-.5l-.53.91c0,.17.11.33.17.5Z"></path><path class="cls-4" d="M46.76,39.77l.16.27.48-1.11a2.29,2.29,0,0,0-.14-.27C47.1,39,46.93,39.4,46.76,39.77Z"></path><path class="cls-4" d="M53.1,43.17a2.77,2.77,0,0,0-.1.26l.27.45.35-1-.27-.45Z"></path><path class="cls-4" d="M51.23,40.41l.44-.85-.06-.09-.18-.32c-.15.28-.3.56-.44.85Z"></path><path class="cls-4" d="M41.12,34.78l-.2-.47c-.21.35-.42.7-.62,1,.06.16.13.31.19.47C40.7,35.48,40.9,35.13,41.12,34.78Z"></path><path class="cls-4" d="M45.22,29.22l-.23-.4c-.16.27-.31.54-.46.82l.24.41Z"></path><path class="cls-4" d="M43.61,32.23l0,0c0-.09.1-.18.14-.27l-.21-.45-.28.53c-.14.18-.3.35-.48.54l.2.37A7.24,7.24,0,0,0,43.61,32.23Z"></path><path class="cls-4" d="M46.22,31.05c-.14.3-.29.59-.44.89.08.14.15.29.23.44l.45-.89a1.09,1.09,0,0,1-.08-.15Z"></path><path class="cls-4" d="M43.29,32l.28-.53c-.08-.15-.15-.3-.22-.45-.13.25-.27.5-.4.76l-.35.39.21.37C43,32.34,43.15,32.17,43.29,32Z"></path><path class="cls-5" d="M41.05,41.9s1.29-2.41,0,0Z"></path></g><path class="cls-4" d="M34.12,25.73s-8.23-1.34-7.45-2.5S34.12,25.73,34.12,25.73Z"></path><path class="cls-4" d="M37.06,18s-7.28-3.38-5.64-4.23S37.06,18,37.06,18Z"></path><path class="cls-4" d="M46.18,14.32s-.4-8-1.81-6.82S46.18,14.32,46.18,14.32Z"></path><path class="cls-4" d="M56,15.14s2.74-6.05,3.66-3.78S56,15.14,56,15.14Z"></path><path class="cls-4" d="M58.21,24s3.46-4.47,4.95-2.81S58.21,24,58.21,24Z"></path></svg> 