<?xml version="1.0" encoding="UTF-8"?> <svg xmlns="http://www.w3.org/2000/svg" id="Layer_1" data-name="Layer 1" viewBox="0 0 1123 362.72"><defs><style>.cls-1{fill:#fff;}</style></defs><title>Artboard 1</title><path class="cls-1" d="M650.57,197.14h32.81V159.8c2-.54,23.61-.63,26.39-.16v96H683.53c0-3,0-6,0-9s0-5.92,0-8.88V219.89c-1.88-.54-29-.71-32.8-.21-.21,2.28-.07,4.66-.09,7s0,4.8,0,7.2v21.73h-26c-.52-1.76-.58-93.77-.05-96.13h26Z"></path><path class="cls-1" d="M289.34,202.45c.2,28.23-23.77,50.64-50.82,50.67-27.43,0-50.86-22.85-50.79-51s23.71-50.86,51.08-50.69C265.25,151.62,289.68,173.69,289.34,202.45Zm-78.14,0A27.38,27.38,0,1,0,238.51,175,27.38,27.38,0,0,0,211.2,202.42Z"></path><path class="cls-1" d="M939.64,159.53h73.09v22.25H966v14.35h38v22.26H966.3c-.55,1.89-.68,11.81-.23,15.17h46.32c.58,1.87.74,18.43.27,22.07H939.84C939.34,254,939.1,164.44,939.64,159.53Z"></path><path class="cls-1" d="M164.62,191.61c1.92,2.12,3.83,4.14,5.64,6.26a31.32,31.32,0,0,1,7.25,26.57,30.17,30.17,0,0,1-7.07,14.72A37.33,37.33,0,0,1,148.88,252a58.43,58.43,0,0,1-10.2,1.2c-9,.17-18.08.06-27.12.05-.62,0-1.25-.08-2-.13V151.28h3.17c8.71.09,17.44-.08,26.14.35,11.55.58,20.37,6.1,25.93,16.25a22.64,22.64,0,0,1,2,17C166.18,187.22,165.3,189.53,164.62,191.61ZM133,229.84c1.88,0,3.62-.05,5.35,0a18.72,18.72,0,0,0,11.1-3.09c4-2.58,6-6.1,4.59-10.74-.79-2.66-2.8-4.36-5-5.82-4.94-3.24-10.45-2.6-16-2.49Zm0-55.09v9.1a13.26,13.26,0,0,0,7.39-.7,8.34,8.34,0,0,0,2.71-1.89c1.35-1.41,1.25-2.84-.18-4.16a7.83,7.83,0,0,0-4.87-2.33C136.42,174.69,134.83,174.75,133,174.75Z"></path><path class="cls-1" d="M793.35,244.29H757.49l-4.72,11.35H725.16a8.94,8.94,0,0,1,.31-1.49q3.64-9.1,7.32-18.19,7.65-18.84,15.31-37.66,4.85-12,9.62-24c1.81-4.52,3.59-9,5.4-13.55a11.88,11.88,0,0,1,.72-1.33h25q18.36,47.92,36.84,96.23H797.87Zm-8.54-22.61c-2.93-7.6-5.79-15-8.87-23-3.19,8-6.38,15.33-9.24,23Z"></path><path class="cls-1" d="M843,159.36h4.18c7.51,0,15-.05,22.55,0a51.49,51.49,0,0,1,28.58,8.94,40.85,40.85,0,0,1,14.49,16.22,34.11,34.11,0,0,1,3.35,19.07c-1.52,13.05-8.72,22.34-19.55,29.09A50.64,50.64,0,0,1,871,240.42c-.47,0-.94.09-1.68.16-.26,2.56-.09,5.09-.12,7.61s0,4.91,0,7.48H843.06C842.52,253.94,842.4,162.17,843,159.36Zm26.38,22.52v35.79c.23.15.29.21.35.22a3.51,3.51,0,0,0,.71.08,21,21,0,0,0,16.48-8.79c3.63-5,3.92-10.55,1.46-16.1a17.89,17.89,0,0,0-8-8.3A20.14,20.14,0,0,0,869.37,181.88Z"></path><path class="cls-1" d="M500.84,194.83c6.06-15,11.91-29.45,17.79-44H543a5.94,5.94,0,0,1-.58,3.93q-5.49,13.63-11,27.25c-3.25,8-6.54,15.91-9.78,23.88-3.36,8.26-6.66,16.56-10,24.82q-4.23,10.42-8.51,20.8c-.21.51-.52,1-.83,1.59H477.15c.93-2.42,1.75-4.63,2.64-6.81q4.23-10.4,8.55-20.77a2.43,2.43,0,0,0-.12-2.24c-3-6.18-5.84-12.39-8.76-18.58l-15.6-33.08q-4.49-9.49-9-19c-.23-.48-.36-1-.62-1.73h25.81Z"></path><path class="cls-1" d="M443.33,253.16h-60c-.51-1.86-.72-96.6-.23-101.47,7.67-.19,15.37-.05,23.38-.1V229.8h36.6C443.64,231.66,443.8,249.59,443.33,253.16Z"></path><path class="cls-1" d="M304.93,151.74h23.31v78H365v23.12c-1.84.48-57.09.59-59.93.15C304.62,251.33,304.45,155.28,304.93,151.74Z"></path><path class="cls-1" d="M592.35,192c.08-1.65,1.12-2.38,1.85-3.26a37.6,37.6,0,0,0,8-15.63,14.93,14.93,0,0,0-.24-8.53c-1.62-4.6-4.68-7.79-10.37-7.45-12.13.71-21.72,6.14-28.79,15.83a23.83,23.83,0,0,0-4.53,17.23,22.74,22.74,0,0,0,4.41,11c3.36,4.46,7,8.71,10.58,13a61.44,61.44,0,0,1,8,11.31C585.62,234,584.44,245,578,252c-.52.57-1.1,1.09-2,2,.19-1.15.28-1.74.39-2.34,1.16-6.32,1.36-12.65-1.52-18.56a86.22,86.22,0,0,0-6.23-10.21,56.29,56.29,0,0,0-9.2-11,52.21,52.21,0,0,1-6.87-7.67c-2.12-2.78-2.82-6.24-3.37-9.63-2.16-13.44,2.48-24.5,12.09-33.71a47.66,47.66,0,0,1,22.6-12.45,27.7,27.7,0,0,1,15.13.37c7.18,2.36,10.8,7.83,11.13,15.38a24.88,24.88,0,0,1-2.8,12.26A39.82,39.82,0,0,1,592.35,192Z"></path><path class="cls-1" d="M564.64,233.75c-.6.68-1.17,1.41-1.83,2a31.8,31.8,0,0,0-7.11,10.15,15.13,15.13,0,0,0-1.25,10.48c1.17,4.34,3.74,6.36,8.22,6.68a28.18,28.18,0,0,0,22.94-8.8c6.73-6.83,8.36-16.13,4.15-24.75-2-4.15-4.58-8-7-12-2.77-4.49-5.67-8.92-6.74-14.2-1.63-8,.55-14.84,6.69-20.32.15-.14.42-.14.79-.25-.45,1.79-1,3.44-1.28,5.12a26.65,26.65,0,0,0,2.21,17.26c2.61,5.31,5.24,10.58,8.89,15.3,1.65,2.14,3.08,4.47,4.54,6.76a7.76,7.76,0,0,1,1,2.41c3.14,13.81-1,25.71-12.48,34.28a37.14,37.14,0,0,1-18.91,7.51,21.26,21.26,0,0,1-13-2.53,13.11,13.11,0,0,1-6.91-11.34c-.36-6.53,2-12,6.38-16.76a34.14,34.14,0,0,1,9.35-7,10,10,0,0,1,1-.4Z"></path><path class="cls-1" d="M1037.68,114.16c8,.4,15.21,3.06,20.33,9.89a17.19,17.19,0,0,1,2.77,16.1c-2.07,6.64-6.82,10.77-13.12,13.29a26.27,26.27,0,0,1-11.71,2c-7-.5-13.28-2.81-18.07-8.15-6.68-7.43-6.86-17.18-.15-24.73C1022.93,116.73,1029.72,114.38,1037.68,114.16Zm-.36,35.55c5.59-.17,10.57-1.89,14.31-6.37,4-4.8,4.58-10.41,1-15.66a17.19,17.19,0,0,0-13.25-7.52c-6.6-.61-12.41,1.21-16.67,6.47-4.12,5.09-4.24,11.42.34,16.84C1026.73,147.86,1031.66,149.54,1037.32,149.71Z"></path><path class="cls-1" d="M619.93,136.41a13.54,13.54,0,0,1-8.61,12.73A7.7,7.7,0,0,1,601,143.58c-.91-3.59,0-6.79,1.81-9.82a12.08,12.08,0,0,1,6.73-5.46,7.55,7.55,0,0,1,10.19,6.08C619.85,135.16,619.89,136,619.93,136.41Z"></path><path class="cls-1" d="M537.09,278.13A10.66,10.66,0,0,1,541.9,269c2.35-1.66,5-2.26,7.65-.88s3.58,3.79,3.54,6.58a10.84,10.84,0,0,1-5.17,9.42c-2.33,1.51-4.86,2.08-7.45.64S537.07,281.43,537.09,278.13Z"></path><path class="cls-1" d="M595.16,137.56a8.53,8.53,0,0,1-2.46,6,5.22,5.22,0,0,1-7.66-.16,8.42,8.42,0,0,1,.48-11.63c3.1-2.85,7.92-1.2,9.19,3.18A22.24,22.24,0,0,1,595.16,137.56Z"></path><path class="cls-1" d="M567.39,279.3c-.29,2.39-.71,4.25-2.26,5.61-2.57,2.26-4.63,1.79-6.6-.56-2.15-2.55-1.55-7.44,1-9.61a4.26,4.26,0,0,1,6.73,1.14A17.61,17.61,0,0,1,567.39,279.3Z"></path><path class="cls-1" d="M578,143.05a16.65,16.65,0,0,1-.69,2.74,4.08,4.08,0,0,1-6,1.75,6.45,6.45,0,0,1-2.92-6.35c.28-2.44,2-3.61,4-4.24s3.12.72,4.16,2.11A6.82,6.82,0,0,1,578,143.05Z"></path><path class="cls-1" d="M565.92,150.82a3.85,3.85,0,0,1-2.25,3.89,3.71,3.71,0,0,1-4.38-.91,5,5,0,0,1-1.69-5.17,3.84,3.84,0,0,1,6.54-1.86A5.52,5.52,0,0,1,565.92,150.82Z"></path><path class="cls-1" d="M579.67,277.87a16.6,16.6,0,0,1-1.31,3.16c-1.51,2.19-4,2.12-5.5-.11a6.1,6.1,0,0,1-.5-6.14,3.26,3.26,0,0,1,5.66-.58A18.92,18.92,0,0,1,579.67,277.87Z"></path><path class="cls-1" d="M555.25,164.07c-2.07-.12-3.77-2.4-3.64-4.86a3.68,3.68,0,0,1,3.7-3.3c1.89.11,3.63,2.46,3.51,4.76A3.42,3.42,0,0,1,555.25,164.07Z"></path><path class="cls-1" d="M589.2,273a13.47,13.47,0,0,1-1.08,2.55,2.58,2.58,0,0,1-3.78.66,5.11,5.11,0,0,1-1.89-5.74c.84-2.23,2.94-2.85,4.81-1.35A5.14,5.14,0,0,1,589.2,273Z"></path><path class="cls-1" d="M589,264.6a2.92,2.92,0,0,1,1.65-2.91c1-.42,2.58.41,3.39,1.66a3.76,3.76,0,0,1,0,4,3.18,3.18,0,0,1-3.27.79C589.63,267.7,589,266.53,589,264.6Z"></path><path class="cls-1" d="M1048.21,144.36c-2,0-3.3,0-4.64,0a2.23,2.23,0,0,1-2.06-.94c-.52-.71-1.25-1.27-1.69-2-1.36-2.29-3.35-2.67-5.92-2.08l-.25,4.87c-.87.06-1.63.13-2.4.15s-1.42,0-2.48,0c0-6.29,0-12.41,0-18.67a11.51,11.51,0,0,1,1.67-.29c2.31,0,4.64-.14,7,0a19.77,19.77,0,0,1,4.86,1c4.79,1.62,4.78,8.08,1.84,10.44l-1.25,1c1,1.17,1.76,2.14,2.57,3.11ZM1033.94,135a50.18,50.18,0,0,0,5.06-.29,2.37,2.37,0,0,0,2.25-2.59,2.53,2.53,0,0,0-2.39-2.51c-1.62-.15-3.26,0-4.92,0Z"></path></svg> 