<?xml version="1.0" encoding="UTF-8"?> <svg xmlns="http://www.w3.org/2000/svg" xmlns:xlink="http://www.w3.org/1999/xlink" id="Layer_1" data-name="Layer 1" viewBox="0 0 558.06 187.56"><defs><style>.cls-1,.cls-3{fill:none;}.cls-2{fill:#7a5d8d;}.cls-3{stroke:#41c1cc;stroke-miterlimit:10;stroke-width:2px;}.cls-4{clip-path:url(#clip-path);}.cls-5{fill:#41c1cc;}.cls-6{fill:#eaa787;}</style><clipPath id="clip-path"><circle id="SVGID" class="cls-1" cx="102.36" cy="93.78" r="56.43"></circle></clipPath></defs><title>Artboard 3 copy</title><path class="cls-2" d="M221.32,72.5a8.87,8.87,0,0,1,2,5.7,9.19,9.19,0,0,1-3.17,7.43Q217,88.3,211,88.3H193.82v-37h16.8q5.65,0,8.74,2.46a8.43,8.43,0,0,1,3.09,7,8.71,8.71,0,0,1-1.78,5.58,8.2,8.2,0,0,1-4.66,2.9A9.26,9.26,0,0,1,221.32,72.5Zm-18.55-6.08h5.86c3.1,0,4.66-1.32,4.66-4s-1.59-4-4.77-4h-5.75ZM214.13,77a3.9,3.9,0,0,0-1.31-3.12,5.57,5.57,0,0,0-3.72-1.12h-6.33V81h6.38Q214.13,81,214.13,77Z"></path><path class="cls-2" d="M237,58.42v7.74h12.51v6.75H237v8.22H251V88.3H228v-37h23v7.12Z"></path><path class="cls-2" d="M265.05,51.3v37H256.1v-37Z"></path><path class="cls-2" d="M304.1,88.3h-9l-15-22.71V88.3h-8.95v-37h8.95l15,22.92V51.3h9Z"></path><path class="cls-2" d="M339.07,54.33a14.53,14.53,0,0,1,5.6,9.22h-9.48a7.28,7.28,0,0,0-2.88-3.17,9.63,9.63,0,0,0-11.46,1.67,11.14,11.14,0,0,0-2.56,7.72c0,3.53.89,6.23,2.69,8.12s4.35,2.82,7.67,2.82a9.26,9.26,0,0,0,5.6-1.75,9.37,9.37,0,0,0,3.4-5h-11.3V67.52h18.79v8.85a18.22,18.22,0,0,1-3.35,6,17.27,17.27,0,0,1-5.89,4.5,18.66,18.66,0,0,1-8.19,1.73,19.53,19.53,0,0,1-9.79-2.38,16.39,16.39,0,0,1-6.47-6.68,20.64,20.64,0,0,1-2.27-9.79A20.63,20.63,0,0,1,311.45,60a16.38,16.38,0,0,1,6.44-6.68,19.2,19.2,0,0,1,9.71-2.38Q334.56,50.93,339.07,54.33Z"></path><path class="cls-2" d="M222.42,107.65a16.91,16.91,0,0,1,6,10h-9.47a8.66,8.66,0,0,0-3.22-4,9,9,0,0,0-5.15-1.47,7.87,7.87,0,0,0-6.34,2.88,13.44,13.44,0,0,0,0,15.36,7.9,7.9,0,0,0,6.34,2.85,9,9,0,0,0,5.15-1.46,8.73,8.73,0,0,0,3.22-4h9.47a17,17,0,0,1-6,10,18,18,0,0,1-11.7,3.75,18.52,18.52,0,0,1-9.47-2.38,16.2,16.2,0,0,1-6.31-6.68,22.67,22.67,0,0,1,0-19.57,16.14,16.14,0,0,1,6.31-6.68,18.43,18.43,0,0,1,9.47-2.38A18.1,18.1,0,0,1,222.42,107.65Z"></path><path class="cls-2" d="M260.53,106.15a17.81,17.81,0,0,1,6.72,6.76,20.58,20.58,0,0,1,0,19.55,18,18,0,0,1-6.76,6.78,19.57,19.57,0,0,1-18.89,0,17.87,17.87,0,0,1-6.75-6.78,20.43,20.43,0,0,1,0-19.55,17.88,17.88,0,0,1,6.75-6.76,19.69,19.69,0,0,1,18.95,0ZM244,114.9a12.92,12.92,0,0,0,0,15.52,9.91,9.91,0,0,0,14,0,12.85,12.85,0,0,0,0-15.5,9.94,9.94,0,0,0-14,0Z"></path><path class="cls-2" d="M307.61,141.3h-8.95l-15-22.71V141.3h-8.95v-37h8.95l15,22.92V104.3h8.95Z"></path><path class="cls-2" d="M338.88,136.28a10.46,10.46,0,0,1-4.39,3.92,15.48,15.48,0,0,1-7,1.47,16.52,16.52,0,0,1-10.26-3,11,11,0,0,1-4.4-8.48h9.53a5,5,0,0,0,1.49,3.3,4.54,4.54,0,0,0,3.27,1.21,3.79,3.79,0,0,0,2.72-.95,3.29,3.29,0,0,0,1-2.51,3.23,3.23,0,0,0-.92-2.35,7.12,7.12,0,0,0-2.28-1.55c-.91-.4-2.16-.88-3.77-1.44a46.83,46.83,0,0,1-5.73-2.33,10.48,10.48,0,0,1-3.82-3.35,10.88,10.88,0,0,1,.08-11.49A10.74,10.74,0,0,1,319,105a17,17,0,0,1,6.78-1.28q6.18,0,9.81,2.93a11.16,11.16,0,0,1,4.11,8.06H330a4.94,4.94,0,0,0-1.33-2.9,3.93,3.93,0,0,0-2.91-1.08,3.79,3.79,0,0,0-2.54.84,3.45,3.45,0,0,0-.1,4.69,6.49,6.49,0,0,0,2.17,1.49c.87.38,2.13.87,3.77,1.46a41.77,41.77,0,0,1,5.81,2.39,11.05,11.05,0,0,1,3.87,3.43,9.79,9.79,0,0,1,1.62,5.86A10.16,10.16,0,0,1,338.88,136.28Z"></path><path class="cls-2" d="M354.3,104.3v37h-8.95v-37Z"></path><path class="cls-2" d="M385.57,136.28a10.43,10.43,0,0,1-4.4,3.92,15.42,15.42,0,0,1-7,1.47,16.56,16.56,0,0,1-10.26-3,11,11,0,0,1-4.39-8.48H369a5,5,0,0,0,1.5,3.3,4.54,4.54,0,0,0,3.27,1.21,3.79,3.79,0,0,0,2.72-.95,3.28,3.28,0,0,0,1-2.51,3.22,3.22,0,0,0-.91-2.35,7.12,7.12,0,0,0-2.28-1.55c-.91-.4-2.16-.88-3.77-1.44a45.54,45.54,0,0,1-5.73-2.33,10.48,10.48,0,0,1-3.82-3.35,9.64,9.64,0,0,1-1.6-5.78,9.74,9.74,0,0,1,1.68-5.71,10.68,10.68,0,0,1,4.63-3.69,17,17,0,0,1,6.78-1.28q6.18,0,9.81,2.93a11.16,11.16,0,0,1,4.11,8.06H376.7a5,5,0,0,0-1.34-2.9,3.89,3.89,0,0,0-2.9-1.08,3.79,3.79,0,0,0-2.54.84,3.07,3.07,0,0,0-1,2.46,3.13,3.13,0,0,0,.87,2.23,6.49,6.49,0,0,0,2.17,1.49c.87.38,2.13.87,3.77,1.46a41.77,41.77,0,0,1,5.81,2.39,11.05,11.05,0,0,1,3.87,3.43,9.79,9.79,0,0,1,1.62,5.86A10.25,10.25,0,0,1,385.57,136.28Z"></path><path class="cls-2" d="M418.63,104.3v7.12H408.58V141.3h-9V111.42h-9.94V104.3Z"></path><path class="cls-2" d="M431.34,111.42v7.74h12.51v6.75H431.34v8.22h14.08v7.17h-23v-37h23v7.12Z"></path><path class="cls-2" d="M483.37,141.3h-8.95l-15-22.71V141.3H450.5v-37h8.95l15,22.92V104.3h8.95Z"></path><path class="cls-2" d="M516.14,104.3v7.12H506.09V141.3h-9V111.42h-9.95V104.3Z"></path><circle class="cls-3" cx="102.36" cy="93.78" r="62.3"></circle><g class="cls-4"><circle class="cls-1" cx="102.36" cy="93.23" r="56.43"></circle><path class="cls-5" d="M165.78,150.8c.41-1.34-2.71-1.33,0,0Z"></path><path class="cls-1" d="M108.31,63.2a1.06,1.06,0,0,0-.07-.42,19.63,19.63,0,0,0-5.55,6.76c.5.88,1,1.78,1.46,2.69C105.62,69.28,107,66.27,108.31,63.2Z"></path><path class="cls-1" d="M93.07,85l-.17.29c.31.59.62,1.18.91,1.77C93.56,86.36,93.32,85.67,93.07,85Z"></path><path class="cls-1" d="M106.23,84.44c.76,1.44,1.53,2.9,2.28,4.36.62-1.6,1.22-3.23,1.81-4.86q-1.09-1.89-2.25-3.82l-.15.36C107.37,81.79,106.81,83.11,106.23,84.44Z"></path><path class="cls-1" d="M112.14,78.81c1.32-3.78,2.69-7.68,4.22-11.6a3.35,3.35,0,0,0-.34-2l-.37-.07a72.69,72.69,0,0,0-7,13.6c.75,1.25,1.48,2.5,2.2,3.73Z"></path><path class="cls-1" d="M106.21,75.44a11.66,11.66,0,0,1,1.51,1.8A119.36,119.36,0,0,0,113.16,62a.52.52,0,0,0-.34-.48,1.11,1.11,0,0,0-.56.18c-2.61,4-4.93,8.18-7.16,12.28l.27.5A8.56,8.56,0,0,0,106.21,75.44Z"></path><path class="cls-1" d="M101.16,78.1l-1.72-3.16-.08.09a8.66,8.66,0,0,0-1.61,2L97,78.37c.6,1.43,1.22,2.84,1.84,4.24l.46-.86Z"></path><path class="cls-1" d="M111.14,85.35l0-.08c-.07.18-.13.36-.19.53C111,85.65,111.06,85.5,111.14,85.35Z"></path><path class="cls-1" d="M104.58,84.37Q103.28,82,102,79.7c-.81,1.5-1.65,3-2.51,4.53l1.36,3c.4.89.81,1.79,1.21,2.69L103.85,86C104.1,85.46,104.34,84.91,104.58,84.37Z"></path><path class="cls-1" d="M105.79,109.49c3.68-6.15,5.94-12.45,8.3-19.11-.75-1.26-1.49-2.53-2.24-3.82l-.66,1.31c-1.3,2.61-2.65,5.3-4.24,7.83l-1-.52a8,8,0,0,1,.8-1.86c.57-1.34,1.11-2.68,1.63-4l-.69.39c-.73-1.21-1.43-2.42-2.11-3.64-.84,1.87-1.75,3.7-2.74,5.47l.15.34,0,0h0s.15.37.3.72c.09.2.19.44.31.73l-1,.53c-.29-.48-.54-1-.81-1.47l-.6-.3.19-.45c-1-1.87-1.89-3.8-2.74-5.75-.49.86-1,1.71-1.5,2.56l-1-.57c.61-1.19,1.23-2.37,1.85-3.55l-1.1-2.6c-.25-.6-.5-1.21-.76-1.82-.75,1.27-1.48,2.52-2.19,3.74C95.17,87.36,96.5,91,98,94.56a7.75,7.75,0,0,1,.8,1.87l-1,.52c-1.59-2.53-2.94-5.23-4.24-7.83-.44-.88-.88-1.76-1.33-2.64-.71,1.2-1.41,2.39-2.13,3.57.14.4.29.79.42,1.18,2.41,6.81,4.69,13.23,8.45,19.5l0,0a23.05,23.05,0,0,0,2.88,4.27,27.2,27.2,0,0,0,3.92-5.52Z"></path><path class="cls-1" d="M102.9,78.07c.81,1.57,1.62,3.11,2.43,4.64.61-1.36,1.22-2.75,1.82-4.14l-.17-.28a9.17,9.17,0,0,0-1.61-2,9.65,9.65,0,0,1-.93-1c-.31.55-.61,1.11-.91,1.67Z"></path><path class="cls-1" d="M86.58,77.44a2,2,0,0,1-.37.24,6.38,6.38,0,0,0,.1,2.46c1.2,2.84,2.25,5.68,3.25,8.47.66-1.11,1.33-2.23,2-3.37A48.58,48.58,0,0,0,86.58,77.44Z"></path><path class="cls-1" d="M103.5,73.53a3.24,3.24,0,0,0-.17-.32c-.43-.83-.86-1.65-1.31-2.45l-.63,1.2-.81,1.53c.48,1,1,1.94,1.46,2.9C102.53,75.44,103,74.49,103.5,73.53Z"></path><path class="cls-1" d="M98.51,74.2l.34-.35c-2-3.63-4.08-7.3-6.39-10.87a1,1,0,0,0-.55-.17.5.5,0,0,0-.35.47A114.07,114.07,0,0,0,96.38,77c.12-.19.23-.38.34-.57A9.94,9.94,0,0,1,98.51,74.2Z"></path><path class="cls-1" d="M89.07,66.41l-.37.06a3.35,3.35,0,0,0-.34,2c1.53,3.92,2.9,7.83,4.22,11.6.26.72.5,1.42.75,2.13l2.14-3.63A67.14,67.14,0,0,0,89.07,66.41Z"></path><path class="cls-1" d="M118.41,78.9a6.44,6.44,0,0,0,.11-2.47,1.63,1.63,0,0,1-.38-.24,52.08,52.08,0,0,0-5.65,9.12c.71,1.22,1.41,2.43,2.12,3.62C115.77,85.64,117,82.26,118.41,78.9Z"></path><path class="cls-1" d="M101.33,69.57A17.91,17.91,0,0,0,96.48,64a1,1,0,0,0-.07.42c1.09,2.62,2.29,5.18,3.53,7.72l.4-.76C100.67,70.79,101,70.17,101.33,69.57Z"></path><path class="cls-5" d="M103.32,118.6c.67.76,1.37,1.55,2,2.3a21.31,21.31,0,0,1,2.92,7c.24.82.49,1.67.77,2.51a208.91,208.91,0,0,1,5.41,21.69c.77,3.64,1.56,7.4,2.44,11.05l1.15-.28c-.87-3.63-1.67-7.39-2.44-11A205.6,205.6,0,0,0,110.13,130c-.27-.82-.52-1.66-.75-2.47a22.09,22.09,0,0,0-3.14-7.36c-.66-.79-1.36-1.59-2-2.36-.54-.6-1.08-1.22-1.6-1.84-.27.3-.53.61-.79.91Z"></path><path class="cls-5" d="M86.31,80.14a6.38,6.38,0,0,1-.1-2.46,2,2,0,0,0,.37-.24,48.58,48.58,0,0,1,5,7.8l.7-1.2a46.62,46.62,0,0,0-5.18-7.87l-.49-.59-.44.63a1.25,1.25,0,0,1-.53.43l-.36.07-.11.35a6.88,6.88,0,0,0,0,3.35l0,.13c1.32,3.14,2.47,6.3,3.57,9.39.27-.44.53-.88.79-1.32C88.56,85.82,87.51,83,86.31,80.14Z"></path><path class="cls-5" d="M153.06,176.91c-.18-.43-.73-.58-1.32-.36a1.54,1.54,0,0,0-.34.17c-1.86-3.66-3.72-7-5.68-10.56-.91-1.65-1.83-3.3-2.74-5-1.67-3.58-3.47-7.07-5.21-10.44s-3.54-6.83-5.19-10.36c-1-2.41-2.12-4.78-3.21-7.08-2.93-6.18-5.69-12-6.54-18.82a24.43,24.43,0,0,1,.83-6.69,25.42,25.42,0,0,0,.86-7c-.31-4.73-.49-8.68.26-12.76a3.72,3.72,0,0,0-1.27-3.53l-.08,0-.1,0c-1.37-.4-2.46.41-3.42,1.13l-.08,0-.06.08a11.29,11.29,0,0,0-1.13,2.94l0,.12a25.12,25.12,0,0,1-1,5.07c-.74-1.19-1.46-2.37-2.18-3.57a.88.88,0,0,1,0,.15l-.46,1.29c.78,1.29,1.57,2.58,2.4,3.86l.69,1.09.37-1.24a31.93,31.93,0,0,0,1.45-6.5,12.22,12.22,0,0,1,.9-2.46c.78-.58,1.47-1.06,2.21-.9a2.56,2.56,0,0,1,.73,2.2v.06c-.78,4.22-.6,8.25-.29,13.08a23.92,23.92,0,0,1-.82,6.68,25.56,25.56,0,0,0-.86,7c.88,7,3.81,13.22,6.65,19.22,1.08,2.28,2.2,4.64,3.2,7,1.67,3.58,3.47,7.07,5.21,10.43s3.54,6.84,5.21,10.43c.93,1.7,1.85,3.36,2.76,5,2.14,3.87,4.17,7.52,6.21,11.58l.26.53.53-.26C152.2,178.32,153.41,177.72,153.06,176.91Z"></path><path class="cls-5" d="M93.33,82.18c-.25-.71-.49-1.41-.75-2.13-1.32-3.77-2.69-7.68-4.22-11.6a3.35,3.35,0,0,1,.34-2l.37-.06a67.14,67.14,0,0,1,6.4,12.14L96.38,77a114.07,114.07,0,0,1-4.82-13.73.5.5,0,0,1,.35-.47,1,1,0,0,1,.55.17c2.31,3.57,4.39,7.24,6.39,10.87a6.37,6.37,0,0,0,.5-.57c.2-.37.4-.74.59-1.11-1.24-2.54-2.44-5.1-3.53-7.72a1,1,0,0,1,.07-.42,17.91,17.91,0,0,1,4.85,5.54c.21-.4.43-.8.66-1.19a18.26,18.26,0,0,0-5-5.44,1,1,0,0,0-1.09,0,2,2,0,0,0-.65,1.81l0,.13c.2.48.4,1,.61,1.44q-1.22-2-2.51-4l-.07-.1-.09-.07a2.32,2.32,0,0,0-1.53-.42,1.67,1.67,0,0,0-1.3,1.87v.05q.74,2.67,1.6,5.25c-.68-1.16-1.4-2.29-2.19-3.4l-.22-.3L88,65.4l-.14.2a4.42,4.42,0,0,0-.65,3.11l0,.12c1.54,3.92,2.91,7.83,4.24,11.61.36,1,.72,2.06,1.08,3.08l.12-.2C92.89,83,93.11,82.56,93.33,82.18Z"></path><path class="cls-5" d="M111.14,85.35c.21-.42.42-.84.64-1.25l-.16-.28c-.18.48-.35,1-.52,1.45Z"></path><path class="cls-6" d="M108.14,89.38c-1.88-3.53,0-.07,0,0Z"></path><path class="cls-5" d="M106.45,95.39c.09-.17.24-.54.37-.88C106.7,94.8,106.58,95.1,106.45,95.39Z"></path><path class="cls-5" d="M102.5,90.86l.29.65c1-1.77,1.9-3.6,2.74-5.47l-.36-.63C104.34,87.27,103.47,89.09,102.5,90.86Z"></path><path class="cls-5" d="M106.45,95.39c.13-.29.25-.59.37-.88C107.12,93.73,107.32,93.09,106.45,95.39Z"></path><path class="cls-5" d="M97.75,77a8.66,8.66,0,0,1,1.61-2l.08-.09-.29-.55a10.57,10.57,0,0,0-1.92,2.35l-.56,1c.09.23.18.46.28.68Z"></path><path class="cls-5" d="M96.58,88.14c.53-1,1.07-2.08,1.62-3.12-.11-.24-.2-.47-.3-.7-.62,1.18-1.24,2.36-1.85,3.55l1,.57c.51-.85,1-1.7,1.5-2.56l-.3-.67C97.72,86.19,97.16,87.16,96.58,88.14Z"></path><path class="cls-5" d="M101.68,92.29v0Z"></path><path class="cls-5" d="M96.58,88.14c1.88-3.54,0-.07,0,0,.58-1,1.14-2,1.7-2.93A1.54,1.54,0,0,1,98.2,85C97.65,86.06,97.11,87.09,96.58,88.14Z"></path><path class="cls-5" d="M102.38,77c.49-1,1-1.91,1.46-2.87l-.34-.64c-.48,1-1,1.91-1.46,2.86C102.15,76.61,102.26,76.83,102.38,77Z"></path><path class="cls-5" d="M101.68,92.31h0Z"></path><path class="cls-5" d="M101.19,78.16l0-.06-1.91,3.65-.46.86c.11.23.21.46.31.69l2.4-4.57Z"></path><path class="cls-5" d="M91.55,85.24c-.66,1.14-1.33,2.26-2,3.37l.26.72c.69-1.15,1.37-2.31,2.05-3.48Z"></path><path class="cls-5" d="M101.68,92.29v0Z"></path><path class="cls-5" d="M106.23,84.44c.58-1.33,1.14-2.65,1.69-4l.15-.36-.38-.64c-.6,1.44-1.19,2.87-1.8,4.29Z"></path><path class="cls-5" d="M101.5,78.73,99.1,83.3c0,.09.08.17.11.26.84-1.5,1.67-3,2.48-4.49C101.62,79,101.56,78.84,101.5,78.73Z"></path><path class="cls-5" d="M102.9,78.07l.63-1.15c.3-.56.6-1.12.91-1.67l0,0-.05-.07-.26-.49c-.51.93-1,1.86-1.51,2.8Z"></path><path class="cls-5" d="M102.58,77.44c.5-.94,1-1.87,1.51-2.8l-.25-.47c-.48,1-1,1.92-1.46,2.87Z"></path><path class="cls-5" d="M101.69,79.07c-.81,1.5-1.64,3-2.48,4.49l.3.67c.86-1.51,1.7-3,2.51-4.53Z"></path><path class="cls-5" d="M105.48,83l.2.38c.62-1.39,1.24-2.78,1.84-4.18-.12-.21-.24-.42-.37-.63-.6,1.39-1.21,2.78-1.82,4.14Z"></path><path class="cls-5" d="M104.58,84.37c-.24.54-.48,1.09-.73,1.63l-1.77,3.93.33.73Q103.67,87.82,105,85Z"></path><path class="cls-5" d="M105.89,83.77c.61-1.42,1.2-2.85,1.8-4.29l-.17-.28c-.6,1.4-1.22,2.79-1.84,4.18Z"></path><path class="cls-5" d="M102.41,90.66l.09.2c1-1.77,1.84-3.59,2.67-5.45-.08-.13-.15-.27-.22-.4Q103.67,87.83,102.41,90.66Z"></path><path class="cls-5" d="M101.68,92.31v0c-.12-.22-.24-.43-.36-.66l-.19.45.6.3,0-.08Z"></path><path class="cls-5" d="M97.23,76.74a10.57,10.57,0,0,1,1.92-2.35l-.3-.54-.34.35a9.94,9.94,0,0,0-1.79,2.24c-.11.19-.22.38-.34.57.1.23.19.46.29.68Z"></path><path class="cls-5" d="M96,79.9l-.28-.67c-.74,1.24-1.46,2.47-2.17,3.68.09.24.17.49.26.73C94.56,82.42,95.29,81.17,96,79.9Z"></path><path class="cls-5" d="M101.68,70.16c-.12-.2-.23-.4-.35-.59-.33.6-.66,1.22-1,1.84l-.4.76c.11.22.21.45.32.66C100.74,71.94,101.2,71,101.68,70.16Z"></path><path class="cls-5" d="M95.47,78.55l-2.14,3.63c.09.24.18.49.26.73.71-1.21,1.43-2.44,2.17-3.68C95.66,79,95.56,78.78,95.47,78.55Z"></path><path class="cls-5" d="M92.81,84.25c-.08-.24-.17-.49-.26-.73l-.3.52.33.61Z"></path><path class="cls-5" d="M108.24,62.78a1.06,1.06,0,0,1,.07.42c-1.28,3.07-2.69,6.08-4.16,9l.23.43.12.22c1.55-3.11,3-6.27,4.39-9.52.09-.5-.23-1.59-.82-1.18A19.52,19.52,0,0,0,102.34,69c.12.2.23.4.35.59A19.63,19.63,0,0,1,108.24,62.78Z"></path><path class="cls-5" d="M100.58,73.49l.81-1.53.63-1.2-.34-.6c-.48.88-.94,1.78-1.42,2.67C100.37,73.05,100.47,73.28,100.58,73.49Z"></path><path class="cls-5" d="M119,76a1.77,1.77,0,0,1-.91-.68,50.88,50.88,0,0,0-6,9.4l.36.61a52.08,52.08,0,0,1,5.65-9.12,1.63,1.63,0,0,0,.38.24,6.44,6.44,0,0,1-.11,2.47c-1.42,3.36-2.64,6.74-3.8,10l.39.66c1.23-3.48,2.49-7,4-10.52A6.45,6.45,0,0,0,119,76Z"></path><path class="cls-5" d="M105.79,109.49l0,0a27.2,27.2,0,0,1-3.92,5.52l.38.46a27.51,27.51,0,0,0,4.07-5.72c3.63-6.05,5.92-12.34,8.2-18.76l-.4-.65C111.73,97,109.47,103.34,105.79,109.49Z"></path><path class="cls-5" d="M112.13,84.7a50.88,50.88,0,0,1,6-9.4A1.77,1.77,0,0,0,119,76a6.45,6.45,0,0,1,0,3.09c-1.49,3.53-2.75,7-4,10.52l.39.65c1.27-3.58,2.58-7.27,4.13-10.94l0-.13a6.92,6.92,0,0,0,0-3.36l-.1-.35-.36-.06a1.14,1.14,0,0,1-.53-.43l-.45-.64-.49.59a49.74,49.74,0,0,0-5.87,9.18l.28.47Z"></path><path class="cls-5" d="M93.07,85c-.08-.25-.17-.49-.26-.73l-.23.4c.11.21.22.41.32.62Z"></path><path class="cls-5" d="M91.87,85.85c-.68,1.17-1.36,2.33-2.05,3.48l.25.72c.72-1.18,1.42-2.37,2.13-3.57Z"></path><path class="cls-5" d="M108.07,62.18c.59-.41.91.68.82,1.18-1.36,3.25-2.84,6.41-4.39,9.52l.27.51c2.21-4.06,4.48-8.1,7.06-12.09a1.77,1.77,0,0,1,1.09-.32,1.09,1.09,0,0,1,.82,1.18,119.06,119.06,0,0,1-5.64,15.7c.06.09.11.18.16.27a70.19,70.19,0,0,1,7.12-13.62l1,.18a3.88,3.88,0,0,1,.56,2.68c-2.1,5.35-3.87,10.61-5.71,15.78l.39.67q.81-2.28,1.63-4.62c1.33-3.78,2.7-7.7,4.24-11.62l0-.11a4.46,4.46,0,0,0-.65-3.12l-.14-.2-1.61-.28-.22.3c-.79,1.11-1.51,2.24-2.19,3.4.58-1.73,1.12-3.47,1.6-5.25v-.06A1.67,1.67,0,0,0,113,60.4a2.34,2.34,0,0,0-1.53.42l-.09.06-.06.1c-.87,1.34-1.7,2.69-2.51,4,.2-.47.41-1,.61-1.44l0-.12a2,2,0,0,0-.65-1.81,1,1,0,0,0-1.09,0A19.55,19.55,0,0,0,102,68.38l.35.57A19.52,19.52,0,0,1,108.07,62.18Z"></path><path class="cls-5" d="M87,94a30.4,30.4,0,0,1-1.43-6.44,11,11,0,0,0-1.06-2.76c-.91-.68-1.82-1.36-2.91-1a3.14,3.14,0,0,0-1,2.91c.79,4.26.58,8.35.28,12.93s2,9.12,1.68,13.7c-1.19,9.58-6.2,17.45-9.8,26.09-3.33,7.14-7.07,13.69-10.4,20.82-3.07,5.64-6,10.78-9,16.61-2.71-1.33.41-1.33,0,0,2.93-5.83,5.9-11,9-16.61,3.33-7.13,7.07-13.68,10.4-20.82,3.6-8.64,8.61-16.51,9.8-26.09.3-4.58-2-9.11-1.68-13.7s.51-8.67-.28-12.93a3.14,3.14,0,0,1,1-2.91c1.09-.32,2,.36,2.91,1a11,11,0,0,1,1.06,2.76A30.4,30.4,0,0,0,87,94c.71-1.11,1.39-2.23,2.07-3.35-.08-.23-.16-.47-.25-.7-.53.88-1.07,1.76-1.62,2.63a25.17,25.17,0,0,1-1-5.06l0-.13A11.06,11.06,0,0,0,85,84.44l-.06-.08-.07-.06c-1-.72-2.06-1.53-3.43-1.12l-.1,0-.07.06a3.7,3.7,0,0,0-1.28,3.53c.75,4.08.58,8,.27,12.76a25.08,25.08,0,0,0,.85,7,23.91,23.91,0,0,1,.83,6.65c-.85,6.83-3.61,12.67-6.54,18.85-1.09,2.3-2.21,4.68-3.2,7.06-1.66,3.56-3.46,7-5.19,10.39s-3.55,6.85-5.2,10.4c-.93,1.7-1.84,3.36-2.75,5-2,3.54-3.83,6.9-5.69,10.56a1.68,1.68,0,0,0-.33-.16c-.6-.22-1.15-.07-1.33.36-.35.81.87,1.41,1.39,1.66l.52.27.27-.53c2-4.06,4.06-7.72,6.2-11.59.91-1.64,1.83-3.3,2.77-5,1.66-3.56,3.46-7,5.2-10.39s3.54-6.85,5.22-10.45c1-2.38,2.11-4.74,3.19-7,2.84-6,5.78-12.19,6.65-19.25a25.46,25.46,0,0,0-.85-7,23.64,23.64,0,0,1-.83-6.69c.31-4.82.49-8.85-.29-13.08v-.06a2.58,2.58,0,0,1,.73-2.2c.74-.16,1.43.33,2.21.91a12,12,0,0,1,.9,2.46,31.93,31.93,0,0,0,1.45,6.5l.37,1.24.69-1.09c.63-1,1.24-2,1.84-2.94-.08-.24-.17-.48-.26-.73C88.34,91.75,87.66,92.87,87,94Z"></path><path class="cls-5" d="M98.93,119.3c-2,2.73-2.65,6.23-3.78,9.64-3.49,10.6-5.25,21.94-7.86,32.79l.57.13c.88-3.64,1.68-7.41,2.45-11.05a205.17,205.17,0,0,1,5.41-21.69c.27-.83.52-1.68.76-2.51a21.68,21.68,0,0,1,2.9-6.93c.66-.78,1.35-1.57,2-2.33l.42-.47-.39-.46C100.59,117.38,99.74,118.34,98.93,119.3Z"></path><path class="cls-5" d="M106.45,95.39c1.9-3,3.43-6.24,5-9.44-.11-.2-.23-.4-.35-.6-.08.15-.16.3-.23.45.06-.17.12-.35.19-.53l-.07-.11-.32-.55c-1.21,3.33-2.47,6.63-3.89,9.9C106.69,94.85,106.54,95.22,106.45,95.39Z"></path><path class="cls-5" d="M112.26,61.74a1.11,1.11,0,0,1,.56-.18.52.52,0,0,1,.34.48,119.36,119.36,0,0,1-5.44,15.2c.1.15.2.3.29.46l.09.16a119.06,119.06,0,0,0,5.64-15.7,1.09,1.09,0,0,0-.82-1.18,1.77,1.77,0,0,0-1.09.32c-2.58,4-4.85,8-7.06,12.09l.33.63C107.33,69.92,109.65,65.77,112.26,61.74Z"></path><path class="cls-5" d="M98.93,119.3c.81-1,1.66-1.92,2.5-2.88-.12-.16-.25-.31-.38-.46l-.54.61c-.67.77-1.37,1.56-2.05,2.38a22.34,22.34,0,0,0-3.12,7.33c-.23.81-.48,1.65-.75,2.47a206.39,206.39,0,0,0-5.44,21.82c-.77,3.63-1.56,7.39-2.44,11l.58.14c2.61-10.85,4.37-22.19,7.86-32.79C96.28,125.53,96.9,122,98.93,119.3Z"></path><path class="cls-5" d="M106.29,109.79a27.51,27.51,0,0,1-4.07,5.72l.39.46a28.67,28.67,0,0,0,4.2-5.9c3.57-5.95,5.81-12,8.07-18.39l-.39-.65C112.21,97.45,109.92,103.74,106.29,109.79Z"></path><path class="cls-5" d="M108.51,88.8c0,.11.11.21.16.31l-.32.17h0c-.52,1.35-1.06,2.69-1.63,4a8,8,0,0,0-.8,1.86l1,.52c1.59-2.53,2.94-5.22,4.24-7.83l.66-1.31-.36-.61c-1.61,3.2-3.14,6.41-5,9.44.87-2.3.67-1.66.37-.88,1.42-3.27,2.68-6.57,3.89-9.9l-.39-.67C109.73,85.57,109.13,87.2,108.51,88.8Z"></path><path class="cls-5" d="M115.65,65.16l.37.07a3.35,3.35,0,0,1,.34,2c-1.53,3.92-2.9,7.82-4.22,11.6l-1.3,3.68.39.66c1.84-5.17,3.61-10.43,5.71-15.78a3.88,3.88,0,0,0-.56-2.68l-1-.18a70.19,70.19,0,0,0-7.12,13.62l.38.63A72.69,72.69,0,0,1,115.65,65.16Z"></path><path class="cls-5" d="M89.82,89.33l-.26-.72c-.26.44-.52.88-.79,1.32.09.23.17.47.25.7C89.29,90.2,89.56,89.77,89.82,89.33Z"></path><path class="cls-5" d="M101.68,92.29h0C101.76,92.12,103,89.13,101.68,92.29Z"></path><path class="cls-5" d="M98.2,85a1.54,1.54,0,0,0,.08.19q.48-.83.93-1.65c0-.09-.07-.17-.11-.26Z"></path><path class="cls-5" d="M105,85c.24-.54.48-1.09.73-1.63l-.2-.38-.15-.29-.75,1.66Z"></path><path class="cls-5" d="M110.71,84.61l.32.55.07.11c.17-.48.34-1,.52-1.45l-.39-.67C111.05,83.64,110.88,84.12,110.71,84.61Z"></path><path class="cls-5" d="M102,79.7c.3-.55.59-1.08.88-1.63l-.32-.63-.89,1.63Z"></path><path class="cls-5" d="M115.39,90.24l-.39-.65L114.49,91l.39.65.46-1.29A.88.88,0,0,0,115.39,90.24Z"></path><path class="cls-5" d="M91.87,85.85c.24-.39.48-.8.71-1.2L92.25,84l-.7,1.2Z"></path><path class="cls-5" d="M112.49,85.31l-.36-.61L111.49,86l.36.61Z"></path><path class="cls-5" d="M102.22,115.51l-.38-.46-.79.91c.13.15.26.3.38.46C101.7,116.12,102,115.81,102.22,115.51Z"></path><path class="cls-5" d="M101.68,92.29h0c.28-.48.55-1,.82-1.44l-.09-.2Z"></path><path class="cls-5" d="M101.43,116.42l.39.46c.26-.3.52-.61.79-.91l-.39-.46C102,115.81,101.7,116.12,101.43,116.42Z"></path><path class="cls-5" d="M101.68,70.16c.21-.4.43-.81.66-1.21l-.35-.57c-.23.39-.45.79-.66,1.19C101.45,69.76,101.56,70,101.68,70.16Z"></path><path class="cls-5" d="M101.69,79.07l.89-1.63-.2-.4-.88,1.69C101.56,78.84,101.62,79,101.69,79.07Z"></path><path class="cls-5" d="M93.59,82.91c-.08-.24-.17-.49-.26-.73-.22.38-.44.77-.66,1.14l-.12.2c.09.24.18.49.26.73Z"></path><path class="cls-5" d="M89.82,89.33c-.26.44-.53.87-.8,1.3.09.25.18.49.26.73.27-.43.53-.87.79-1.31Z"></path><path class="cls-5" d="M101.68,92.3l0,.08.45.23c.22-.36.4-.74.61-1.1l-.29-.65C102.23,91.34,102,91.82,101.68,92.3Z"></path><path class="cls-5" d="M99.21,83.56q-.45.82-.93,1.65l.3.67.93-1.65Z"></path><path class="cls-5" d="M101.5,78.73l.88-1.69c-.12-.21-.23-.43-.34-.65-.29.57-.58,1.14-.88,1.71l0,.06Z"></path><path class="cls-5" d="M101.68,92.29h0l.73-1.63-.33-.73-.3.67,0,0h0s-.15.37-.3.71c0,.09-.08.19-.12.29.12.23.24.44.36.66C103,89.13,101.76,92.12,101.68,92.29Z"></path><path class="cls-5" d="M107.72,77.24c-.18.45-.38.89-.57,1.33.13.21.25.42.37.63.2-.45.39-.89.58-1.34L108,77.7C107.92,77.54,107.82,77.39,107.72,77.24Z"></path><path class="cls-5" d="M99.1,83.3c-.1-.23-.2-.46-.31-.69l-.89,1.71c.1.23.19.46.3.7Z"></path><path class="cls-5" d="M104.09,74.64c.22-.42.45-.83.68-1.25l-.27-.51-.66,1.29Z"></path><path class="cls-5" d="M104.35,75.13l.05.07,0,0L105.1,74l-.33-.63c-.23.42-.46.83-.68,1.25Z"></path><path class="cls-5" d="M107.69,79.48l.57-1.35c-.05-.09-.1-.18-.16-.27-.19.45-.38.89-.58,1.34Z"></path><path class="cls-5" d="M108.67,89.11c0-.1-.11-.2-.16-.31l-.18.49h0Z"></path><path class="cls-5" d="M110.32,83.94l.39.67c.17-.49.34-1,.52-1.46l-.39-.66C110.67,83,110.49,83.45,110.32,83.94Z"></path><path class="cls-5" d="M108.07,80.12l.57-1.36-.38-.63-.57,1.35Z"></path><path class="cls-5" d="M105.89,83.77l-.72,1.64.36.63c.24-.53.47-1.07.7-1.6Z"></path><path class="cls-5" d="M96.67,77.69l-.91,1.54.28.67c.3-.5.6-1,.91-1.53C96.85,78.15,96.76,77.92,96.67,77.69Z"></path><path class="cls-5" d="M92.9,85.27c-.1-.21-.21-.41-.32-.62-.23.4-.47.81-.71,1.2l.33.63Z"></path><path class="cls-5" d="M93.69,83.92l.16-.28c-.09-.24-.17-.49-.26-.73l-.78,1.34c.09.24.18.48.26.73Z"></path><path class="cls-5" d="M105,85c.07.13.14.27.22.4l.72-1.64-.21-.39C105.43,83.92,105.19,84.47,105,85Z"></path><path class="cls-5" d="M114.23,90l-.14.39.4.65.51-1.44-.39-.66C114.48,89.28,114.35,89.64,114.23,90Z"></path><path class="cls-5" d="M111.49,86l.64-1.25-.07-.13-.28-.47c-.22.41-.43.83-.64,1.25C111.26,85.55,111.38,85.75,111.49,86Z"></path><path class="cls-5" d="M96.67,77.69c-.1-.22-.19-.45-.29-.68l-.91,1.54c.09.23.19.45.29.68Z"></path><path class="cls-5" d="M102.69,69.54c-.12-.19-.23-.39-.35-.59-.23.4-.45.81-.66,1.21l.34.6Z"></path><path class="cls-5" d="M100.33,74l0-.07.21-.39c-.11-.21-.21-.44-.32-.66-.14.26-.27.52-.41.77a7.21,7.21,0,0,1-.7.79l.29.55A10.06,10.06,0,0,0,100.33,74Z"></path><path class="cls-5" d="M104.15,72.23c-.21.44-.43.87-.65,1.3l.34.64.66-1.29-.12-.22Z"></path><path class="cls-5" d="M99.85,73.6c.14-.25.27-.51.41-.77-.11-.21-.21-.44-.32-.66-.19.37-.39.74-.59,1.11a6.37,6.37,0,0,1-.5.57l.3.54A7.21,7.21,0,0,0,99.85,73.6Z"></path><path class="cls-6" d="M96.58,88.14c0-.07,1.88-3.54,0,0Z"></path></g><path class="cls-5" d="M86.41,64.43s-12.06-2-10.92-3.67S86.41,64.43,86.41,64.43Z"></path><path class="cls-5" d="M90.72,53.06s-10.66-4.94-8.27-6.19S90.72,53.06,90.72,53.06Z"></path><path class="cls-5" d="M104.09,47.7s-.59-11.74-2.65-10S104.09,47.7,104.09,47.7Z"></path><path class="cls-5" d="M118.52,48.91s4-8.87,5.36-5.55S118.52,48.91,118.52,48.91Z"></path><path class="cls-5" d="M121.73,61.88s5.06-6.55,7.25-4.12S121.73,61.88,121.73,61.88Z"></path></svg> 