<?xml version="1.0" encoding="UTF-8"?> <svg xmlns="http://www.w3.org/2000/svg" width="84" height="85" viewBox="0 0 84 85" fill="none"><path d="M50.1809 8.84783L48.6048 8.62471L45.8217 2.75437L45.0683 8.13231L43.4922 7.90919L44.5993 0L46.1753 0.223119L48.9508 6.13963L49.7119 0.71552L51.288 0.938639L50.1809 8.84783Z" fill="white"></path><path d="M56.8537 4.90092C57.1151 5.27022 57.2535 5.67799 57.2458 6.12423L57.7071 4.90861L59.1909 5.47026L56.9767 11.3329L55.4929 10.7713L55.9542 9.54026C55.6544 9.87879 55.2853 10.1019 54.8471 10.2019C54.4089 10.3019 53.9399 10.2635 53.4479 10.0788C52.9558 9.89417 52.556 9.60181 52.2485 9.21712C51.941 8.82474 51.7642 8.36311 51.718 7.82455C51.6642 7.28599 51.7565 6.70895 51.9871 6.09345C52.2178 5.47795 52.533 4.98555 52.9251 4.61625C53.3172 4.24695 53.7554 4.01614 54.2474 3.92381C54.7318 3.83149 55.2238 3.87765 55.7159 4.06999C56.2079 4.25464 56.5923 4.53162 56.8537 4.90092ZM54.4012 5.57797C54.0014 5.77801 53.7093 6.13962 53.5094 6.66279C53.3095 7.19366 53.2941 7.66298 53.4633 8.06306C53.6324 8.47083 53.9476 8.76319 54.4166 8.94015C54.8702 9.10941 55.3007 9.09402 55.7082 8.90168C56.1157 8.70164 56.4155 8.34773 56.6154 7.83225C56.8153 7.30907 56.823 6.83975 56.6461 6.42429C56.4693 6.00882 56.1541 5.71646 55.7082 5.5395C55.2238 5.37024 54.7933 5.37793 54.4012 5.57797Z" fill="white"></path><path d="M61.5127 12.4488L60.8208 13.6259L60.0981 13.2027C59.4907 12.8488 59.114 12.4334 58.9679 11.9487C58.8142 11.4639 58.9449 10.8869 59.3446 10.2022L60.7131 7.86327L59.9597 7.42472L60.6362 6.26296L61.3897 6.70151L62.1739 5.36279L63.55 6.17064L62.7659 7.50935L63.9729 8.21718L63.2886 9.37894L62.0816 8.67111L60.6977 11.0331C60.544 11.2947 60.4902 11.5024 60.5363 11.6717C60.5824 11.8333 60.7208 11.9948 60.9745 12.1333L61.5127 12.4488Z" fill="white"></path><path d="M66.5793 10.0941L62.866 15.1412L61.582 14.1949L65.2954 9.14778L66.5793 10.0941ZM66.8023 7.24741C67.0406 7.22433 67.2866 7.30127 67.5173 7.47053C67.7556 7.64749 67.894 7.84753 67.9478 8.08604C67.9939 8.32454 67.9478 8.54766 67.794 8.75539C67.648 8.95543 67.4558 9.07084 67.2097 9.09392C66.9714 9.117 66.7254 9.04006 66.4948 8.8708C66.2641 8.70154 66.118 8.49381 66.0642 8.2553C66.0181 8.01679 66.0642 7.80137 66.2103 7.60133C66.3641 7.3859 66.5639 7.2705 66.8023 7.24741Z" fill="white"></path><path d="M71.269 14.726C71.4381 15.2492 71.4458 15.7801 71.3074 16.3263C71.169 16.8649 70.8615 17.3727 70.4079 17.842C69.9466 18.3113 69.4469 18.6191 68.9164 18.7653C68.3783 18.9114 67.8478 18.9114 67.3173 18.7576C66.7868 18.6037 66.3101 18.3113 65.8719 17.8805C65.4337 17.4496 65.1339 16.9726 64.9724 16.4494C64.811 15.9263 64.7956 15.3877 64.934 14.8491C65.0724 14.3106 65.3722 13.8028 65.8335 13.3412C66.2948 12.8718 66.7945 12.5641 67.3327 12.4102C67.8708 12.2563 68.4013 12.264 68.9318 12.4179C69.4546 12.5795 69.9389 12.8718 70.3772 13.295C70.8 13.7258 71.0999 14.2029 71.269 14.726ZM68.2629 13.8259C67.8247 13.8336 67.3942 14.049 66.979 14.4721C66.5639 14.8953 66.3563 15.3262 66.3563 15.7724C66.3563 16.2109 66.5177 16.5879 66.8329 16.9034C67.1482 17.2188 67.5249 17.365 67.9708 17.365C68.409 17.3573 68.8395 17.1419 69.2547 16.7187C69.6699 16.2956 69.8774 15.8647 69.8774 15.4185C69.8774 14.9799 69.716 14.6029 69.4008 14.2875C69.0779 13.9721 68.7012 13.8182 68.2629 13.8259Z" fill="white"></path><path d="M76.3967 22.0657C76.243 22.6889 75.8048 23.2352 75.0898 23.7122L72.0683 25.7356L71.1919 24.4277L74.0672 22.5043C74.4824 22.2273 74.7284 21.9041 74.813 21.5425C74.8976 21.1732 74.8207 20.8116 74.5747 20.4423C74.3209 20.0653 73.998 19.8499 73.606 19.7884C73.2139 19.7268 72.7833 19.8499 72.3297 20.1577L69.5697 22.0042L68.6855 20.6808L73.8904 17.1956L74.7745 18.5189L73.729 19.219C74.1749 19.119 74.5977 19.1652 75.0052 19.3498C75.4127 19.5345 75.7586 19.8345 76.0354 20.25C76.4275 20.8347 76.5505 21.4425 76.3967 22.0657Z" fill="white"></path><path d="M79.4949 27.967C79.4027 28.4055 79.1874 28.7825 78.8568 29.0826L80.0639 28.5979L80.6482 30.0674L74.8359 32.3909L74.2516 30.9214L75.4664 30.4367C75.0128 30.4444 74.6053 30.3213 74.2286 30.0674C73.8519 29.8135 73.5674 29.4365 73.3752 28.9441C73.183 28.4517 73.1215 27.967 73.206 27.4746C73.2906 26.9899 73.5136 26.5436 73.8749 26.1436C74.2363 25.7435 74.7283 25.4203 75.3357 25.1818C75.943 24.9356 76.5196 24.8356 77.0578 24.8818C77.596 24.9203 78.0649 25.0895 78.457 25.3896C78.8491 25.6896 79.149 26.082 79.3412 26.5744C79.5411 27.0591 79.5872 27.5207 79.4949 27.967ZM77.3423 26.6129C76.9271 26.4513 76.4581 26.4744 75.9353 26.6898C75.4125 26.8975 75.0512 27.2053 74.8667 27.6054C74.6822 28.0055 74.6822 28.4363 74.8667 28.8979C75.0435 29.3442 75.3433 29.6519 75.7662 29.8212C76.189 29.9904 76.6503 29.9751 77.1654 29.7673C77.6805 29.5596 78.0342 29.2518 78.2264 28.8364C78.4186 28.4209 78.4186 27.9978 78.2418 27.5438C78.0496 27.0822 77.7497 26.7668 77.3423 26.6129Z" fill="white"></path><path d="M83.5314 33.1987L75.3897 35.1067L75.0283 33.5526L83.1701 31.6445L83.5314 33.1987Z" fill="white"></path><path d="M77.7264 43.3621L77.6726 40.1615L76.0581 39.6229L76.0273 37.938L83.9615 40.7539L83.9922 42.5773L76.1504 45.6318L76.1196 43.9468L77.7264 43.3621ZM78.9258 42.9159L82.2778 41.6849L78.895 40.5616L78.9258 42.9159Z" fill="white"></path><path d="M80.6098 51.9714C80.0793 52.4176 79.4258 52.6254 78.657 52.6177L78.9876 50.9635C79.3259 50.9635 79.6103 50.8635 79.8487 50.6635C80.087 50.4634 80.2407 50.1865 80.3099 49.8248C80.3945 49.4094 80.3099 49.0324 80.0562 48.6939C79.8025 48.3553 79.3874 48.1245 78.7954 48.0091C78.2034 47.8937 77.7267 47.9399 77.3654 48.1553C77.004 48.3707 76.7811 48.6862 76.6965 49.1016C76.6273 49.4632 76.6581 49.7787 76.7965 50.0557C76.9349 50.3326 77.1655 50.5327 77.473 50.6635L77.1424 52.3176C76.4274 52.0407 75.9123 51.5867 75.5894 50.9789C75.2665 50.3634 75.182 49.6633 75.3434 48.8708C75.4664 48.2707 75.6971 47.7629 76.043 47.3475C76.389 46.932 76.8272 46.6396 77.35 46.4781C77.8728 46.3165 78.4571 46.2934 79.1029 46.4242C79.7487 46.555 80.2792 46.7935 80.702 47.1474C81.1249 47.5013 81.417 47.9399 81.5785 48.4554C81.7399 48.9708 81.7553 49.5325 81.64 50.1249C81.4862 50.9097 81.1403 51.5329 80.6098 51.9714Z" fill="white"></path><path d="M78.6188 58.4188C78.2421 58.665 77.8269 58.7804 77.381 58.765L78.5804 59.2728L77.9653 60.7269L72.1992 58.2803L72.8143 56.8262L74.0213 57.3416C73.6984 57.0339 73.4908 56.6492 73.4063 56.2107C73.3217 55.7644 73.3832 55.3028 73.5908 54.8104C73.7984 54.3257 74.0982 53.941 74.498 53.6486C74.8978 53.3563 75.3667 53.2024 75.9126 53.1716C76.4508 53.1408 77.0274 53.2562 77.627 53.5101C78.2267 53.764 78.7111 54.1026 79.0647 54.5103C79.4184 54.9181 79.6336 55.3643 79.7028 55.8567C79.772 56.3491 79.7028 56.8339 79.5029 57.3186C79.2877 57.7956 78.9955 58.1649 78.6188 58.4188ZM78.0422 55.9337C77.8654 55.5259 77.5117 55.2182 76.9889 54.995C76.4661 54.7719 76.0048 54.7411 75.5897 54.895C75.1745 55.0489 74.8747 55.349 74.6825 55.8106C74.498 56.2568 74.4903 56.6877 74.6671 57.1031C74.8439 57.5186 75.1899 57.834 75.6973 58.0495C76.2124 58.2649 76.6814 58.2957 77.1043 58.1341C77.5271 57.9725 77.8346 57.6725 78.0191 57.2262C78.2113 56.7723 78.219 56.3338 78.0422 55.9337Z" fill="white"></path><path d="M74.3676 65.751C73.9525 65.9126 73.5219 65.9434 73.0837 65.8356L75.8668 67.7976L74.9519 69.0901L68.1172 64.2661L69.0321 62.9736L70.1007 63.7275C69.8547 63.3506 69.7317 62.9351 69.7394 62.4812C69.7471 62.0272 69.9008 61.5887 70.2084 61.1578C70.5159 60.727 70.8926 60.4115 71.3462 60.2115C71.7998 60.0115 72.2918 59.9576 72.8223 60.0422C73.3528 60.1269 73.891 60.3577 74.4291 60.7347C74.9673 61.1117 75.3594 61.5425 75.6208 62.0118C75.8822 62.4889 75.9975 62.9659 75.9591 63.466C75.9283 63.9584 75.7592 64.42 75.4517 64.8508C75.1518 65.2971 74.7905 65.5894 74.3676 65.751ZM74.3215 63.2121C74.2293 62.7812 73.9525 62.3965 73.4912 62.0734C73.0299 61.7502 72.584 61.6118 72.1458 61.681C71.7075 61.7426 71.3462 61.9811 71.0617 62.3811C70.785 62.7735 70.6927 63.1967 70.7773 63.6429C70.8618 64.0892 71.1309 64.4661 71.5845 64.7893C72.0381 65.1124 72.4917 65.2355 72.9376 65.174C73.3836 65.1047 73.7449 64.8739 74.0294 64.4815C74.3138 64.0584 74.4138 63.6429 74.3215 63.2121Z" fill="white"></path><path d="M65.0721 71.1136L68.4164 67.9668C68.0166 67.5744 67.6245 67.3821 67.2401 67.3744C66.8557 67.3744 66.5097 67.5129 66.2099 67.7976C65.9408 68.0515 65.7794 68.3284 65.7256 68.6285C65.6717 68.9285 65.7256 69.2132 65.887 69.4825L64.6569 70.6366C64.4186 70.2596 64.2802 69.8518 64.2417 69.4133C64.2033 68.9747 64.2725 68.5362 64.4493 68.1053C64.6261 67.6745 64.9029 67.2744 65.2796 66.9205C65.7256 66.505 66.2099 66.228 66.7327 66.0895C67.2555 65.9511 67.7783 65.9741 68.3011 66.1434C68.8239 66.3127 69.3082 66.6358 69.7541 67.1205C70.2 67.5975 70.4999 68.1053 70.6383 68.6439C70.7767 69.1824 70.7613 69.7056 70.5921 70.2134C70.423 70.7289 70.1155 71.1905 69.6696 71.606C69.216 72.0291 68.7393 72.3061 68.2242 72.4369C67.7091 72.5677 67.2094 72.5523 66.7173 72.3984C66.2253 72.2446 65.7871 71.9599 65.395 71.5444C65.295 71.4367 65.1797 71.2905 65.0721 71.1136ZM67.7706 71.1367C68.1627 71.129 68.5087 70.9828 68.8162 70.6904C69.1314 70.3981 69.3005 70.0518 69.339 69.6595C69.3697 69.2671 69.2237 68.8747 68.8931 68.4746L66.6789 70.5596C67.0172 70.952 67.3785 71.1443 67.7706 71.1367Z" fill="white"></path><path d="M56.7765 79.3074C56.1691 79.0997 55.654 78.615 55.2466 77.8533L53.5244 74.645L54.916 73.8987L56.5535 76.9454C56.7842 77.3686 57.0686 77.6378 57.4069 77.7532C57.7452 77.8687 58.1065 77.8225 58.4833 77.6148C58.8754 77.407 59.1214 77.1147 59.2213 76.7454C59.3213 76.3761 59.2444 75.9529 58.9907 75.4836L57.4146 72.5523L58.8062 71.806L60.4437 74.8527C60.6744 75.2759 60.9588 75.5451 61.2971 75.6605C61.6354 75.776 61.9967 75.7298 62.3735 75.5221C62.7655 75.3143 63.0116 75.022 63.1115 74.6527C63.2115 74.2834 63.1346 73.8602 62.8809 73.3909L61.3048 70.4596L62.7117 69.7056L65.6717 75.222L64.2647 75.976L63.7035 74.9296C63.7496 75.3682 63.6651 75.7683 63.4575 76.1299C63.2499 76.4915 62.9347 76.7915 62.5118 77.0146C62.0659 77.2532 61.62 77.3532 61.1818 77.3224C60.7359 77.2839 60.3284 77.1147 59.9517 76.8069C59.9824 77.2762 59.8902 77.7148 59.6672 78.1225C59.4443 78.5303 59.1214 78.8458 58.6985 79.0766C58.0297 79.4382 57.3915 79.5151 56.7765 79.3074Z" fill="white"></path><path d="M52.9255 81.0154L50.2885 77.2686L49.7273 81.7694L48.0205 82.1695L49.6273 72.283L51.3418 71.8752L50.696 75.2836L54.6554 80.6L52.9255 81.0154Z" fill="white"></path><path d="M39.14 82.0925C38.6633 81.8232 38.2943 81.4385 38.0252 80.9461C37.7638 80.4537 37.6408 79.8767 37.6639 79.2227C37.6869 78.5688 37.8407 77.9994 38.1328 77.5301C38.425 77.0531 38.8171 76.6992 39.3168 76.453C39.8089 76.2068 40.3624 76.0914 40.9698 76.1145C41.5771 76.1298 42.123 76.2837 42.5996 76.553C43.0763 76.83 43.4453 77.2147 43.7144 77.6994C43.9758 78.1918 44.0988 78.7611 44.0758 79.4228C44.0527 80.0768 43.8989 80.6461 43.6068 81.1231C43.3146 81.6001 42.9226 81.9617 42.4228 82.2002C41.9308 82.4387 41.3772 82.5541 40.7699 82.5311C40.1625 82.508 39.6167 82.3618 39.14 82.0925ZM41.9538 80.7153C42.2691 80.4153 42.4382 79.9613 42.4613 79.3689C42.4766 78.7765 42.3383 78.3149 42.0384 77.9917C41.7386 77.6686 41.3695 77.4993 40.9236 77.484C40.4777 77.4686 40.101 77.6147 39.7781 77.9148C39.4629 78.2149 39.2938 78.6688 39.2707 79.2612C39.2553 79.8536 39.3937 80.3153 39.6935 80.6384C39.9934 80.9615 40.3624 81.1308 40.8083 81.1462C41.2542 81.1616 41.6386 81.0231 41.9538 80.7153Z" fill="white"></path><path d="M33.5361 82.4773C33.7514 82.3465 33.8975 82.0849 33.9743 81.6771V81.6694L32.7289 81.4309L32.9826 80.1076L34.2281 80.3461L35.1429 75.5144L36.7113 75.8145L35.7964 80.6461L36.5883 80.7923L36.3346 82.1157L35.5427 81.9695L35.512 82.1157C35.3736 82.8466 35.0584 83.3774 34.5663 83.6929C34.0743 84.0083 33.4131 84.093 32.5905 83.9314C32.4521 83.9083 32.3445 83.8775 32.2676 83.8621L32.5213 82.508C32.9826 82.6158 33.3209 82.6081 33.5361 82.4773Z" fill="white"></path><path d="M25.8319 73.4063C26.1548 73.1678 26.5392 73.037 26.9851 73.0062C27.431 72.9755 27.923 73.0678 28.4458 73.2986C28.9686 73.5217 29.3915 73.8064 29.722 74.1603C30.0526 74.5142 30.2756 74.9066 30.3755 75.3451C30.4755 75.7837 30.4524 76.2299 30.2987 76.6915L28.738 76.0222C28.8302 75.7067 28.8148 75.4067 28.6995 75.122C28.5765 74.8373 28.3536 74.6219 28.0153 74.4757C27.7078 74.3449 27.4387 74.3219 27.208 74.4219C26.9774 74.5142 26.8006 74.6912 26.6929 74.9451C26.593 75.1759 26.5776 75.3913 26.6468 75.599C26.716 75.8068 26.8313 75.9991 26.9928 76.1684C27.1542 76.3453 27.3849 76.5684 27.6924 76.8377C28.0845 77.1839 28.392 77.4994 28.6226 77.7687C28.8533 78.0456 29.007 78.3688 29.0839 78.7381C29.1685 79.1074 29.107 79.5228 28.9148 79.9845C28.6457 80.6154 28.2075 81.0154 27.5924 81.1847C26.9851 81.354 26.3008 81.277 25.5551 80.9539C24.7786 80.6231 24.2404 80.1691 23.9406 79.5921C23.6407 79.0228 23.5946 78.4073 23.8022 77.761L25.3783 78.438C25.3091 78.7227 25.3244 78.9843 25.4321 79.2305C25.5397 79.4767 25.7473 79.669 26.0625 79.7998C26.3316 79.9152 26.5776 79.9383 26.8082 79.8691C27.0389 79.7998 27.208 79.6306 27.3233 79.3613C27.4156 79.1459 27.431 78.9381 27.3618 78.7458C27.2926 78.5457 27.185 78.3611 27.0235 78.1841C26.8621 78.0072 26.6391 77.7917 26.347 77.5379C25.9472 77.1686 25.632 76.8454 25.4013 76.5761C25.1707 76.3069 25.0092 75.976 24.9323 75.599C24.8555 75.222 24.9093 74.7912 25.1092 74.3219C25.2706 73.9449 25.5089 73.6448 25.8319 73.4063Z" fill="white"></path><path d="M17.6132 73.9064C17.4133 73.4524 17.3518 72.96 17.4363 72.4292C17.5209 71.8906 17.7438 71.3597 18.1206 70.8135C18.4973 70.2672 18.9124 69.8748 19.3891 69.6056C19.8581 69.344 20.3424 69.2209 20.8345 69.2516C21.3265 69.2824 21.7878 69.444 22.226 69.744C22.6566 70.0441 22.9564 70.4057 23.1255 70.8212C23.287 71.2443 23.3177 71.6675 23.2024 72.106L25.6473 68.5669L26.9619 69.4748L21.7032 77.0839L20.3886 76.176L21.1266 75.1066C20.7576 75.3605 20.3501 75.4913 19.8965 75.4836C19.4506 75.4759 19.0047 75.322 18.5742 75.022C18.1359 74.7296 17.8207 74.3603 17.6132 73.9064ZM21.0267 74.4449C21.4726 74.3526 21.8493 74.0756 22.1645 73.6217C22.4797 73.1678 22.5951 72.7215 22.5259 72.2676C22.4567 71.8214 22.2183 71.4598 21.8262 71.1828C21.4188 70.8981 20.9959 70.8058 20.5654 70.8981C20.1349 70.9904 19.7581 71.2674 19.4352 71.7367C19.1123 72.1984 18.9816 72.6523 19.0508 73.0908C19.1123 73.5294 19.3507 73.891 19.7581 74.1756C20.1656 74.4449 20.5885 74.5373 21.0267 74.4449Z" fill="white"></path><path d="M11.9163 68.5284C11.7702 67.9976 11.7702 67.4667 11.9317 66.9281C12.0931 66.3896 12.4083 65.8972 12.885 65.4432C13.3617 64.9893 13.8691 64.697 14.4073 64.5662C14.9454 64.4354 15.4836 64.4584 16.0064 64.6277C16.5292 64.8047 16.9982 65.1124 17.421 65.551C17.8439 65.9972 18.1283 66.4819 18.2744 67.0128C18.4205 67.5436 18.4128 68.0745 18.259 68.6131C18.1052 69.1439 17.7823 69.644 17.3134 70.0903C16.8367 70.5442 16.3293 70.8366 15.7834 70.9674C15.2376 71.0982 14.7071 71.0828 14.1843 70.9058C13.6615 70.7289 13.1925 70.4211 12.7697 69.9749C12.3468 69.544 12.0624 69.0516 11.9163 68.5284ZM14.8916 69.5286C15.3298 69.5363 15.7681 69.3363 16.1986 68.9285C16.6291 68.5208 16.8521 68.0899 16.8675 67.6514C16.8828 67.2128 16.7368 66.8281 16.4292 66.505C16.1217 66.1819 15.7527 66.0203 15.3068 66.0126C14.8685 66.0049 14.4303 66.2049 13.9998 66.6127C13.5692 67.0205 13.3463 67.4513 13.3309 67.8899C13.3155 68.3284 13.4616 68.7131 13.7691 69.0362C14.0767 69.3517 14.4534 69.5209 14.8916 69.5286Z" fill="white"></path><path d="M8.35675 63.8428C7.94928 63.6505 7.61869 63.3658 7.34961 62.9657L8.76423 62.004L9.02562 62.3887C9.67911 63.3581 10.4556 63.5351 11.3551 62.9272L13.8538 61.2346L14.7456 62.5579L9.56379 66.074L8.67197 64.7507L9.66374 64.0813C9.19476 64.1121 8.75654 64.0351 8.35675 63.8428Z" fill="white"></path><path d="M9.58722 56.4646L10.8096 55.8491L11.1864 56.5954C11.5016 57.2186 11.5938 57.7803 11.4554 58.265C11.3247 58.7497 10.9019 59.1728 10.1946 59.5267L7.77282 60.75L8.16491 61.5271L6.96556 62.1349L6.57347 61.3579L5.18961 62.058L4.47461 60.6346L5.85847 59.9345L5.22805 58.6804L6.4274 58.0726L7.05782 59.3267L9.49496 58.0957C9.76405 57.9572 9.9255 57.811 9.97931 57.6495C10.0331 57.4879 9.99469 57.2802 9.86399 57.0263L9.58722 56.4646Z" fill="white"></path><path d="M3.7135 53.087C3.93646 52.533 4.32855 52.0945 4.90516 51.7867L5.37414 53.2024C5.10505 53.3562 4.92054 53.5563 4.8129 53.8179C4.70527 54.0718 4.70527 54.3641 4.8129 54.6873C4.89747 54.9412 5.02817 55.1258 5.19731 55.2258C5.36645 55.3258 5.55096 55.3489 5.75854 55.2797C5.92 55.2258 6.03532 55.1258 6.09682 54.9796C6.15833 54.8334 6.18908 54.6642 6.18908 54.4718C6.18908 54.2795 6.1737 54.0102 6.15064 53.664C6.10451 53.1793 6.08913 52.7792 6.10451 52.4561C6.11989 52.1329 6.21983 51.8329 6.38897 51.5482C6.55811 51.2635 6.85026 51.0558 7.25773 50.9173C7.76515 50.748 8.24181 50.8096 8.68772 51.102C9.13363 51.3943 9.47191 51.879 9.68718 52.5484C9.94089 53.3178 9.97164 53.9948 9.77944 54.5795C9.58723 55.1566 9.18745 55.6105 8.5724 55.9183L8.09574 54.4718C8.3802 54.341 8.56471 54.1333 8.65697 53.8563C8.74923 53.5794 8.74154 53.2639 8.61853 52.9023C8.53396 52.6484 8.40326 52.4715 8.23412 52.3714C8.06498 52.2791 7.88047 52.2637 7.68058 52.333C7.51144 52.3868 7.38843 52.4945 7.31924 52.6484C7.25004 52.8023 7.21929 52.9792 7.21929 53.1716C7.21929 53.3639 7.23467 53.6409 7.26542 53.9871C7.31155 54.4641 7.32692 54.8565 7.31924 55.1643C7.30386 55.472 7.21929 55.7644 7.05784 56.0414C6.89639 56.3106 6.61193 56.5184 6.21214 56.6492C5.69704 56.8184 5.21269 56.7646 4.75909 56.4722C4.30549 56.1875 3.96721 55.6951 3.73657 55.0027C3.50592 54.2872 3.49823 53.6486 3.7135 53.087Z" fill="white"></path><path d="M0 38.9536L7.88803 38.7458L7.92647 40.3308L2.42176 40.4769L7.98028 42.3542L8.01872 43.7314L2.5909 45.901L8.07254 45.7549L8.11867 47.3475L0.230644 47.5629L0.176827 45.6241L6.04287 43.0697L0.0461288 40.877L0 38.9536Z" fill="white"></path><path d="M6.59628 31.4521L5.64295 35.9453C6.19649 36.0376 6.62703 35.9761 6.94224 35.7607C7.25746 35.5452 7.45735 35.2298 7.54192 34.822C7.6188 34.4604 7.59573 34.145 7.46504 33.8603C7.34203 33.5833 7.13445 33.3756 6.8423 33.2448L7.18826 31.5983C7.59573 31.7676 7.9417 32.0215 8.22616 32.36C8.51062 32.6985 8.70283 33.0986 8.80277 33.5525C8.90272 34.0065 8.90272 34.4912 8.79508 34.999C8.67207 35.5991 8.42605 36.0992 8.0724 36.5146C7.71874 36.9224 7.28052 37.2071 6.75004 37.3687C6.22725 37.5302 5.64295 37.5379 4.99715 37.3994C4.35903 37.2609 3.82855 37.0147 3.4057 36.6531C2.98285 36.2915 2.69839 35.853 2.54463 35.3375C2.39087 34.822 2.38318 34.2604 2.50619 33.6679C2.63689 33.0601 2.87522 32.56 3.22119 32.16C3.56715 31.7599 3.99 31.4829 4.47435 31.329C4.96639 31.1752 5.48919 31.1598 6.05042 31.2752C6.23493 31.3137 6.40407 31.3675 6.59628 31.4521ZM4.36672 32.9678C4.0515 33.1986 3.84393 33.5218 3.75936 33.9295C3.6671 34.3527 3.72092 34.7297 3.92081 35.0759C4.1207 35.4221 4.46666 35.6606 4.9587 35.7914L5.58913 32.8139C5.09709 32.6908 4.68962 32.7447 4.36672 32.9678Z" fill="white"></path><path d="M5.67388 25.3742C6.0506 25.1357 6.46576 25.0203 6.91936 25.0356L3.80566 23.6662L4.44378 22.2197L12.1012 25.5896L11.463 27.036L10.2637 26.5052C10.5866 26.8283 10.7865 27.213 10.8634 27.6515C10.9479 28.0978 10.8787 28.5594 10.6635 29.0441C10.4482 29.5288 10.1407 29.9135 9.7409 30.1905C9.33343 30.4751 8.86446 30.629 8.32629 30.6521C7.78812 30.6752 7.2192 30.5521 6.61183 30.2905C6.00447 30.0289 5.53549 29.6904 5.18953 29.2749C4.84356 28.8594 4.63598 28.4132 4.56679 27.9208C4.50528 27.4284 4.57448 26.9437 4.78975 26.459C4.99732 25.982 5.29716 25.6204 5.67388 25.3742ZM6.21974 27.8593C6.39657 28.267 6.74253 28.5825 7.25764 28.8133C7.77274 29.0441 8.24172 29.0826 8.65688 28.9364C9.07204 28.7902 9.37956 28.4901 9.57945 28.0285C9.77166 27.59 9.78703 27.1591 9.61021 26.736C9.43338 26.3205 9.0951 25.9974 8.59537 25.7742C8.08796 25.5511 7.61898 25.5127 7.18844 25.6665C6.7656 25.8204 6.45038 26.1205 6.25818 26.559C6.05829 27.0206 6.04291 27.4592 6.21974 27.8593Z" fill="white"></path><path d="M5.49723 19.927C5.45879 19.6885 5.51261 19.4423 5.67406 19.1961C5.82782 18.9499 6.02771 18.7883 6.25835 18.7268C6.489 18.6575 6.71964 18.696 6.93491 18.8345C7.14249 18.9653 7.27319 19.1499 7.31163 19.3961C7.35007 19.6346 7.29625 19.8808 7.1348 20.127C6.97335 20.3732 6.78115 20.5348 6.5505 20.5963C6.31986 20.6656 6.0969 20.6271 5.88164 20.4963C5.66637 20.3578 5.53567 20.1655 5.49723 19.927ZM8.34953 19.9501L13.6467 23.2892L12.7933 24.6356L7.49614 21.2965L8.34953 19.9501Z" fill="white"></path><path d="M13.0083 14.8952C13.6925 14.7644 14.3614 14.8952 15.0225 15.2722L13.9385 16.5571C13.6387 16.3955 13.3388 16.3417 13.039 16.4032C12.7392 16.4648 12.4701 16.634 12.2318 16.9187C11.9627 17.2418 11.855 17.6111 11.9089 18.0266C11.9627 18.4421 12.2241 18.8498 12.6854 19.2345C13.1466 19.6269 13.5849 19.8116 14.0077 19.7962C14.4306 19.7808 14.7765 19.6115 15.0456 19.2884C15.2839 19.0037 15.407 18.7113 15.4146 18.4036C15.4223 18.0958 15.3224 17.8112 15.1148 17.5419L16.1988 16.257C16.6832 16.8495 16.9215 17.488 16.9138 18.1805C16.8985 18.8729 16.6294 19.5269 16.1143 20.1424C15.7222 20.6117 15.2686 20.9425 14.7688 21.1349C14.2614 21.3272 13.7386 21.3734 13.2005 21.2657C12.6623 21.158 12.1395 20.8887 11.6398 20.4655C11.14 20.0424 10.7864 19.573 10.5865 19.0576C10.3866 18.5421 10.3405 18.0189 10.4481 17.4957C10.5557 16.9649 10.8095 16.4725 11.2015 16.0031C11.7243 15.3953 12.324 15.0183 13.0083 14.8952Z" fill="white"></path><path d="M12.9858 10.7483C13.0088 10.5098 13.1318 10.2867 13.3548 10.0944C13.5777 9.90202 13.8007 9.802 14.0467 9.802C14.2927 9.802 14.4926 9.89433 14.6695 10.0867C14.8386 10.2713 14.9078 10.4867 14.877 10.7253C14.854 10.9638 14.731 11.1869 14.508 11.3792C14.2927 11.5793 14.0621 11.6716 13.8161 11.6716C13.5701 11.6716 13.3702 11.5793 13.201 11.3946C13.0319 11.2023 12.9627 10.9868 12.9858 10.7483ZM15.7304 11.5485L19.9128 16.2109L18.7288 17.2726L14.5464 12.6102L15.7304 11.5485Z" fill="white"></path><path d="M22.1727 7.64788C22.7955 7.80945 23.3413 8.2403 23.818 8.96351L25.8246 12.0025L24.5022 12.8796L22.5956 9.99448C22.3188 9.57901 22.0036 9.32512 21.6346 9.24049C21.2655 9.15586 20.9042 9.23279 20.5275 9.47899C20.1508 9.72519 19.9278 10.0483 19.8663 10.4484C19.8048 10.8485 19.9201 11.2716 20.2276 11.7256L22.0651 14.4953L20.7351 15.3724L17.2754 10.1484L18.6054 9.27126L19.2974 10.3176C19.2051 9.87138 19.2512 9.44822 19.4358 9.04045C19.6203 8.63268 19.9201 8.29415 20.3353 8.01718C20.9349 7.60941 21.55 7.48631 22.1727 7.64788Z" fill="white"></path><path d="M31.0985 6.73982L26.8393 8.45553C27.0699 8.96332 27.3621 9.28645 27.7157 9.43264C28.0694 9.57112 28.4461 9.56343 28.8305 9.40956C29.1765 9.27107 29.4225 9.07103 29.5839 8.81713C29.7454 8.55555 29.7992 8.27088 29.7454 7.96313L31.3061 7.33224C31.3906 7.77078 31.3753 8.20163 31.2523 8.62479C31.1293 9.04795 30.9063 9.43264 30.5834 9.77116C30.2605 10.1097 29.8607 10.379 29.3764 10.5713C28.8074 10.8021 28.2616 10.8791 27.7234 10.8175C27.1852 10.756 26.7086 10.5482 26.278 10.202C25.8552 9.85579 25.5169 9.37109 25.2709 8.76328C25.0249 8.15547 24.9326 7.57844 25.0018 7.02449C25.0633 6.47823 25.2709 5.99352 25.6169 5.57806C25.9628 5.1626 26.4164 4.83946 26.9853 4.61634C27.562 4.38553 28.1078 4.30089 28.6306 4.37014C29.1534 4.43169 29.6224 4.63173 30.0222 4.94717C30.4219 5.27031 30.7295 5.69347 30.9447 6.22434C31.0062 6.36282 31.0524 6.53209 31.0985 6.73982ZM28.5922 5.73193C28.2231 5.59345 27.8464 5.60883 27.4543 5.76271C27.0545 5.92428 26.7701 6.17817 26.5933 6.53209C26.4164 6.886 26.4164 7.30916 26.5779 7.79386L29.3994 6.65519C29.2303 6.17817 28.9612 5.87042 28.5922 5.73193Z" fill="white"></path><g clip-path="url(#clip0_164_79)"><path d="M24.2017 53.5991C23.8761 53.5991 23.5505 53.5751 23.2297 53.6039C22.2961 53.6853 21.1853 52.5793 21.4582 51.5834C21.4773 51.5163 21.4773 51.4206 21.4438 51.3583C21.2427 50.9561 20.9698 50.5779 20.8358 50.1565C20.582 49.3522 20.4431 48.5095 20.199 47.7051C19.8877 46.6757 19.5095 45.6654 19.1743 44.6408C18.7961 43.4821 19.2892 42.5389 20.4384 42.1798C22.5498 41.5191 24.6613 40.8583 26.7776 40.2072C27.7735 39.9008 28.779 39.6135 29.7796 39.307C29.8993 39.2687 30.0095 39.1969 30.1196 39.1395C30.1052 39.1012 30.0956 39.0629 30.0813 39.0246C29.8036 39.0581 29.5259 39.0868 29.2482 39.1203C30.6941 38.0143 32.4896 37.8515 34.151 37.2339C34.2229 37.3727 34.2803 37.4876 34.3186 37.569C34.0601 37.6791 33.8207 37.7797 33.5813 37.885C33.6052 37.9521 33.6244 38.0191 33.6483 38.0861C34.5484 37.8371 35.4486 37.5882 36.3822 37.3296C36.4062 37.6121 36.4253 37.8611 36.4445 38.1101C36.4062 37.2674 37.0047 37.0807 37.6319 36.9274C38.2304 36.7838 38.8337 36.6593 39.4274 36.4917C39.6572 36.4295 39.8487 36.2236 40.0737 36.1805C41.3426 35.9555 42.4821 35.2852 43.7605 35.1128C44.0142 35.0793 44.2871 35.2229 44.5553 35.2852C44.517 35.2133 44.4595 35.0936 44.3781 34.9356C44.5744 34.8399 44.7516 34.7154 44.9527 34.6579C45.5847 34.4712 46.2215 34.2845 46.8678 34.1504C47.1455 34.093 47.452 34.1839 47.7488 34.2079C47.7057 34.1313 47.6579 34.0403 47.5813 33.9062C48.3042 33.8344 48.8979 33.2647 49.4725 33.437C49.6305 33.2551 49.7454 33.1162 49.8603 32.9774C49.9369 33.0444 50.0135 33.1067 50.0901 33.1737C50.1093 33.3077 50.1284 33.437 50.1524 33.595C50.6647 33.753 51.1818 33.9158 51.7037 34.0738C51.7276 34.0116 51.7516 33.9445 51.7707 33.8823C51.5313 33.7913 51.2967 33.6908 51.0573 33.619C50.794 33.5376 50.4684 33.5567 50.5211 33.054C51.1243 32.8529 51.7755 32.6231 52.4362 32.422C53.9588 31.9575 55.4862 31.4979 57.0183 31.0574C57.2146 31 57.4444 31.0478 57.679 31.0478C57.77 30.9808 57.8993 30.8084 58.0669 30.7558C58.7707 30.5259 59.4937 30.3488 60.2023 30.119C61.0881 29.8365 61.8589 29.937 62.4766 30.6839C62.5197 30.7366 62.5819 30.7845 62.6346 30.8324C62.6777 30.7989 62.7208 30.7653 62.7686 30.727C62.6058 30.5212 62.4718 30.2674 62.2707 30.1142C61.5956 29.6019 60.8391 29.5923 60.0587 29.8508C59.3692 30.0759 58.6749 30.2961 57.9711 30.4924C57.8083 30.5355 57.6168 30.4733 57.5163 30.4685C57.3152 30.5882 57.1715 30.7175 56.9992 30.7701C55.6825 31.1819 54.3658 31.5745 53.0491 31.9719C51.6941 32.3837 50.3439 32.805 48.9889 33.2024C48.2228 33.4274 47.4424 33.6142 46.6715 33.8296C46.5518 33.8631 46.4465 33.9445 46.3124 34.0164C46.164 33.7387 46.2263 33.5807 46.4944 33.5041C47.859 33.1019 49.2139 32.647 50.6025 32.3262C51.0142 32.2305 51.3015 32.0054 51.6606 31.9001C51.4882 31.6368 51.3302 31.3926 51.177 31.1532H51.1674C51.4786 31.3974 51.7947 31.6368 52.1059 31.8809C52.1394 31.8522 52.1681 31.8187 52.2016 31.79C52.0388 31.6128 51.8952 31.4165 51.7133 31.2633C50.3343 30.1381 48.8405 29.2093 47.1264 28.673C45.1969 28.0649 43.2386 27.7872 41.2037 27.95C40.8159 27.9788 40.4233 27.9213 40.0259 28.132C39.954 27.9692 39.8966 27.8351 39.82 27.658C40.1791 27.6053 40.4999 27.5526 40.8207 27.5191C40.8973 27.5095 40.9787 27.5718 41.0553 27.5814C41.1893 27.6005 41.333 27.6436 41.4622 27.6149C41.7064 27.5622 41.9363 27.4042 42.1757 27.3946C43.7557 27.3372 45.3166 27.5431 46.8104 28.0314C48.8644 28.7065 50.7988 29.6402 52.374 31.1723C52.7379 31.5266 53.0539 31.5362 53.5279 31.3782C54.2987 31.1197 55.1127 31 55.9027 30.7941C56.2044 30.7175 56.4868 30.5595 56.7837 30.4493C57.2098 30.2913 57.6407 30.1429 58.0717 29.9897C57.8227 29.6737 57.5881 29.3864 57.3582 29.0943C57.4157 29.0465 57.4684 29.0034 57.5258 28.9555C57.7987 29.2763 58.0764 29.5971 58.3494 29.9179C58.3685 29.9083 58.3924 29.8939 58.4116 29.8844C58.3781 29.7934 58.3685 29.6881 58.3158 29.6162C57.8179 28.9842 57.387 28.2756 56.7933 27.7441C55.692 26.7578 54.5381 25.8146 53.3316 24.9671C52.4506 24.3447 51.4499 23.8946 50.5019 23.3727C50.3535 23.2914 50.2003 23.2291 50.047 23.1621C50.0997 23.1142 50.1572 23.0711 50.2098 23.0232C50.1141 23.052 50.004 23.1286 49.9226 23.1046C48.5436 22.7072 47.1647 22.2859 45.781 21.8933C45.4554 21.8023 45.0867 21.8598 44.7707 21.7592C43.8993 21.4863 43.0088 21.7401 42.1469 21.5964C41.6442 21.515 41.1845 21.6682 40.701 21.6539C40.2078 21.6395 39.7099 21.7065 39.2167 21.7544C37.9144 21.8837 36.6791 22.305 35.4294 22.6641C35.0225 22.7838 34.6586 23.052 34.2564 23.1908C33.3467 23.5068 32.5567 24.0383 31.7188 24.4979C31.0532 24.8618 30.45 25.3167 29.8706 25.7859C29.5594 26.0396 29.2769 26.1833 28.8843 26.0348C28.7981 26.0013 28.6928 26.0157 28.5779 26.0827C28.7646 26.1402 28.9513 26.1976 29.1476 26.2599C27.0745 28.2229 25.2167 30.3009 24.0102 32.8673C22.8132 35.4097 21.9944 38.0526 21.9609 40.8823C22.028 40.8919 22.0902 40.9062 22.1572 40.9158C22.1764 40.6381 22.1907 40.3556 22.2147 40.0779C22.2434 39.7906 22.2817 39.4986 22.32 39.1873C22.569 39.3693 22.5594 39.3693 22.502 39.8625C22.4732 40.121 22.4732 40.3843 22.4589 40.7099C23.1723 40.5519 23.8282 40.4035 24.5895 40.2359C24.8959 40.1114 25.3125 39.9151 25.7482 39.7619C26.2749 39.58 26.8207 39.4507 27.3474 39.2687C27.4766 39.2257 27.6251 39.0772 27.6586 38.948C28.1278 37.0615 28.9418 35.3378 30.043 33.7387C31.1873 32.0772 32.6764 30.7797 34.3713 29.7216C34.6251 29.5636 35.0033 29.6019 35.3528 29.6067C31.7283 31.8283 29.2721 34.8638 28.214 38.9575C28.2571 38.9863 28.3002 39.0198 28.3385 39.0485C28.4055 38.9384 28.4869 38.8378 28.5396 38.7229C28.5922 38.6176 28.6162 38.4979 28.7311 38.3878C28.7311 38.517 28.7311 38.6511 28.7311 38.8139C28.8651 38.833 28.9801 38.8474 29.2051 38.8761C29.0758 39.0485 29.004 39.2592 28.8843 39.2927C27.4958 39.714 26.1025 40.1066 24.7044 40.504C24.1777 40.6525 23.6367 40.753 23.1148 40.9206C22.1237 41.2318 21.1326 41.5478 20.1606 41.9117C19.0834 42.3139 18.5663 43.4965 18.9158 44.6408C19.4042 46.2544 19.8829 47.8679 20.3857 49.4814C20.7591 50.6736 21.1518 51.8611 21.5539 53.0389C21.6114 53.2065 21.7694 53.3597 21.9178 53.4746C22.2051 53.6948 22.2626 53.8481 22.0854 54.1641C21.3768 53.9055 21.0656 53.2974 20.7927 52.6702C20.649 52.3303 20.5341 51.976 20.4527 51.6169C20.3761 51.2817 20.1367 50.9609 20.4 50.5731C20.4623 50.4821 20.2516 50.2044 20.1606 50.0129C19.9883 49.6442 19.768 49.2947 19.6483 48.9069C19.2366 47.595 18.8583 46.2687 18.4657 44.952C18.4322 44.8371 18.3652 44.7366 18.3125 44.6265C18.3125 44.5355 18.3125 44.4397 18.3125 44.3488C18.7099 43.7742 18.7099 43.5779 18.3125 43.2284C18.3125 43.1039 18.3125 42.9794 18.3125 42.8549C18.7817 41.9069 19.6196 41.4999 20.5341 41.3611C20.7639 39.8912 20.8884 38.4596 21.2284 37.0807C21.5683 35.7113 22.1141 34.3898 22.5881 33.054C22.6839 32.7859 22.7988 32.4842 22.9951 32.2975C23.2202 32.082 23.5457 31.9623 23.8378 31.8235C24.0054 31.7421 24.1873 31.7086 24.465 31.6224C24.3022 31.5697 24.2304 31.5458 24.1586 31.5171C24.0197 31.4644 23.8186 31.4452 23.766 31.3447C23.6942 31.2106 23.6702 30.976 23.7468 30.8515C24.7236 29.1997 25.9014 27.6963 27.2755 26.3604C27.9746 25.6805 28.7694 25.0964 29.5307 24.4836C29.9137 24.1771 30.3159 23.8659 30.8138 24.3447C30.6989 24.1963 30.584 24.0478 30.4452 23.8611C30.7899 23.66 31.1251 23.4685 31.5464 23.2243C31.5177 23.4829 31.5033 23.6217 31.4889 23.7606C31.5991 22.9658 32.279 22.7982 32.8535 22.5684C34.1463 22.0561 35.4486 21.5102 36.7892 21.1176C38.0389 20.7489 39.3268 20.4952 40.6531 20.5096C41.965 20.5287 43.2865 20.3994 44.5936 20.4952C46.9684 20.6676 49.1996 21.4384 51.3542 22.4152C51.8808 22.6546 51.8569 22.9275 51.3254 23.4972C51.5217 23.4254 51.7324 23.3727 51.9191 23.2818C52.3979 23.0472 52.7091 23.1238 53.0922 23.4829C53.2789 23.66 53.5806 23.7079 53.8008 23.8563C54.3466 24.2202 54.8972 24.5841 55.4096 24.9959C56.1852 25.6231 56.98 26.2407 57.679 26.9446C58.4547 27.725 59.1298 28.6012 59.8767 29.4678C60.0778 29.4008 60.3028 29.3194 60.5374 29.2524C61.744 28.9076 62.8357 29.3577 63.2762 30.5307C63.822 31.9911 64.2529 33.4993 64.7365 34.9883C64.8179 35.2373 64.9041 35.4911 64.9567 35.7448C65.0142 36.0273 65.0908 36.3289 65.0573 36.6066C65.0142 36.9514 64.8562 37.277 65.3733 37.3919C65.4451 37.4062 65.5026 37.5594 65.5313 37.6552C65.6845 38.2106 65.7946 38.7804 65.9718 39.3262C66.1872 40.0013 65.7898 40.3652 65.3541 40.7291C65.3063 40.7722 65.2153 40.82 65.2201 40.8631C65.2775 41.6675 64.6455 41.8111 64.1045 42.041C64.0039 42.0841 63.8938 42.0984 63.731 42.1415C63.8076 45.6271 62.8883 48.883 61.2365 51.9808C61.1599 51.9377 61.0641 51.8898 61.0019 51.8563C60.887 52.5266 60.7338 53.173 60.2119 53.6709C60.1736 53.7044 60.1113 53.7188 60.0826 53.7619C59.623 54.4418 59.2256 55.1743 58.7037 55.8015C56.6018 58.32 54.0594 60.2543 51.0429 61.5806C48.9075 62.519 46.7003 63.1894 44.3877 63.4192C42.9178 63.5628 41.4096 63.6059 39.9493 63.424C38.3357 63.2229 36.7461 62.7584 35.1757 62.3132C34.2995 62.0642 33.4759 61.6093 32.6333 61.2407C32.2311 61.0683 31.8768 60.848 31.9438 60.3118C31.9246 60.4602 31.9055 60.6086 31.8863 60.7571C31.8528 60.7762 31.8241 60.7906 31.7906 60.8097C31.6469 60.5608 31.5033 60.3166 31.3262 60.0149C30.7995 60.3118 30.3781 59.9527 29.9424 59.6606C28.5874 58.7605 27.3809 57.6928 26.2988 56.4862C25.7147 55.8303 25.1832 55.1264 24.6422 54.4322C24.4459 54.1784 24.2783 54.1066 23.9383 54.1928C23.4356 54.3173 22.9041 54.3173 22.3535 54.3747C22.3823 54.1401 22.4014 53.9773 22.4254 53.7954C22.9137 53.8481 23.4021 53.9199 23.8857 53.9342C23.9814 53.939 24.0868 53.7092 24.1873 53.5895C24.3262 53.3501 24.4698 53.1155 24.6087 52.8761C24.5656 52.8522 24.5273 52.8282 24.4842 52.8091C24.4076 52.9288 24.3262 53.0437 24.216 53.216C24.1969 53.0006 24.1873 52.8522 24.1777 52.7037C24.1346 52.7085 24.0963 52.7181 24.0533 52.7229C24.1011 53.015 24.149 53.307 24.2017 53.5991ZM53.5423 34.7537C53.0874 34.2941 52.5128 34.3132 51.9479 34.2797C51.9383 34.3276 51.9239 34.3707 51.9143 34.4185C52.4602 34.5287 53.006 34.634 53.5518 34.7441C53.4226 34.8638 53.3124 35.0218 53.1592 35.0937C52.9533 35.1894 52.7187 35.2229 52.4937 35.2804C52.1968 35.3618 52.1011 35.5198 52.2112 35.8358C52.374 36.2859 52.4889 36.7551 52.6278 37.2147C52.9964 38.4309 53.3651 39.6422 53.7338 40.8583C53.8104 41.1169 53.9157 41.3228 54.2557 41.2079C55.0505 40.9493 55.85 40.7099 56.6448 40.4466C56.7454 40.4131 56.889 40.2886 56.889 40.212C56.8699 39.7667 56.8172 39.3262 56.7741 38.8905C56.4007 38.857 55.9937 38.8187 55.5867 38.7852C55.5867 38.8187 55.5867 38.8474 55.5867 38.8809C55.6825 38.924 55.7782 38.9671 55.9602 39.0485C55.7399 39.1347 55.558 39.2735 55.4766 39.2304C55.2707 39.1203 55.1127 38.9288 54.9308 38.7708C55.0313 38.6798 55.1175 38.5649 55.2372 38.5075C55.5676 38.3495 55.9123 38.2106 56.3193 38.0382C56.4007 38.0765 56.597 38.1436 56.7693 38.2489C57.363 38.6128 58.2632 38.5984 58.3685 39.5752C58.3924 39.8241 58.56 39.9343 58.8425 39.8289C59.4649 39.5943 60.1209 39.4363 60.7146 39.149C61.3897 38.8283 61.9451 38.2968 62.0504 37.5307C62.1606 36.7503 62.1462 35.9603 61.7727 35.199C61.2461 34.1265 60.4752 33.3221 59.2016 33.4466C58.3637 33.528 57.5402 33.7913 56.6592 33.9828C57.1141 35.5102 57.5402 36.9226 57.995 38.4548C57.478 38.2729 57.0662 38.1244 56.6496 37.9808C56.2044 37.8276 55.7734 37.6791 55.7351 37.0902C55.7303 37.0136 55.4191 36.8843 55.2707 36.9035C54.7057 36.9849 54.3993 36.8604 54.2557 36.396C54.3371 36.3625 54.4232 36.3098 54.5094 36.305C55.4574 36.2332 55.6729 35.9363 55.3856 35.0649C55.1989 34.4952 55.1271 34.4521 54.5525 34.6819C54.2221 34.8112 53.8966 34.9069 53.5423 34.7537ZM50.3822 44.8276C50.1428 44.502 49.9034 44.1764 49.6592 43.8508C49.9609 44.7701 49.9609 44.7701 50.3966 44.8132C50.4253 45.0382 50.4588 45.268 50.4827 45.4691C48.309 46.1203 46.1832 46.7619 44.0477 47.4035C43.9137 47.121 43.7748 46.8193 43.6312 46.5129C43.5642 46.5369 43.4971 46.5656 43.4301 46.5895C43.5019 46.9726 43.5115 47.3843 43.6647 47.7386C43.8466 48.1552 43.6886 48.2222 43.3343 48.3228C42.099 48.6771 40.8781 49.0745 39.6476 49.4527C39.0108 49.649 38.374 49.8405 37.7276 50.0081C37.6079 50.0416 37.4547 49.9602 37.3207 49.9363C37.4308 49.8453 37.5218 49.7113 37.651 49.6682C38.3214 49.4336 39.0012 49.2133 39.6811 49.0074C40.7249 48.6962 41.7735 48.4089 42.8125 48.0977C42.9369 48.0594 43.0375 47.9301 43.1476 47.8392C43.1141 47.7961 43.0854 47.7578 43.0518 47.7147C41.084 48.3084 39.1114 48.8973 37.0621 49.515C37.0286 49.2708 36.8945 48.9452 36.9903 48.8542C37.4116 48.4568 37.1531 48.0498 37.0765 47.6333C36.9951 47.7434 36.9424 47.8631 36.9281 47.9828C36.8754 48.3659 36.7988 48.7537 36.8084 49.1415C36.8227 49.6107 36.5498 49.7065 36.1859 49.7687C35.8603 49.8262 35.5396 49.9219 35.2188 49.989C35.2092 49.989 35.1757 49.8836 35.1805 49.9028C35.0464 50.0129 34.9267 50.1805 34.7687 50.2284C33.1887 50.712 31.5991 51.1716 30.0143 51.6456C29.5738 51.7797 29.1476 51.9472 28.7119 52.1005C28.7359 52.1675 28.7598 52.2297 28.779 52.2968C31.307 51.5498 33.835 50.7981 36.3631 50.0512C36.3966 50.0991 36.4301 50.1518 36.4588 50.1996C36.3487 50.3002 36.253 50.4438 36.1237 50.4869C35.688 50.6353 35.2379 50.7407 34.7974 50.8795C33.8877 51.1572 32.978 51.4445 31.9534 51.7653C32.1976 51.9903 32.3268 52.1388 32.4801 52.2489C33.3945 52.8905 34.3186 53.5177 35.2235 54.1641C35.3289 54.2407 35.348 54.4274 35.4103 54.5615C35.2906 54.5902 35.1278 54.6859 35.0608 54.6381C34.1319 54.0252 33.1791 53.4411 32.3029 52.7564C31.69 52.2824 31.1729 51.7174 30.3303 52.2728C30.2441 52.3303 30.1244 52.3399 30.019 52.3686C28.7454 52.7468 27.4671 53.1251 26.2078 53.5033C26.2749 53.7188 26.3371 53.9103 26.3994 54.097C26.3658 54.1114 26.3371 54.1305 26.3036 54.1449C26.136 53.9725 25.9732 53.7954 25.8056 53.623C25.7865 53.6422 25.7673 53.6565 25.7482 53.6757C26.0498 54.2024 26.3563 54.7243 26.7058 55.3275C27.1606 55.4329 28.3911 56.6251 28.372 56.9985C28.7071 57.2379 29.0327 57.4582 29.3392 57.7024C29.6025 57.9082 29.8227 58.1812 30.1052 58.3631C30.7995 58.8084 31.5225 59.2058 32.2215 59.6415C32.6285 59.8952 32.9971 60.2208 33.4185 60.4459C33.6387 60.5656 33.9547 60.5033 34.2037 60.5895C35.1278 60.9007 36.0231 61.2933 36.9616 61.5567C39.7434 62.3371 42.5778 62.4041 45.4219 62.045C45.8959 61.9876 46.1975 61.9158 46.2646 62.5813C46.3747 62.4185 46.4561 62.3467 46.4465 62.3036C46.3268 61.9301 46.504 61.8439 46.8439 61.7673C47.5238 61.6141 48.1845 61.3939 48.8501 61.188C49.0559 61.1257 49.2666 60.9534 49.4486 60.9821C49.6401 61.0108 49.8029 61.2167 50.0135 61.3747C49.9848 61.1449 49.9609 60.939 49.9417 60.7858C54.7153 58.6552 58.2249 55.2605 60.5949 50.6593C60.6667 50.7072 60.7338 50.7503 60.7529 50.7646C60.7529 50.5587 60.7002 50.3529 60.7625 50.1805C61.0067 49.4767 61.2748 48.7872 61.5525 48.0977C61.6147 47.9445 61.7871 47.8248 61.8206 47.6716C61.9403 47.1114 62.0313 46.5416 62.1175 45.9719C62.2228 45.2776 62.3186 44.5834 62.3952 43.8891C62.4431 43.4678 62.4478 43.0417 62.4766 42.6203C62.4239 42.6107 62.3712 42.6059 62.3186 42.5964C62.2467 43.2667 62.1701 43.9418 62.0983 44.6121C62.06 44.6121 62.0265 44.6121 61.9882 44.6121C61.9882 44.004 61.9882 43.396 61.9882 42.7687C61.902 42.7687 61.8206 42.7496 61.7536 42.7735C60.1927 43.2332 58.6318 43.6976 57.0758 44.1716C56.9513 44.2099 56.8172 44.3535 56.7693 44.478C56.6544 44.7988 56.5778 45.1292 56.4964 45.4596C56.123 46.9965 55.3234 48.3276 54.4998 49.6634C54.1791 49.4671 54.1216 49.2612 54.3323 48.9596C54.5429 48.6531 54.7488 48.3371 54.8877 47.9972C55.2946 47.0252 55.6729 46.0437 56.0464 45.0622C56.1134 44.8898 56.1086 44.6887 56.1325 44.502C56.0942 44.4924 56.0511 44.4828 56.0128 44.4685C55.5723 45.766 55.2659 47.121 54.4137 48.2366C54.3993 48.136 54.428 48.0498 54.4615 47.9685C54.8446 47.0204 55.2324 46.0772 55.6011 45.1244C55.6585 44.976 55.6106 44.794 55.6106 44.6073C54.7823 44.8706 54.045 45.1675 53.2741 45.3303C52.5368 45.4835 51.8425 45.9288 51.0621 45.833C51.0477 45.766 51.0286 45.699 51.0142 45.6367C54.6531 44.5259 58.2871 43.4151 61.9547 42.2995C61.6435 41.8303 61.4136 42.2038 61.1886 42.2708C59.8336 42.6634 58.4834 43.0752 57.1284 43.4821C55.2324 44.0471 53.322 44.5834 51.4403 45.1962C50.9232 45.3494 50.6695 45.1436 50.3822 44.8276ZM34.9219 47.4753C34.9746 47.4944 35.032 47.5136 35.0847 47.5328C34.9841 46.9965 35.3097 46.8624 35.7167 46.7858C36.004 46.7284 36.2913 46.6518 36.5737 46.5656C37.0095 46.4363 37.0621 46.3118 36.7701 45.9479C36.3487 45.4308 35.9034 44.9329 35.4486 44.4445C35.2571 44.2386 35.2283 44.0711 35.3815 43.8317C35.7167 43.3002 35.6832 42.6969 35.4486 42.175C35.214 41.6531 34.7974 41.2557 34.1463 41.1504C33.0881 40.978 32.1736 41.4329 31.2256 41.7393C31.149 41.7633 31.0676 41.9691 31.0915 42.0697C31.2687 42.8597 31.4459 43.6545 31.6709 44.4349C31.872 45.1292 32.1401 45.8091 32.3651 46.4986C32.7625 47.7291 32.4848 47.8535 34.0218 47.3029C34.3378 47.188 34.4096 47.0157 34.2851 46.6949C34.1175 46.2544 34.0026 45.7947 33.8686 45.3447C34.2995 45.6942 34.6538 46.082 34.9889 46.4842C35.0416 46.5512 35.0464 46.6805 35.0368 46.7763C35.0033 47.0061 34.9554 47.2407 34.9219 47.4753ZM29.5115 42.2181C28.6257 42.5006 27.7879 42.7735 26.95 43.0369C26.4089 43.2092 26.3802 43.2523 26.543 43.7838C26.7776 44.5355 26.9883 45.2968 27.242 46.0485C27.491 46.781 27.5868 47.4705 26.859 48.0403C26.9117 48.0738 26.9643 48.1073 27.0122 48.1456C27.2325 47.9397 27.4527 47.7291 27.7974 47.4035C27.9171 48.4712 28.0177 49.4096 28.123 50.3481C28.1996 50.1805 28.2571 49.9985 28.2619 49.8118C28.2714 49.1463 28.372 49.0122 28.9801 48.8446C29.4732 48.7058 29.9616 48.5622 30.4452 48.3946C31.2448 48.1169 31.2448 48.1073 31.0006 47.2646C30.8426 46.7092 30.8186 46.7044 30.2584 46.8481C30.0909 46.8912 29.8993 46.8385 29.7413 46.8289C29.6408 46.8912 29.5163 46.9678 29.3918 47.0444C29.3296 46.872 29.2338 46.7044 29.2242 46.5273C29.2195 46.4411 29.3727 46.3166 29.4828 46.2735C29.6504 46.2065 29.8658 46.24 30.0095 46.1538C30.1483 46.0676 30.3207 45.8713 30.3159 45.7325C30.2967 45.4452 30.1579 45.1675 30.0861 44.885C30.019 44.6169 29.861 44.5977 29.6312 44.6456C29.32 44.7079 28.9992 44.7366 28.6497 44.7845C28.6688 44.4972 28.6784 44.3057 28.6928 44.1189C28.9178 44.0519 29.1381 43.9609 29.3631 43.9178C29.794 43.8365 29.8754 43.5971 29.7509 43.214C29.6599 42.9267 29.6073 42.6347 29.5115 42.2181ZM25.1545 43.5348C25.0252 43.5492 24.8576 43.5731 24.6853 43.5875C23.2537 43.7263 22.4445 44.6456 22.162 45.608C21.8364 46.7236 22.0567 47.7865 22.7222 48.7776C23.0861 49.3187 23.5888 49.6969 24.1155 49.898C24.6182 50.0895 25.2359 50.1278 25.8392 49.9028C26.8877 49.5054 27.017 49.4575 26.5526 48.3132C26.543 48.2845 26.5286 48.2557 26.5143 48.227C26.3419 47.9302 26.16 47.8775 25.8392 48.069C25.6093 48.2078 25.2694 48.3084 25.0204 48.2462C24.0341 48.002 23.45 46.3118 24.1873 45.5697C24.4411 45.3159 24.6613 45.1531 24.9534 45.4452C25.0348 45.3494 25.0922 45.2058 25.1784 45.1819C25.5662 45.0813 25.571 44.8802 25.437 44.5546C25.3077 44.2482 25.2502 43.9035 25.1545 43.5348ZM46.0587 43.6258C46.4992 43.5061 46.9301 43.4007 47.3514 43.2715C47.6004 43.1949 47.677 43.0321 47.5813 42.7687C47.4568 42.4192 47.3658 42.0553 47.2796 41.6962C47.0977 40.9445 47.1072 40.9589 47.8398 40.6956C47.9978 40.6381 48.2085 40.4179 48.1989 40.2838C48.1797 39.9821 48.06 39.6805 47.9356 39.4028C47.8925 39.307 47.6914 39.2209 47.5813 39.2352C47.27 39.2831 46.9636 39.3837 46.5949 39.4794C46.5423 39.2113 46.4944 38.9719 46.4513 38.7421C46.6763 38.6702 46.8248 38.6272 46.9684 38.5745C47.9834 38.2202 47.7823 38.3638 47.586 37.3775C47.5286 37.0807 47.3849 36.937 47.0354 36.8748C46.729 36.8173 46.6715 37.0567 46.48 37.1094C45.9294 37.2626 45.3884 37.4685 44.8378 37.6169C44.2632 37.7749 44.2393 37.7893 44.4212 38.3734C44.6606 39.1443 44.8856 39.9151 45.125 40.686C45.4219 41.6436 45.7331 42.6012 46.0587 43.6258ZM36.6934 41.8016C37.3973 41.5765 37.3925 41.5765 37.584 42.2133C37.9096 43.2954 38.2447 44.3775 38.5703 45.4596C38.6374 45.6846 38.7475 45.8235 39.0012 45.7564C39.346 45.6654 39.6907 45.5745 40.0307 45.4691C40.2796 45.3925 40.361 45.2585 40.2653 44.976C40.0785 44.4397 39.9445 43.8891 39.7913 43.3433C39.6141 42.7161 39.4848 42.0697 39.2406 41.476C39.0922 41.1169 39.164 41.0259 39.4896 40.9254C40.0354 40.753 40.0642 40.6668 39.8966 40.1114C39.8583 39.9917 39.8008 39.8768 39.7865 39.7571C39.7194 39.2879 39.4322 39.2304 39.0443 39.3501C38.1873 39.6135 37.3302 39.896 36.4636 40.1306C36.0375 40.2455 36.004 40.4849 36.1189 40.82C36.2817 41.3036 36.4636 41.7776 36.6504 42.2852C36.6647 42.0984 36.6791 41.9452 36.6934 41.8016ZM49.0847 37.8707C49.2187 38.2776 49.3384 38.6511 49.4629 39.0389C49.348 39.0581 49.2618 39.0724 49.1613 39.0868C49.348 39.5752 49.506 40.0252 49.8268 40.4179C49.9896 40.6189 50.0997 40.9589 50.0614 41.2127C49.9848 41.6962 50.3439 41.9213 50.5546 42.2181C50.7078 42.4336 50.9951 42.5533 51.1962 42.7017C51.1818 42.5724 51.1531 42.3761 51.1291 42.1511C51.3589 42.0841 51.6079 42.0553 51.7899 41.9356C51.9191 41.8542 52.0628 41.6148 52.0293 41.4951C51.5361 39.7858 50.9999 38.0861 50.4971 36.3816C50.3822 35.9986 50.1907 35.9411 49.846 36.0608C49.5012 36.1805 49.1421 36.2619 48.7447 36.3768C48.8118 36.7024 48.9075 37.1285 48.9985 37.5547C48.8405 37.5451 48.716 37.5355 48.5915 37.5259C48.6202 37.9233 48.8118 38.0095 49.0847 37.8707ZM44.2488 44.0615C44.2297 43.937 44.2249 43.8891 44.2153 43.846C43.6886 42.1128 43.162 40.3843 42.6161 38.6559C42.5778 38.541 42.2954 38.3782 42.2187 38.4213C41.7878 38.6463 40.993 38.4165 40.9739 39.1203C40.9595 39.7523 41.1893 40.3987 41.3617 41.0259C41.5724 41.7968 41.8453 42.5533 42.0799 43.3194C42.1613 43.5875 42.1517 43.8891 42.2714 44.1285C42.3959 44.3823 42.5874 44.6791 42.9417 44.6121C43.2912 44.5451 43.6312 44.4302 43.9616 44.3057C44.086 44.2578 44.177 44.1237 44.2488 44.0615ZM65.3781 40.2742C65.4307 40.2503 65.4834 40.2263 65.5361 40.2024C65.0669 37.5499 63.8268 33.3939 63.3432 33.0396C63.4581 33.595 63.5203 34.0978 63.6688 34.5766C63.9273 35.4049 64.2673 36.214 64.5162 37.0423C64.6503 37.4828 64.6742 37.9616 64.7461 38.4021C64.8179 38.4692 64.9567 38.5458 64.9807 38.6463C65.0716 39.0341 65.1195 39.4315 65.2057 39.8241C65.2392 39.9821 65.3206 40.1258 65.3781 40.2742ZM28.5013 52.3111C27.1702 52.359 25.9493 52.8139 24.7571 53.3693C26.0642 53.24 27.2755 52.7468 28.5013 52.3111ZM29.6264 40.6477C30.426 40.5471 30.4404 39.7523 30.924 39.3645C30.766 39.264 30.6271 39.173 30.3734 39.015C30.5984 39.8529 29.8706 40.0731 29.6264 40.6477ZM33.0738 38.1915C33.0498 38.1292 33.0211 38.0718 32.9971 38.0095C32.4513 38.2154 31.9055 38.4165 31.3597 38.6224C31.3788 38.675 31.398 38.7277 31.4171 38.7756C31.9869 38.6319 32.6045 38.6176 33.0738 38.1915ZM36.0614 47.9732C36.0231 47.9924 35.9848 48.0068 35.9417 48.0259C35.9705 48.1983 36.0279 48.3754 36.0231 48.5478C36.004 49.0457 36.095 49.1463 36.5354 49.1511C36.3822 48.7776 36.2242 48.3754 36.0614 47.9732ZM29.9137 41.002C29.8706 40.9637 29.8227 40.9254 29.7796 40.8871C29.3727 41.2462 28.9705 41.6101 28.7263 42.1128C28.755 42.1415 28.7885 42.1655 28.8173 42.1942C29.1812 41.7968 29.5498 41.3994 29.9137 41.002ZM50.8754 44.7797C51.2392 44.4828 51.2393 44.4828 50.5258 43.621C50.6408 43.9992 50.7557 44.3823 50.8754 44.7797ZM64.1188 41.4951C63.731 41.4329 63.3288 41.3707 62.9218 41.3084C63.4773 41.9452 63.5826 41.9596 64.1188 41.4951ZM27.3522 41.4808C26.61 41.7824 26.61 41.7824 26.5526 41.9739C26.6962 42.0122 26.8398 42.0458 26.9931 42.0888C27.0984 41.9117 27.1989 41.7441 27.3522 41.4808ZM27.3378 50.3385C27.2851 50.3289 27.2372 50.3145 27.1846 50.305C27.0984 50.4821 27.0074 50.6593 26.9212 50.8316C27.0553 50.87 27.1894 50.9083 27.3378 50.9466C27.3378 50.7215 27.3378 50.53 27.3378 50.3385ZM55.1749 33.3221C55.1079 33.2455 55.0457 33.1737 55.0265 33.1545C54.7392 33.2455 54.5238 33.3125 54.2844 33.3844C54.7488 33.6812 54.7488 33.6812 55.1749 33.3221ZM59.5224 41.2557C59.6373 41.1169 59.7139 41.0211 59.7953 40.9254C59.6373 40.8392 59.4841 40.7434 59.3165 40.6764C59.283 40.662 59.1489 40.8153 59.1537 40.82C59.2543 40.9589 59.3692 41.0834 59.5224 41.2557ZM22.4397 50.7933C22.5115 50.8364 22.5786 50.8843 22.6504 50.9274C22.7988 50.6736 22.9472 50.4199 23.0957 50.1661C23.0478 50.1374 22.9999 50.1087 22.952 50.0799C22.7844 50.3193 22.6121 50.5587 22.4397 50.7933ZM57.6168 39.8529C57.5785 39.872 57.5402 39.896 57.5019 39.9151C57.5067 40.279 57.7557 40.4466 58.019 40.6046C58.0573 40.5759 58.0908 40.5471 58.1291 40.5184C57.9567 40.2982 57.7892 40.0779 57.6168 39.8529Z" fill="white"></path><path d="M44.0142 34.4953C43.8275 34.955 43.3151 34.9789 42.9082 35.113C41.6106 35.5295 40.2987 35.8934 38.9916 36.2717C38.2926 36.4728 37.5983 36.6786 36.8945 36.8606C36.7652 36.8941 36.6072 36.8031 36.4636 36.7696C36.4588 36.7074 36.454 36.6499 36.4492 36.5877C36.9663 36.4153 37.4786 36.2286 37.9957 36.0706C38.6852 35.8599 39.389 35.6875 40.0785 35.4769C41.5005 35.0459 42.9177 34.5959 44.3398 34.1602C44.7372 34.0357 45.1346 33.8968 45.5463 33.8298C45.7474 33.7963 45.9725 33.9064 46.1831 34.0405C45.4649 34.1458 44.8521 34.7443 44.0142 34.4953Z" fill="white"></path><path d="M28.2471 27.7298C28.3524 26.9637 32.3839 24.1244 33.9639 23.7749C32.9824 24.3782 31.9721 24.9432 31.0241 25.5991C30.0761 26.2551 29.1903 27.002 28.2471 27.7298Z" fill="white"></path><path d="M22.5166 38.0815C22.9284 35.9939 23.6178 34.0165 24.6903 32.1875C24.7382 32.2067 24.7861 32.2258 24.834 32.245C24.4174 33.2265 23.9626 34.1937 23.5939 35.1943C23.2396 36.1615 22.9715 37.1574 22.665 38.1389C22.6171 38.1198 22.5693 38.1006 22.5166 38.0815Z" fill="white"></path><path d="M36.4971 28.8359C37.3493 28.2039 38.3548 27.9932 39.3746 27.8256C39.48 27.8065 39.6045 27.8974 39.7241 27.9357C39.6284 28.0363 39.547 28.1943 39.4321 28.2278C39.0155 28.3475 38.5846 28.4002 38.1729 28.5247C37.7755 28.6444 37.402 28.8359 37.0046 28.9699C36.8514 29.0226 36.679 29.0035 36.5114 29.0178C36.5114 28.9604 36.5066 28.8981 36.4971 28.8359Z" fill="black"></path><path d="M28.1231 27.7681C28.0513 27.9069 27.9986 28.0553 27.9077 28.1798C27.0554 29.3002 26.1936 30.4158 25.3318 31.5266C25.2504 31.6319 25.1259 31.699 24.9727 31.7373C25.8489 30.2769 26.7921 28.8836 28.0178 27.7058C28.0513 27.725 28.0848 27.7441 28.1231 27.7681Z" fill="white"></path><path d="M50.8318 23.9426C49.2183 23.4064 47.6095 22.8701 45.8906 22.3003C46.8003 22.1519 50.6403 23.4782 50.8318 23.9426Z" fill="white"></path><path d="M55.2467 26.8298C55.0743 26.7436 54.8876 26.6766 54.7248 26.5713C53.6714 25.8722 52.6229 25.1684 51.5743 24.4646C51.4546 24.3832 51.3445 24.2922 51.2822 24.1294C52.7713 24.747 54.0784 25.652 55.3089 26.6766C55.2897 26.7245 55.2706 26.7771 55.2467 26.8298Z" fill="white"></path><path d="M48.7873 29.7024C48.3947 29.5731 47.9925 29.4678 47.6191 29.305C46.0869 28.649 44.459 28.4671 42.8263 28.3187C42.6348 28.2995 42.4385 28.3187 42.2422 28.3187C42.2422 28.266 42.2422 28.2085 42.2422 28.1559C42.5199 28.1559 42.7976 28.1463 43.0753 28.1559C44.9378 28.2421 46.7093 28.7161 48.4091 29.4534C48.5431 29.5109 48.6533 29.6306 48.773 29.7215C48.773 29.7167 48.7873 29.7024 48.7873 29.7024Z" fill="white"></path><path d="M38.9434 22.2429C39.5083 21.8886 42.4529 21.7115 43.5159 21.9461C43.5206 21.994 43.5206 22.037 43.5254 22.0849C42.7737 22.1041 42.022 22.1137 41.2703 22.1376C40.509 22.1663 39.7477 22.2046 38.9434 22.2429Z" fill="white"></path><path d="M34.1172 23.5546C35.5775 22.8747 37.1192 22.4582 38.6897 22.147C38.704 22.1901 38.7184 22.2379 38.7328 22.281C37.2054 22.7455 35.6733 23.2099 34.1459 23.6743C34.1363 23.636 34.1268 23.5929 34.1172 23.5546Z" fill="white"></path><path d="M36.2435 36.645C36.4494 36.8557 36.5116 37.0185 36.1286 37.1095C35.5923 37.2387 35.0656 37.3919 34.5342 37.5404C34.5964 37.0664 34.5964 37.0664 36.2435 36.645Z" fill="white"></path><path d="M51.1866 31.1723C50.9424 31.0574 50.6886 30.9616 50.4588 30.8228C49.98 30.5451 49.5108 30.2482 49.0416 29.9514C48.9458 29.8891 48.874 29.7838 48.7878 29.7024L48.7734 29.7168C49.5299 30.1668 50.2816 30.6169 51.0381 31.067C51.086 31.0957 51.1291 31.1388 51.177 31.1723H51.1866Z" fill="white"></path><path d="M31.4121 33.2408C31.9292 32.7429 32.4511 32.2401 32.9682 31.7422C32.973 31.747 32.9778 31.7518 32.9826 31.7566C32.4607 32.2545 31.934 32.7524 31.4121 33.2504C31.4169 33.2504 31.4169 33.2456 31.4121 33.2408Z" fill="black"></path><path d="M36.8126 29.4582C36.262 29.7407 35.7114 30.028 35.1656 30.3105C35.1416 30.2626 35.1177 30.2195 35.0938 30.1716C35.6444 29.8939 36.1998 29.6114 36.7504 29.3337C36.7695 29.372 36.7935 29.4151 36.8126 29.4582Z" fill="white"></path><path d="M44.6274 22.0034C45.0343 22.0561 45.4365 22.1135 45.8435 22.1662C45.8339 22.238 45.8243 22.3051 45.8148 22.3769C45.4078 22.3194 45.0056 22.2572 44.5986 22.1997C44.613 22.1375 44.6226 22.0704 44.6274 22.0034Z" fill="white"></path><path d="M34.5009 30.7128C34.0748 31.0383 33.6439 31.3639 33.2177 31.6895C33.1842 31.6416 33.1507 31.5985 33.1172 31.5506C33.5577 31.2346 33.9982 30.9186 34.4339 30.6074C34.4578 30.6409 34.4818 30.6745 34.5009 30.7128Z" fill="white"></path><path d="M30.0137 35.2278C30.2339 34.8735 30.4494 34.524 30.6696 34.1697C30.7223 34.1984 30.7702 34.2319 30.8228 34.2606C30.6026 34.615 30.3823 34.9693 30.1621 35.3188C30.1094 35.2948 30.0616 35.2613 30.0137 35.2278Z" fill="white"></path><path d="M29.5309 36.4199C29.3586 36.8603 29.1814 37.3008 29.0091 37.7365C28.966 37.7174 28.9229 37.703 28.875 37.6839C29.0522 37.2434 29.2245 36.8077 29.4017 36.3672C29.4448 36.3863 29.4879 36.4055 29.5309 36.4199Z" fill="white"></path><path d="M49.5391 53.762C49.6444 53.6518 49.7258 53.5082 49.8551 53.4316C51.483 52.3974 52.8858 51.1286 53.9536 49.5103C54.3557 49.8215 54.3653 49.9603 54.0302 50.3434C53.7429 50.6737 53.4843 51.0328 53.154 51.3105C52.8619 51.5547 52.6417 51.8516 52.3783 52.1149C52.0767 52.4165 51.7559 52.699 51.4159 52.9624C50.9898 53.2927 50.5445 53.5992 50.0945 53.896C49.9652 53.9822 49.788 53.9918 49.63 54.0349C49.5965 53.9391 49.5678 53.8529 49.5391 53.762Z" fill="white"></path><path d="M50.6694 45.8715C50.5736 45.9768 50.497 46.1348 50.3773 46.1779C49.8985 46.3503 49.4054 46.4939 48.917 46.6375C47.4663 47.0685 46.0107 47.4994 44.56 47.9303C44.2057 48.0356 44.0955 47.8968 44.1434 47.6574C46.3076 47.011 48.4191 46.379 50.5305 45.7422C50.5784 45.7853 50.6263 45.8284 50.6694 45.8715Z" fill="black"></path><path d="M38.6465 55.4568C39.3072 55.5238 39.9344 55.5908 40.5569 55.6579C41.0644 55.7105 41.5719 55.7824 42.0794 55.8111C42.4002 55.8302 42.4864 55.9547 42.3763 56.2947C41.8688 56.2707 41.3517 56.2612 40.8394 56.2133C40.2457 56.1606 39.6567 56.084 39.0678 56.0026C38.6752 55.9452 38.6561 55.9069 38.6465 55.4568Z" fill="white"></path><path d="M49.5397 53.762C49.5684 53.8481 49.5972 53.9343 49.6307 54.0253C49.2572 54.3892 48.8885 54.7196 48.2996 54.6765C48.1608 54.6669 47.9788 54.8488 47.8687 54.9829C47.6197 55.2989 46.9111 55.342 46.7627 55.0499C47.5958 54.6286 48.4289 54.2072 49.2668 53.7955C49.3434 53.7572 49.4487 53.7715 49.5397 53.762Z" fill="white"></path><path d="M42.5586 55.7969C43.5784 55.6485 44.5647 55.5096 45.5606 55.366C45.6468 55.6341 45.6085 55.8112 45.3069 55.8304C45.0388 55.8496 44.785 56.1129 44.4834 55.8448C44.4259 55.7969 44.1434 55.9453 44.0046 56.0554C43.6598 56.3283 42.7262 56.1943 42.5586 55.7969Z" fill="white"></path><path d="M60.3789 50.0991C60.8433 48.6196 61.3078 47.1401 61.7722 45.6606C61.8153 45.675 61.8584 45.6846 61.9015 45.6989C61.6956 47.255 61.1019 48.6962 60.5465 50.147C60.489 50.1326 60.4316 50.1134 60.3789 50.0991Z" fill="white"></path><path d="M60.3741 50.0945C60.3166 50.9707 58.6743 53.719 57.9609 54.1259C58.7845 52.747 59.5457 51.4782 60.3741 50.0945Z" fill="white"></path><path d="M31.9959 59.201C30.5596 58.4062 29.3291 57.4055 28.2422 56.2229C29.4918 57.1278 30.7463 58.028 31.9912 58.9425C32.0295 58.976 31.9959 59.1052 31.9959 59.201Z" fill="white"></path><path d="M55.376 56.7832C56.2474 55.883 57.114 54.9829 57.9854 54.0828C58.0285 54.1259 58.0716 54.1642 58.1147 54.2072C57.3438 55.1984 56.4772 56.1081 55.5148 56.922C55.4717 56.8789 55.4239 56.831 55.376 56.7832Z" fill="white"></path><path d="M32.1016 59.0813C33.3129 59.6463 34.4381 60.173 35.5968 60.714C35.1467 60.8816 32.4128 59.6175 32.1016 59.0813Z" fill="white"></path><path d="M36.8223 55.452C36.8749 55.2653 36.8893 55.1887 36.9132 55.1216C36.9324 55.069 36.9707 55.0163 37.0042 54.9636C37.4303 55.0833 37.8469 55.1839 38.2539 55.3227C38.3496 55.3562 38.3975 55.5286 38.4693 55.6387C38.3544 55.6483 38.2395 55.677 38.1294 55.6627C37.708 55.6052 37.2867 55.5286 36.8223 55.452Z" fill="white"></path><path d="M38.6992 55.0642C39.8627 55.1791 41.0262 55.2988 42.1896 55.4137C41.007 55.5526 39.8435 55.4472 38.6992 55.0642Z" fill="black"></path><path d="M52.7374 59.019C51.9761 59.5217 51.1622 59.9335 50.2955 60.2447C50.2716 60.2016 50.2525 60.1633 50.2285 60.1202C51.0281 59.6989 51.8325 59.2775 52.6321 58.8562C52.6704 58.9089 52.7039 58.9663 52.7374 59.019Z" fill="white"></path><path d="M47.8447 54.1162C48.6156 53.6805 49.3817 53.2496 50.2435 52.7612C49.803 53.3071 48.3379 54.1019 47.8447 54.1162Z" fill="black"></path><path d="M35.7217 53.9871C36.5883 54.3079 37.4597 54.6334 38.3264 54.9542C38.3072 55.0021 38.288 55.0548 38.2689 55.1027C37.4023 54.7723 36.5404 54.4371 35.6738 54.1068C35.6882 54.0685 35.7026 54.0302 35.7217 53.9871Z" fill="black"></path><path d="M46.7624 55.4233C46.4416 55.519 46.2309 55.61 46.0107 55.6292C45.9341 55.6339 45.8431 55.4568 45.7617 55.3658C45.9772 55.2748 46.1878 55.1551 46.4177 55.1073C46.4847 55.0929 46.5996 55.2701 46.7624 55.4233Z" fill="black"></path><path d="M54.1549 58.095C53.7097 58.3823 53.317 58.6313 52.9053 58.8898C52.9579 58.4637 53.5947 58.0424 54.1549 58.095Z" fill="white"></path><path d="M52.541 50.693C52.9288 50.1998 53.3119 49.7066 53.6997 49.2183C53.7428 49.2518 53.7907 49.2901 53.8338 49.3236C53.4364 49.812 53.0342 50.3003 52.6368 50.7887C52.6033 50.7552 52.5745 50.7265 52.541 50.693Z" fill="black"></path><path d="M32.5041 51.7605C33.0068 52.1627 33.5143 52.5601 34.017 52.9623C33.9883 52.9958 33.9596 53.0341 33.9357 53.0676C33.4281 52.6702 32.9206 52.2728 32.4131 51.8802C32.4418 51.8419 32.4705 51.7988 32.5041 51.7605Z" fill="black"></path><path d="M51.2012 51.9761C51.5698 51.6314 51.9337 51.2866 52.3024 50.9419C52.3455 50.985 52.3886 51.0281 52.4317 51.076C52.0917 51.4494 51.7518 51.8181 51.4118 52.1916C51.34 52.1197 51.273 52.0479 51.2012 51.9761Z" fill="black"></path><path d="M34.2519 53.1204C34.6637 53.3598 35.0802 53.5992 35.492 53.8386C35.4681 53.8769 35.4489 53.9199 35.425 53.9583C34.9988 53.7236 34.5775 53.4938 34.1514 53.2592C34.1849 53.2113 34.2184 53.1635 34.2519 53.1204Z" fill="black"></path><path d="M45.2683 54.9828C45.7758 54.8248 46.2833 54.6668 46.7861 54.5088C46.8004 54.5567 46.8148 54.6045 46.8291 54.6476C46.3025 54.7961 45.7806 54.9397 45.2539 55.0881C45.2635 55.0546 45.2635 55.0211 45.2683 54.9828Z" fill="black"></path><path d="M59.7136 37.9281C59.4263 37.0375 59.1486 36.2044 58.8901 35.3665C58.8565 35.2612 58.8613 35.0649 58.9188 35.0314C59.0193 34.9739 59.2061 34.9548 59.297 35.0122C59.4981 35.1415 59.7375 35.2947 59.8333 35.4958C60.0296 35.9124 60.1732 36.3576 60.2738 36.8029C60.3839 37.2769 60.1684 37.6408 59.7136 37.9281Z" fill="white"></path><path d="M33.3082 43.578C33.2556 43.3721 33.179 43.1662 33.1502 42.9604C33.1359 42.855 33.179 42.6683 33.246 42.6444C33.3513 42.6013 33.5572 42.6156 33.6147 42.6922C33.7296 42.8359 33.8588 43.0561 33.8253 43.2093C33.7918 43.3769 33.5811 43.511 33.4423 43.6594C33.3992 43.6307 33.3513 43.6019 33.3082 43.578Z" fill="black"></path></g><defs><clipPath id="clip0_164_79"><rect width="47.7167" height="43.0772" fill="white" transform="translate(18.3076 20.4617)"></rect></clipPath></defs></svg> 