<?xml version="1.0" encoding="UTF-8"?> <svg xmlns="http://www.w3.org/2000/svg" id="Layer_1" data-name="Layer 1" viewBox="0 0 990.06 204.98"><defs><style>.cls-1{fill:#fff;}</style></defs><title>Artboard 2 copy</title><path class="cls-1" d="M597.81,62.69h26.06c.54,1.7.67,93.45.13,96.17H597.9V122.79H565.17V158.5c-1.89.58-23.35.72-26.34.21v-96h26.25c0,4.13,0,8.26,0,12.38V100c2,.51,29.36.65,32.72.18Z"></path><path class="cls-1" d="M152.84,54.73c27.68-.38,51,22.92,51,50.67S180.72,156.27,153,156.32c-28.33,0-50.85-23.74-50.84-50.86S124.85,54.42,152.84,54.73Zm.07,78.13a27.37,27.37,0,1,0-27.27-27.51A27.45,27.45,0,0,0,152.91,132.86Z"></path><path class="cls-1" d="M918.35,99.26v22.43H880.49v15h46.39c.6,1.91.73,19.08.23,22.09h-73v-96h73.1v22H880.84c-.59,2-.75,9.59-.33,14.37,2.46.15,5,0,7.51.07s5,0,7.44,0h22.89Z"></path><path class="cls-1" d="M78.78,95.36a37.1,37.1,0,0,1,10.59,12.81,30.8,30.8,0,0,1,2.22,20.77c-2.36,10.23-8.78,17.38-17.66,22.4a41,41,0,0,1-20.45,5.11q-13.8,0-27.59,0c-.62,0-1.24-.11-2-.18V54.46h3.16c7.83,0,15.67.11,23.5.11a32.75,32.75,0,0,1,20.32,6.63c5.71,4.3,9.55,9.89,10.72,17a24.5,24.5,0,0,1-2.17,15.41c-.21.43-.41.86-.6,1.3A2,2,0,0,0,78.78,95.36ZM47.33,132.8c3.31,0,6.38.33,9.35-.08A16,16,0,0,0,67.13,127a8.49,8.49,0,0,0,.33-9.81,14.6,14.6,0,0,0-7.37-5.4c-4.15-1.49-8.42-1.1-12.76-.92ZM47.53,78c-.51,2.7-.43,7.44.14,9.19a38.52,38.52,0,0,0,4,0,8.54,8.54,0,0,0,5.4-2.26c1.78-1.82,2.15-2.82-.16-4.94C54.16,77.41,50.82,77.82,47.53,78Z"></path><path class="cls-1" d="M703.36,62.88q18.25,47.73,36.69,95.88c-.83.09-1.43.21-2,.22q-11.87,0-23.75,0c-2.13,0-2-.06-2.81-2.13-1.18-3.21-2.47-6.37-3.69-9.47H672l-4.77,11.47H639.36c.66-1.75,1.21-3.29,1.83-4.8q8.1-20,16.21-39.89,4.86-12,9.7-23.93,5.24-13.1,10.41-26.22a1.86,1.86,0,0,1,1.93-1.42c7.67,0,15.35,0,23,0A4.31,4.31,0,0,1,703.36,62.88Zm-22.3,62h18.19c-2.94-7.62-5.78-15-8.61-22.35l-.46-.08Z"></path><path class="cls-1" d="M783.61,143.75v15.06H757.26V62.9a8.27,8.27,0,0,1,1.55-.28c9.28,0,18.56-.09,27.83.09,8.06.17,15.51,2.74,22.53,6.57a43,43,0,0,1,13.35,11.09c7.09,9,10,19.15,7.38,30.53-2.57,11.15-9.43,19.12-18.93,25A52.58,52.58,0,0,1,792,143c-1.56.28-3.17.33-4.76.47C786.16,143.56,785.06,143.64,783.61,143.75Zm.19-22.5a22.3,22.3,0,0,0,14.52-5.48c7.43-6.38,7.95-16.59,1.89-23.48A22.38,22.38,0,0,0,792.94,87,18.31,18.31,0,0,0,783.8,85Z"></path><path class="cls-1" d="M368.65,54.12h25.88L415.29,98,433,54.15h24.48a7.58,7.58,0,0,1-.81,4.21c-4,10-8,20-12.07,29.92-2.82,6.94-5.71,13.85-8.53,20.79-3.42,8.41-6.79,16.85-10.2,25.26q-4.12,10.2-8.32,20.36a13.73,13.73,0,0,1-.93,1.63h-25c.58-1.62,1-3,1.59-4.4q4.74-11.62,9.53-23.22a2.4,2.4,0,0,0-.16-2.22c-3-6.4-6-12.85-9-19.27Q386,91.1,378.39,75q-4.54-9.61-9.06-19.23C369.13,55.37,369,54.92,368.65,54.12Z"></path><path class="cls-1" d="M297.53,54.86h23.33v78.06h36.73c.57,2,.66,20.72.19,23.16-1.72.47-57.15.61-60.08.16C297.25,154.54,297.06,58.91,297.53,54.86Z"></path><path class="cls-1" d="M219.27,54.85h23.32v77.93a87.27,87.27,0,0,0,9.23.18c3.11,0,6.23,0,9.35,0h18.25v23.34H219.27Z"></path><path class="cls-1" d="M506.54,94.73c.76-1,1.5-2,2.28-3,4-5,7-10.48,8.08-16.87a13.4,13.4,0,0,0-3.24-11.81,8.1,8.1,0,0,0-5.91-2.73,33.46,33.46,0,0,0-17,4.14A34.75,34.75,0,0,0,476.17,78c-5.2,9-4.88,17.91.95,26.38,3.07,4.46,6.84,8.43,10.23,12.67,2.38,3,4.86,6,6.93,9.16a23.69,23.69,0,0,1,2.2,22.67,21,21,0,0,1-5.91,8.15c.29-2.26.51-4.11.76-6a26.1,26.1,0,0,0-4-18.54c-3.17-4.79-6.43-9.54-9.95-14.07-1.89-2.44-4.44-4.36-6.61-6.58a47.4,47.4,0,0,1-3.59-4.18,11,11,0,0,1-1.63-2.92C462,94.81,462.12,85,467,75.49c4-7.7,10-13.54,17.4-18.1a45.13,45.13,0,0,1,14.33-5.85c6-1.29,11.91-1.2,17.53,1.65a14.48,14.48,0,0,1,7.44,9,22.15,22.15,0,0,1-.48,13.91c-2,6.1-5.93,10.9-10.71,15-1.74,1.5-3.64,2.8-5.46,4.2Z"></path><path class="cls-1" d="M479.05,137c-.57.65-1.11,1.35-1.74,1.94A31.7,31.7,0,0,0,470,149.49a14.64,14.64,0,0,0-.79,11c1.09,3.21,3.18,5.25,6.7,5.7a25.85,25.85,0,0,0,11.37-.88,28.89,28.89,0,0,0,14.06-9.17c5.78-7.15,6.77-15,2.94-23.32a97.41,97.41,0,0,0-5.58-9.76c-2.55-4.15-5.33-8.15-7.13-12.73-3.3-8.41-1.57-17.54,5-23.52.35-.31.74-.57,1.45-1.1-.22,1-.32,1.56-.49,2.13a26.78,26.78,0,0,0,1.15,20,91.31,91.31,0,0,0,10.19,17.29,23.09,23.09,0,0,1,3.6,5.63,30,30,0,0,1,1.77,8.11c1.18,15.42-7.94,26.48-20.45,32.46a31.56,31.56,0,0,1-17,3.22,17.61,17.61,0,0,1-10.06-4c-4.21-3.64-5.3-8.43-4.57-13.7,1-7.45,5.28-12.88,11.24-17.12,1.66-1.18,3.47-2.16,5.2-3.24Z"></path><path class="cls-1" d="M951.74,58.72c-6.79-.34-13-2.17-18.14-6.92-8.41-7.75-8.56-20.19.49-27.95,7.1-6.1,15.41-7.67,24.45-5.55a24.19,24.19,0,0,1,13.1,7.85,18.26,18.26,0,0,1-1.06,25C965.39,56.35,958.92,58.37,951.74,58.72Zm-.17-5.92a18.53,18.53,0,0,0,14.3-6,12.75,12.75,0,0,0,.43-17c-6.48-8.21-20.48-8.59-27.83-1.51A13.33,13.33,0,0,0,938.69,48,18.65,18.65,0,0,0,951.57,52.8Z"></path><path class="cls-1" d="M534.4,39.79a13.51,13.51,0,0,1-8.82,12.56A7.58,7.58,0,0,1,515.52,47c-1.77-6.48,2.61-14,9.12-15.75,4.71-1.23,9,1.82,9.68,7A12.56,12.56,0,0,1,534.4,39.79Z"></path><path class="cls-1" d="M458,188.94a6.7,6.7,0,0,1-6.16-5.06,11.25,11.25,0,0,1,4.95-12c2.87-1.75,7.19-2,9.42,1.32a7.89,7.89,0,0,1,1.42,5.44c-.47,3.73-2.09,6.87-5.45,8.8A25.32,25.32,0,0,1,458,188.94Z"></path><path class="cls-1" d="M509.49,40.81a7.38,7.38,0,0,1-2.05,5.68c-2.55,3.07-7.12,2.3-9.11-1.44a8.71,8.71,0,0,1,1.35-9.77,5.43,5.43,0,0,1,8.33.6A7.52,7.52,0,0,1,509.49,40.81Z"></path><path class="cls-1" d="M481.71,182.32c-.08,2.66-.67,4.51-2.28,5.92-2.65,2.31-5,1.21-6.57-.86a7.6,7.6,0,0,1,.72-9.08,4.38,4.38,0,0,1,7.33,1.14A15.62,15.62,0,0,1,481.71,182.32Z"></path><path class="cls-1" d="M492.27,46.08c0,3.77-2,5.71-5.15,5.18-2.21-.38-4.48-3.42-4.41-5.9.08-2.72,1.85-5,4.32-5.21a3.93,3.93,0,0,1,2.65.76C491.29,42.27,492.48,44,492.27,46.08Z"></path><path class="cls-1" d="M480.53,53.83c-.17,1.82-.7,3.25-2.35,4s-3.05.43-4.56-1a5.06,5.06,0,0,1-1.69-4c.09-1.94.92-3.32,2.34-3.82a4.41,4.41,0,0,1,4.88,1.61A20.53,20.53,0,0,1,480.53,53.83Z"></path><path class="cls-1" d="M494,181.36a13.57,13.57,0,0,1-1.1,2.81,3.2,3.2,0,0,1-5.67-.28,6.19,6.19,0,0,1-.4-5.76,3.23,3.23,0,0,1,5.49-1A6.35,6.35,0,0,1,494,181.36Z"></path><path class="cls-1" d="M466.11,62.84a3.65,3.65,0,0,1,3.44-3.8c1.75-.08,3.8,2.39,3.8,4.57a3.47,3.47,0,0,1-3.41,3.58C467.81,67.22,466.13,65.31,466.11,62.84Z"></path><path class="cls-1" d="M503.55,176.11c-.21,1.92-1,3.32-2.33,3.69-1.87.55-3.75-.87-4.44-3.34-.56-2,.43-4.31,2.06-4.79a3.42,3.42,0,0,1,3.83,1.78A16.59,16.59,0,0,1,503.55,176.11Z"></path><path class="cls-1" d="M509,168.62a2.65,2.65,0,0,1-2.72,2.95c-1.66,0-2.85-1.42-2.86-3.45s.94-3.36,2.33-3.33A3.79,3.79,0,0,1,509,168.62Z"></path><path class="cls-1" d="M948.17,42.59v4.69h-4.73V28.59c4.45.41,8.85-.67,13.24,1a6.35,6.35,0,0,1,2,10.45l-1.22,1.16c1.61,2,3.19,3.9,5,6.14a27.36,27.36,0,0,1-5.4.08c-.32,0-.68-.37-.94-.65a17.35,17.35,0,0,1-1.85-2.18C952.85,42.44,951,41.72,948.17,42.59Zm.14-4.8a10.84,10.84,0,0,0,5.77-.07A2.44,2.44,0,0,0,955.27,34a3.77,3.77,0,0,0-2.19-1.26,37.7,37.7,0,0,0-4.77-.06Z"></path></svg> 