<svg width="9" height="18" viewBox="0 0 9 18" fill="none" xmlns="http://www.w3.org/2000/svg">
<path d="M2.5112 10.1599C2.11167 10.1599 1.7453 10.1599 1.37893 10.1599C1.06637 10.1599 0.753813 10.1658 0.441256 10.1576C0.114567 10.1494 0.00802584 10.0438 0.00476438 9.69421C-0.00230212 8.77799 -0.00284569 7.86118 0.00530796 6.94496C0.00856942 6.59772 0.123264 6.48803 0.445605 6.48627C1.05006 6.48216 1.65506 6.48509 2.25952 6.48509C2.33345 6.48509 2.40737 6.48509 2.51065 6.48509C2.51065 6.38596 2.50957 6.30091 2.51065 6.21586C2.52479 5.38059 2.49543 4.5418 2.56175 3.7118C2.73026 1.59664 4.22618 0.0862273 6.19338 0.0170123C6.99407 -0.011143 7.79639 0.00469436 8.59817 0.00704063C8.88028 0.0076272 8.99443 0.132566 8.99606 0.437581C8.99987 1.29514 8.99987 2.15329 8.99661 3.01085C8.99552 3.33933 8.88898 3.45841 8.57534 3.46662C8.02524 3.48069 7.47514 3.48128 6.92449 3.49008C6.30754 3.50005 6.04771 3.76049 6.0352 4.41803C6.02216 5.0832 6.03249 5.74837 6.03249 6.43934C6.12544 6.43934 6.19773 6.43934 6.27057 6.43934C6.97015 6.43934 7.67028 6.43817 8.36986 6.43993C8.81125 6.44052 8.91453 6.55138 8.91507 7.01887C8.91562 7.8911 8.9167 8.76391 8.91453 9.63614C8.91344 10.0268 8.81831 10.1318 8.45412 10.133C7.65941 10.1365 6.86524 10.1341 6.03249 10.1341C6.03249 10.2362 6.03249 10.3271 6.03249 10.418C6.03249 12.7127 6.03249 15.0073 6.03249 17.302C6.03249 17.9349 5.96997 18.0006 5.37476 18.0006C4.59364 18.0006 3.81197 18.0018 3.03086 18C2.61284 17.9994 2.5112 17.8903 2.51065 17.4439C2.51011 15.1123 2.51011 12.7813 2.51011 10.4497C2.5112 10.3623 2.5112 10.2761 2.5112 10.1599Z" fill="#373737"/>
</svg>
