<svg width="21" height="19" viewBox="0 0 21 19" fill="none" xmlns="http://www.w3.org/2000/svg">
<path d="M10.4953 18.6044C10.019 18.1847 9.54557 17.7742 9.0794 17.3562C7.42816 15.8766 5.76513 14.4102 4.13467 12.9063C3.14841 11.9967 2.25146 10.9955 1.51852 9.85206C0.336811 8.00913 -0.00410828 6.03262 0.711429 3.93118C1.32699 2.12279 2.54184 0.921231 4.3919 0.511307C6.10717 0.130745 7.59441 0.636818 8.79914 1.94086C9.17207 2.34445 9.47199 2.81944 9.79943 3.26621C10.1757 3.77977 10.8351 3.78207 11.2052 3.26275C11.2889 3.1453 11.3608 3.01922 11.4411 2.89889C12.0016 2.05658 12.6723 1.3277 13.5804 0.88093C15.1165 0.125563 16.642 0.23265 18.0882 1.10432C19.6406 2.03989 20.3882 3.52702 20.6083 5.31756C20.8122 6.97683 20.3736 8.47605 19.485 9.85379C18.5516 11.3012 17.3547 12.5062 16.0955 13.6444C14.2932 15.2738 12.4639 16.8714 10.6464 18.4824C10.602 18.5221 10.5543 18.5572 10.4953 18.6044Z" fill="#373737"/>
</svg>
