<svg width="18" height="19" viewBox="0 0 18 19" fill="none" xmlns="http://www.w3.org/2000/svg">
<path d="M18 4.14818C18 7.38235 18 10.6165 18 13.8512C17.9292 14.1874 17.8874 14.5335 17.782 14.8592C17.169 16.7504 15.4678 17.9917 13.4717 17.9978C10.4902 18.006 7.50816 18.0022 4.52665 17.9989C3.5687 17.9978 2.68601 17.733 1.91097 17.1662C0.629491 16.2296 0.00166024 14.9553 0.00111096 13.3701C1.23941e-05 10.4693 -0.00163546 7.56965 0.00330809 4.67C0.00385738 4.37228 0.0181387 4.07018 0.0708699 3.77851C0.372976 2.11528 1.31774 0.954652 2.8788 0.320231C3.27923 0.157095 3.72415 0.103814 4.14875 0C7.38293 0 10.6171 0 13.8518 0C13.9782 0.0225206 14.1045 0.0433933 14.2303 0.0670124C15.8825 0.379005 17.0393 1.31443 17.6759 2.86396C17.8413 3.26878 17.8946 3.71919 18 4.14818ZM16.4895 8.99999C16.4917 8.99999 16.4939 8.99999 16.4961 8.99999C16.4961 7.5356 16.4933 6.07066 16.4977 4.60628C16.4988 4.13719 16.4357 3.68129 16.2264 3.25944C15.6584 2.11474 14.7318 1.51053 13.452 1.50613C10.482 1.49569 7.51146 1.50229 4.54148 1.50448C4.36681 1.50448 4.19049 1.52096 4.01747 1.54568C2.6536 1.73738 1.52537 2.97052 1.51603 4.35086C1.49571 7.41476 1.50779 10.4787 1.50615 13.5425C1.50615 13.9589 1.58744 14.3604 1.7709 14.7323C2.34655 15.8984 3.29077 16.4938 4.59312 16.4955C7.52794 16.4999 10.4633 16.4977 13.3981 16.4949C13.5964 16.4949 13.7958 16.4796 13.9924 16.4526C15.3294 16.2692 16.4659 15.0229 16.4845 13.6749C16.506 12.1166 16.4895 10.5583 16.4895 8.99999Z" fill="#373737"/>
<path d="M13.4992 9.022C13.4755 11.5141 11.4344 13.5311 8.96868 13.4987C6.47933 13.4662 4.4772 11.4405 4.50082 8.97696C4.52444 6.48432 6.56392 4.469 9.03075 4.50086C11.5207 4.53272 13.5228 6.55847 13.4992 9.022ZM9.00274 6.0037C7.3472 6.00095 6.01134 7.33296 6.0042 8.99234C5.99706 10.6457 7.32798 11.9848 8.98846 11.9953C10.6467 12.0057 11.9974 10.6594 11.9958 8.99784C11.9947 7.34065 10.6605 6.00644 9.00274 6.0037Z" fill="#373737"/>
<path d="M13.8843 5.2434C13.2575 5.2478 12.756 4.7496 12.756 4.12397C12.7566 3.50822 13.2488 3.01003 13.8672 3.00014C14.4781 2.99025 15.0015 3.50987 15.001 4.12452C15.0004 4.73751 14.4995 5.23901 13.8843 5.2434Z" fill="#373737"/>
</svg>
