<svg width="395" height="101" viewBox="0 0 395 101" fill="none" xmlns="http://www.w3.org/2000/svg">
<line x1="27.9648" y1="86.3916" x2="365.288" y2="86.3916" stroke="#CFCFCF" stroke-width="3"/>
<line x1="10.2852" y1="78.0967" x2="10.2852" y2="94.1909" stroke="#CFCFCF" stroke-width="2"/>
<line x1="15.856" y1="78.0967" x2="15.856" y2="94.1909" stroke="#CFCFCF" stroke-width="2"/>
<line x1="21.4272" y1="78.0967" x2="21.4272" y2="94.1909" stroke="#CFCFCF" stroke-width="2"/>
<circle cx="14.8562" cy="86.1438" r="13.8562" stroke="#CFCFCF" stroke-width="2"/>
<line x1="375.573" y1="78.0967" x2="375.573" y2="94.1909" stroke="#CFCFCF" stroke-width="2"/>
<line x1="381.144" y1="78.0967" x2="381.144" y2="94.1909" stroke="#CFCFCF" stroke-width="2"/>
<line x1="386.715" y1="78.0967" x2="386.715" y2="94.1909" stroke="#CFCFCF" stroke-width="2"/>
<circle cx="380.144" cy="86.1438" r="13.8562" stroke="#CFCFCF" stroke-width="2"/>
<rect x="30" y="44" width="13" height="42" fill="#C4C4C4"/>
<rect x="48" y="34" width="13" height="52" fill="#C4C4C4"/>
<rect x="66" y="11" width="13" height="75" fill="#C4C4C4"/>
<rect x="84" y="34" width="13" height="52" fill="#C4C4C4"/>
<rect x="102" width="13" height="86" fill="#C4C4C4"/>
<rect x="120" y="69" width="13" height="17" fill="#C4C4C4"/>
<rect x="138" y="54" width="13" height="32" fill="#C4C4C4"/>
<rect x="156" y="47" width="13" height="41" fill="#C4C4C4"/>
<rect x="174" y="50" width="13" height="36" fill="#C4C4C4"/>
<rect x="192" y="69" width="13" height="17" fill="#C4C4C4"/>
<rect x="210" y="71" width="13" height="15" fill="#C4C4C4"/>
<rect x="228" y="76" width="13" height="10" fill="#C4C4C4"/>
<rect x="246" y="69" width="13" height="17" fill="#C4C4C4"/>
<rect x="264" y="50" width="13" height="36" fill="#C4C4C4"/>
<rect x="282" y="82" width="13" height="4" fill="#C4C4C4"/>
<rect x="300" y="80" width="13" height="6" fill="#C4C4C4"/>
<rect x="318" y="76" width="13" height="10" fill="#C4C4C4"/>
<rect x="336" y="71" width="13" height="15" fill="#C4C4C4"/>
<rect x="354" y="78" width="13" height="8" fill="#C4C4C4"/>
</svg>
