<svg width="22" height="18" viewBox="0 0 22 18" fill="none" xmlns="http://www.w3.org/2000/svg">
<path d="M0 15.9748C2.41714 16.1351 4.60366 15.5595 6.58984 14.0619C4.50709 13.8714 3.13349 12.823 2.36597 10.8992C3.04485 10.8992 3.67832 10.8992 4.31179 10.8992C4.319 10.8669 4.32692 10.8345 4.33413 10.8022C3.31005 10.5413 2.45894 10.0132 1.80745 9.1925C1.15524 8.37111 0.822289 7.43332 0.807875 6.33239C1.44711 6.63062 2.0741 6.85483 2.78252 6.86273C0.859043 5.17757 0.265208 3.22148 1.44855 0.821293C3.91182 3.69218 6.97612 5.30261 10.7056 5.54335C10.7056 5.04606 10.6739 4.58255 10.7107 4.12407C10.9009 1.76053 12.9181 -0.0446439 15.2941 0.00134776C16.4919 0.0243436 17.5203 0.456234 18.3844 1.27834C18.5011 1.38972 18.5977 1.42278 18.762 1.38254C19.6052 1.17557 20.4124 0.881657 21.1741 0.464858C21.2274 0.435394 21.2851 0.413836 21.4069 0.358502C21.0509 1.41919 20.4275 2.19314 19.5656 2.82624C19.8293 2.7745 20.0945 2.73067 20.3554 2.66887C20.6264 2.60419 20.8952 2.52945 21.1604 2.44609C21.422 2.36345 21.6793 2.26428 21.9993 2.15074C21.6087 2.76803 21.177 3.26604 20.6927 3.71877C20.4498 3.94585 20.1976 4.16503 19.9309 4.36265C19.7825 4.4726 19.7385 4.58471 19.7443 4.76508C19.9057 9.75733 16.9798 14.6878 12.4871 16.7287C8.30648 18.6273 4.16982 18.3916 0.173682 16.0912C0.114587 16.0553 0.0583746 16.0136 0 15.9748Z" fill="#373737"/>
</svg>
