<svg width="16" height="16" viewBox="0 0 16 16" fill="none" xmlns="http://www.w3.org/2000/svg">
<path d="M7.499 0C7.83239 0 8.16577 0 8.49916 0C8.77129 0.0358371 9.04508 0.0633399 9.31554 0.109595C10.8187 0.365038 12.1468 0.995937 13.2849 2.00896C14.6764 3.24742 15.5482 4.78508 15.877 6.62277C15.9291 6.91364 15.9595 7.20783 15.9999 7.50078C15.9999 7.83415 15.9999 8.16752 15.9999 8.50089C15.9903 8.55131 15.9782 8.60131 15.9716 8.65215C15.9337 8.93051 15.9116 9.21179 15.8578 9.48682C15.499 11.3258 14.6114 12.8659 13.1841 14.076C11.3754 15.6095 9.27553 16.2279 6.92558 15.9254C5.17697 15.7004 3.66465 14.9482 2.41071 13.7093C0.849628 12.1675 0.037417 10.2894 0.00116127 8.09251C-0.0259263 6.44859 0.42081 4.93093 1.34721 3.57204C2.62824 1.69268 4.39018 0.530055 6.63595 0.121679C6.92141 0.0700073 7.21104 0.0400042 7.499 0ZM0.930057 7.5237C1.90646 7.5237 2.84077 7.5237 3.78634 7.5237C3.82509 6.41692 3.96762 5.33181 4.25683 4.26294C4.22307 4.25753 4.20349 4.25128 4.1839 4.25128C3.49129 4.25086 2.7991 4.24836 2.10649 4.25503C2.05523 4.25544 1.98606 4.30712 1.95688 4.35462C1.56682 4.98844 1.28303 5.66809 1.12425 6.39525C1.04382 6.7632 0.995067 7.13783 0.930057 7.5237ZM15.0327 7.52287C15.0344 7.4937 15.0381 7.47328 15.0369 7.45328C14.9552 6.32733 14.6114 5.28555 14.0225 4.3242C13.9963 4.2817 13.9133 4.25378 13.8567 4.25336C13.1953 4.24836 12.5344 4.25003 11.873 4.25044C11.8334 4.25044 11.7938 4.25628 11.7405 4.26044C12.0314 5.33431 12.1722 6.419 12.2122 7.52245C13.1603 7.52287 14.095 7.52287 15.0327 7.52287ZM0.961728 8.47838C0.961728 8.51172 0.960062 8.53714 0.962145 8.56173C1.04549 9.68226 1.38888 10.719 1.9748 11.6754C2.00106 11.7183 2.08315 11.7479 2.13983 11.7483C2.72826 11.7537 3.31626 11.7516 3.90469 11.7516C4.01762 11.7516 4.13014 11.7516 4.26058 11.7516C3.9672 10.6694 3.82551 9.58433 3.78634 8.4788C2.83952 8.47838 1.90479 8.47838 0.961728 8.47838ZM12.2106 8.47672C12.1735 9.58767 12.0285 10.6724 11.7418 11.7379C11.7718 11.7441 11.7868 11.75 11.8022 11.75C12.4998 11.7508 13.1974 11.7529 13.895 11.7466C13.9454 11.7462 14.0138 11.6925 14.0429 11.6445C14.4297 11.0149 14.7114 10.3398 14.871 9.61892C14.9535 9.2468 15.0014 8.86676 15.0677 8.47672C14.0934 8.47672 13.1632 8.47672 12.2106 8.47672ZM7.52276 4.26169C7.4965 4.25669 7.48192 4.25169 7.46692 4.25169C6.75889 4.25128 6.05044 4.25419 5.34242 4.24753C5.2299 4.24628 5.2174 4.30962 5.19573 4.38504C4.98986 5.1022 4.86026 5.83352 4.78649 6.57485C4.75524 6.88822 4.74232 7.20367 4.72065 7.52412C5.66663 7.52412 6.59094 7.52412 7.52234 7.52412C7.52276 6.43484 7.52276 5.35389 7.52276 4.26169ZM4.73857 8.47463C4.7319 8.49964 4.72649 8.50922 4.7269 8.5188C4.76816 9.57808 4.90985 10.6215 5.20198 11.6429C5.23156 11.7466 5.28532 11.7525 5.3695 11.7521C6.05169 11.7504 6.73388 11.7512 7.41607 11.7508C7.45066 11.7508 7.48567 11.7454 7.51942 11.7425C7.51942 10.6474 7.51942 9.56266 7.51942 8.47505C6.58719 8.47463 5.66705 8.47463 4.73857 8.47463ZM11.2679 7.52412C11.2717 6.64444 11.0412 5.1422 10.7929 4.35045C10.7628 4.25461 10.7128 4.24961 10.6349 4.24961C9.95272 4.25128 9.27053 4.25044 8.58834 4.25086C8.54917 4.25086 8.51 4.25836 8.47624 4.26211C8.47624 5.35722 8.47624 6.43817 8.47624 7.52412C9.40972 7.52412 10.334 7.52412 11.2679 7.52412ZM11.2825 8.48088C10.3319 8.48088 9.40388 8.48088 8.48082 8.48088C8.48082 9.57683 8.48082 10.6615 8.48082 11.7512C9.21719 11.7512 9.94105 11.7487 10.6649 11.7541C10.7712 11.755 10.7849 11.6941 10.7995 11.6229C10.927 10.9916 11.0704 10.3627 11.1742 9.72726C11.2404 9.3193 11.2479 8.90176 11.2825 8.48088ZM7.52234 1.04136C6.88932 1.14804 5.73748 2.50568 5.60121 3.30534C6.23922 3.30534 6.87724 3.30534 7.52234 3.30534C7.52234 2.54568 7.52234 1.79352 7.52234 1.04136ZM8.47291 3.30409C9.12593 3.30409 9.76227 3.30409 10.4186 3.30409C10.2019 2.78987 9.94355 2.31941 9.60517 1.89478C9.34679 1.57016 9.04966 1.2893 8.67335 1.10345C8.61209 1.07303 8.54625 1.05178 8.47249 1.02219C8.47291 1.79644 8.47291 2.54443 8.47291 3.30409ZM7.52609 12.6888C6.90349 12.6888 6.29548 12.6888 5.68789 12.6892C5.6583 12.6892 5.62871 12.6938 5.59829 12.6959C5.79082 13.5585 6.92933 14.8924 7.52609 14.9561C7.52609 14.2073 7.52609 13.4593 7.52609 12.6888ZM8.47624 12.693C8.47624 13.4593 8.47624 14.2102 8.47624 14.9632C9.14218 14.812 10.3261 13.4047 10.3911 12.693C9.75727 12.693 9.12342 12.693 8.47624 12.693ZM13.2795 3.31285C12.4606 2.41525 11.5246 1.7731 10.417 1.38181C10.8341 1.95645 11.1492 2.58027 11.4079 3.2345C11.4217 3.26992 11.4809 3.30909 11.5192 3.30951C12.0901 3.3141 12.6615 3.31285 13.2795 3.31285ZM5.57704 1.38306C4.47061 1.78019 3.5313 2.41525 2.722 3.31285C3.34002 3.31285 3.91594 3.3141 4.49145 3.30951C4.5252 3.30909 4.57688 3.27034 4.5898 3.23742C4.84609 2.58194 5.16364 1.95937 5.57704 1.38306ZM2.71992 12.6888C3.53713 13.5868 4.47311 14.2261 5.57745 14.6169C5.21406 14.1073 4.92152 13.5652 4.6844 12.9918C4.55896 12.688 4.55813 12.6884 4.22391 12.6884C3.73716 12.6888 3.25 12.6888 2.71992 12.6888ZM13.2774 12.6888C13.1903 12.6888 13.1453 12.6888 13.1003 12.6888C12.5961 12.6888 12.0918 12.693 11.5876 12.6855C11.4688 12.6838 11.4163 12.723 11.375 12.8313C11.1421 13.4402 10.8449 14.0152 10.457 14.5415C10.4403 14.564 10.432 14.5924 10.4095 14.6399C11.5305 14.2206 12.4648 13.5847 13.2774 12.6888Z" fill="white"/>
</svg>
