<svg width="36" height="38" viewBox="0 0 36 38" fill="none" xmlns="http://www.w3.org/2000/svg">
<path d="M17.5297 32.2282C16.4261 33.186 15.3893 34.1406 14.2948 35.0223C11.7469 37.0837 8.80991 37.9502 5.63879 37.0959C1.11774 35.8797 -1.19903 31.0638 0.625202 26.5883C2.16668 22.803 3.9757 19.1272 5.77257 15.4514C7.70017 11.502 9.74027 7.60722 11.75 3.70033C13.9451 -0.562281 18.5574 -0.71734 20.9836 1.10081C21.8106 1.71801 22.6041 2.55411 23.0632 3.46622C26.8759 11.0976 30.7493 18.7077 34.3096 26.4576C36.3314 30.8631 33.8353 35.8828 29.2899 37.0959C25.7935 38.0262 22.7136 36.8739 20.0441 34.545C19.208 33.8153 18.4114 33.0431 17.5297 32.2282ZM1.89912 29.5253C1.60116 32.6904 5.13409 36.4179 9.26597 35.4206C11.6891 34.8369 13.4739 33.341 15.2282 31.7144C16.0399 30.9634 15.9062 30.4405 15.365 29.5466C14.015 27.315 12.6073 25.059 11.6952 22.6358C10.4669 19.3765 11.5493 16.4122 14.015 14.9224C16.2649 13.5633 19.3053 13.6454 21.3028 15.117C23.647 16.8439 24.0757 19.258 23.5618 21.8909C22.9902 24.831 21.4032 27.3119 19.6002 29.65C19.1715 30.2033 18.7428 30.7202 19.4968 31.3131C20.9988 32.4927 22.4004 33.8609 24.0513 34.7791C26.4836 36.1351 29.4267 35.6274 31.2145 33.9004C33.0387 32.137 33.6346 29.4858 32.4093 26.9136C28.8795 19.483 25.3161 12.0644 21.5673 4.74623C19.6245 0.95487 15.4653 1.01568 13.5255 4.81311C9.8558 12.0006 6.34112 19.2701 2.81124 26.5306C2.35822 27.4579 2.19708 28.525 1.89912 29.5253ZM17.4385 28.9568C19.7006 26.2508 21.4913 23.5966 21.7528 20.2461C21.9444 17.7986 20.0228 15.7463 17.6057 15.7828C15.1673 15.8193 13.2489 17.4489 13.3188 20.0637C13.4161 23.5844 15.368 26.1444 17.4385 28.9568Z" fill="white"/>
</svg>
