<?xml version="1.0" encoding="UTF-8"?> <svg xmlns="http://www.w3.org/2000/svg" width="105" height="105" viewBox="0 0 105 105" fill="none"><circle cx="52.387" cy="52.387" r="52.387" fill="#F3E1FF"></circle><circle cx="52.387" cy="52.387" r="52.387" fill="#F2F2F2"></circle><path d="M49.8432 25.0126C50.2958 25.1135 50.7611 25.2018 51.2138 25.3027C53.3516 25.7821 55.2127 26.7659 56.7594 28.3174C57.0738 28.6328 57.3881 28.7463 57.8283 28.7085C60.1672 28.4688 62.2295 29.1752 63.9648 30.7393C65.4613 32.0764 66.3289 33.7919 66.5553 35.8101C66.8194 38.1689 66.1403 40.2502 64.6187 42.054C64.5559 42.1296 64.5056 42.2179 64.4175 42.3315C65.7631 42.8865 66.6056 43.8704 66.6056 45.2831C66.6056 46.2922 66.3918 47.3392 66.09 48.3104C65.7253 49.4583 65.0463 50.4548 63.8517 50.972C63.7259 51.0224 63.6379 51.2369 63.6002 51.3882C62.7954 54.8697 60.9343 57.6447 58.0169 59.7008C57.8408 59.8269 57.6899 60.117 57.6774 60.3315C57.6396 61.1388 57.6648 61.9334 57.6648 62.8669C58.9223 62.8669 60.1169 62.829 61.2989 62.8795C64.1535 63.0056 66.7439 63.9516 69.0703 65.5788C71.8242 67.5088 73.7356 70.0946 74.817 73.2985C75.3326 74.8248 75.5841 76.4015 75.5967 78.0035C75.5967 78.6342 75.2446 78.9748 74.6284 79C74.5027 79 74.3769 79 74.2637 79C59.6139 79 44.9641 79 30.3268 79C29.1825 79 28.9561 78.6973 29.0064 77.5368C29.1448 74.2067 30.2136 71.2172 32.2885 68.6062C34.8035 65.4527 38.0604 63.548 42.0593 62.993C43.4173 62.8038 44.8132 62.8416 46.1964 62.7912C46.4228 62.7786 46.6491 62.7912 46.9258 62.7912C46.9258 61.8704 46.9383 60.9874 46.9132 60.117C46.9132 59.9909 46.7749 59.8521 46.6617 59.7638C43.9832 57.9222 42.1473 55.4499 41.2167 52.309C41.179 52.1703 41.0784 51.9937 40.9652 51.9559C39.6449 51.5018 38.9658 50.4674 38.5005 49.2565C37.9975 47.9446 37.6832 46.5823 38.2113 45.2074C38.4251 44.6398 38.8401 44.1352 39.1796 43.5802C38.7646 42.7729 38.249 41.9026 37.8592 40.9692C35.7592 35.9615 37.7712 29.7428 42.3736 26.8669C43.87 25.9334 45.4671 25.3153 47.215 25.1009C47.3282 25.0883 47.4539 25.0378 47.5671 25C48.2964 25.0126 49.0761 25.0126 49.8432 25.0126ZM62.2672 46.1535C62.2295 46.1535 62.1792 46.1409 62.1415 46.1409C62.1415 45.1948 62.154 44.2488 62.1289 43.2901C62.1289 43.0126 62.1037 42.7099 61.978 42.4702C61.563 41.7386 61.2109 40.9439 60.6325 40.3511C59.5762 39.2663 58.369 38.3203 57.2372 37.2985C56.8977 36.9832 56.6588 37.0336 56.3067 37.3111C55.0995 38.2698 53.8546 39.178 52.6348 40.124C50.1827 42.0161 47.4036 42.9748 44.3227 43.0378C43.2413 43.0631 42.4868 43.6811 42.4742 44.7155C42.4491 46.5445 42.3611 48.3861 42.6125 50.1773C43.2539 54.7183 45.8317 57.8087 50.0695 59.4989C50.9749 59.8647 51.918 60.2179 52.9617 59.9783C54.5336 59.6125 55.9797 58.9944 57.275 58.0357C59.6642 56.2698 61.2738 53.9488 61.8145 51.0098C62.1037 49.4205 62.1289 47.768 62.2672 46.1535ZM63.2481 40.8052C64.0277 40.0988 64.6816 38.5978 64.7822 37.3742C65.1469 33.1107 61.4624 29.8437 57.4762 30.5879C56.86 30.7015 56.3821 30.5753 55.9294 30.0834C54.0306 28.0147 51.6665 26.9299 48.8623 26.8921C45.6305 26.8542 42.9772 28.1156 40.9652 30.651C39.4311 32.5936 38.752 34.8262 38.8904 37.3111C39.0035 39.4303 39.758 41.2971 41.091 43C41.9587 41.562 43.3042 41.2088 44.8383 41.1584C47.3407 41.0953 49.5414 40.1871 51.5156 38.6861C52.9743 37.576 54.4456 36.4534 55.9043 35.3434C56.6336 34.7884 56.8474 34.7884 57.5768 35.3055C59.7396 36.8697 61.7642 38.5473 63.2481 40.8052ZM47.9318 77.1962C48.4348 74.4338 48.9126 71.7092 49.4408 68.9846C49.5162 68.5809 49.4282 68.2908 49.1893 67.9881C48.3593 66.9033 47.5545 65.8185 46.6994 64.658C41.2796 64.3427 37.8341 65.4275 34.5268 68.7701C32.2508 71.0785 31.0562 73.9166 30.8047 77.1836C36.5514 77.1962 42.2227 77.1962 47.9318 77.1962ZM73.7733 77.2088C73.6727 76.5529 73.6224 75.9601 73.4967 75.3798C72.3775 70.5361 69.4852 67.2186 64.8702 65.4275C62.9085 64.6706 60.8462 64.6076 58.7714 64.6328C58.1552 64.6454 57.6899 64.6706 57.3127 65.3392C56.7594 66.3231 55.9672 67.1808 55.3133 68.1142C55.1749 68.316 55.0869 68.644 55.1246 68.8837C55.5773 71.4695 56.0678 74.0554 56.5205 76.6412C56.5959 77.1079 56.7468 77.2341 57.2121 77.2341C62.5187 77.2214 67.8253 77.2214 73.132 77.2214C73.308 77.2088 73.4715 77.2088 73.7733 77.2088ZM48.6863 60.8612C48.6863 61.6055 48.7491 62.1983 48.6737 62.7786C48.5479 63.8633 48.8623 64.7463 49.6042 65.541C50.0947 66.0834 50.3964 66.9285 50.9875 67.2186C51.6036 67.5088 52.4587 67.3196 53.2132 67.2943C53.427 67.2817 53.7162 67.143 53.8546 66.979C54.4707 66.2095 55.0492 65.4149 55.6276 64.6328C55.7282 64.494 55.8414 64.3301 55.8414 64.1787C55.8666 63.1317 55.854 62.0722 55.854 60.8865C53.4522 62.1605 51.1006 62.1226 48.6863 60.8612ZM51.239 69.1359C50.7485 71.8479 50.2707 74.4968 49.7929 77.171C51.4905 77.171 53.1252 77.171 54.7851 77.171C54.2947 74.4716 53.8168 71.7975 53.3264 69.1359C52.6096 69.1359 51.9432 69.1359 51.239 69.1359ZM63.9397 48.4618C64.6187 47.6167 64.996 45.9516 64.7319 45.0434C64.6187 44.6398 64.4427 44.2614 63.9397 44.1605C63.9397 45.5858 63.9397 46.986 63.9397 48.4618ZM40.5754 45.0687C39.4562 45.7372 39.5191 48.2726 40.5754 49.2691C40.5754 47.8942 40.5754 46.5193 40.5754 45.0687Z" fill="#24CCD4"></path></svg> 