<?xml version="1.0" encoding="UTF-8"?> <svg xmlns="http://www.w3.org/2000/svg" width="46" height="45" viewBox="0 0 46 45" fill="none"><path d="M26.7301 0C27.2105 0.257812 27.3746 0.65625 27.3511 1.19531C27.316 2.21484 27.3394 3.23438 27.3394 4.26562C29.6832 4.72266 31.8511 5.51953 33.8433 6.76172C38.484 9.64453 41.4254 13.7578 42.691 19.0664C42.8433 19.7227 42.7027 20.0273 42.0933 20.3555C40.5699 21.1641 39.0465 21.9727 37.523 22.7812C36.7379 23.1914 36.1636 22.8516 36.0347 21.9727C35.3316 16.8984 32.5543 13.4766 27.7847 11.6367C27.6558 11.5898 27.5035 11.5547 27.3277 11.4961C27.3277 12.3047 27.316 13.0664 27.3277 13.8398C27.3394 14.25 27.2457 14.6016 26.859 14.8125C26.4722 15.0234 26.1324 14.8945 25.7926 14.6836C22.3941 12.5508 18.9957 10.4297 15.5972 8.30859C14.8004 7.80469 14.8121 7.10156 15.6207 6.59766C19.1363 4.39453 22.6636 2.19141 26.1793 -0.0117188C26.3785 0 26.5543 0 26.7301 0ZM25.5816 12.4805C25.5816 11.7656 25.5816 11.1445 25.5816 10.5234C25.5933 9.76172 26.0504 9.375 26.7769 9.55078C32.0738 10.8516 35.5777 14.0859 37.2886 19.2656C37.441 19.7344 37.5465 20.2148 37.6754 20.7305C38.7535 20.1562 39.8082 19.5938 40.9449 18.9844C40.523 17.8828 40.1832 16.7695 39.6676 15.7383C36.9371 10.2656 32.5308 7.00781 26.5191 5.91797C25.7691 5.77734 25.5699 5.54297 25.5699 4.75781C25.5699 4.01953 25.5699 3.28125 25.5699 2.47266C22.8629 4.16016 20.2496 5.80078 17.566 7.47656C20.273 9.15234 22.898 10.793 25.5816 12.4805Z" fill="#24CCD4"></path><path d="M45.0116 39.4687C44.4608 40.1367 44.1678 40.1953 43.4061 39.75C42.5272 39.2461 41.66 38.7422 40.7342 38.2148C40.5936 38.3672 40.453 38.5429 40.3006 38.6836C39.574 39.3632 38.8475 40.0429 38.0975 40.6992C37.6405 41.0976 37.1014 41.039 36.7733 40.6406C36.4569 40.2304 36.5506 39.7617 36.9608 39.3632C37.9217 38.4375 38.8592 37.5 39.7967 36.5625C40.1717 36.1875 40.535 36.1054 41.0155 36.3632C41.7069 36.75 42.3865 37.1484 43.1717 37.5937C43.0545 34.4179 42.9491 31.3359 42.8319 28.1601C40.0311 29.6484 37.3006 31.0898 34.4881 32.5898C34.9569 32.8593 35.367 33.0937 35.7655 33.3281C35.9764 33.457 36.2108 33.5625 36.3983 33.7265C36.8319 34.0781 36.8436 34.6171 36.4334 35.0742C35.2147 36.4101 33.7733 37.4648 32.1444 38.2265C28.0428 40.125 23.9178 40.289 19.7459 38.4257C19.6756 38.3906 19.5936 38.3672 19.453 38.3203C19.4061 39.5859 19.3592 40.8047 19.3123 42.1523C20.4022 42.4336 21.492 42.7617 22.5936 42.9726C25.0545 43.4414 27.5155 43.3242 29.953 42.7265C30.117 42.6914 30.3045 42.6562 30.4686 42.6679C30.8787 42.7148 31.1951 43.0546 31.2303 43.4648C31.2655 43.8867 30.9959 44.2734 30.5272 44.3906C28.8983 44.8125 27.2459 45.0117 25.5701 45C23.0389 44.9882 20.6014 44.5078 18.2576 43.5351C17.6717 43.289 17.5194 43.0781 17.5428 42.4336C17.6014 40.6054 17.66 38.7773 17.7303 36.9492C17.7655 36.0468 18.4334 35.6836 19.2186 36.1523C21.328 37.4297 23.6131 38.0625 26.0741 37.957C29.0741 37.8281 31.7576 36.8203 34.0897 34.8984C34.1951 34.8164 34.2772 34.7226 34.4178 34.5937C33.7381 34.1953 33.0936 33.8203 32.4373 33.4453C32.074 33.2461 31.7811 33 31.7928 32.5429C31.8045 32.0742 32.1092 31.8632 32.4842 31.664C35.9881 29.8125 39.5037 27.9726 42.9725 26.0742C43.8397 25.5937 44.5311 26.0859 44.5545 27.0117C44.6248 30.4922 44.7772 33.9843 44.9061 37.4648C44.9061 37.6054 44.953 37.7461 44.9764 37.8867C45.0115 38.414 45.0116 38.9414 45.0116 39.4687Z" fill="#24CCD4"></path><path d="M9.51542 26.6484C10.2537 26.2148 10.9334 25.8164 11.6248 25.4297C12.3396 25.0312 13.031 25.4414 13.0076 26.25C12.867 30.3632 12.7264 34.4765 12.574 38.5898C12.5506 39.3281 11.8709 39.6562 11.1678 39.2812C8.92949 38.0859 6.6912 36.8671 4.45292 35.6601C3.17558 34.9687 1.89824 34.289 0.632611 33.5976C-0.187702 33.1523 -0.211139 32.3906 0.585736 31.8984C1.37089 31.4179 2.15605 30.9375 2.95292 30.4687C3.17558 30.3398 3.21074 30.2109 3.1287 29.9765C2.23808 27.3515 1.92167 24.6445 2.21464 21.8789C2.71855 17.1328 4.72245 13.125 8.15605 9.80855C8.48417 9.49215 8.88261 9.44527 9.28105 9.69137C10.8279 10.6406 12.3631 11.6015 13.8982 12.5742C14.5193 12.9726 14.5193 13.6406 13.8982 14.1328C11.906 15.7148 10.4881 17.6953 9.71464 20.1211C9.07011 22.1718 8.97636 24.2578 9.42167 26.3671C9.43339 26.4609 9.48027 26.5429 9.51542 26.6484ZM11.2029 27.8086C11.1326 27.7968 11.0975 27.7851 11.074 27.7968C10.5935 28.0664 10.1014 28.3476 9.62089 28.6171C8.8123 29.0742 8.28496 28.8867 8.02714 27.9843C6.71464 23.4375 7.41777 19.2187 10.242 15.3867C10.7459 14.6953 11.3553 14.0859 11.9412 13.4179C10.9451 12.7968 9.9373 12.164 8.88261 11.5078C8.30839 12.2226 7.6873 12.8671 7.18339 13.6054C3.65605 18.7031 2.96464 24.1757 5.01542 30.0117C5.33183 30.9023 5.2498 31.1367 4.4412 31.6289C3.86699 31.9687 3.30449 32.3203 2.67167 32.6953C5.44902 34.1953 8.13261 35.6484 10.8865 37.125C10.992 33.9609 11.0975 30.8906 11.2029 27.8086Z" fill="#24CCD4"></path><path d="M34.9805 42.1875C34.9805 42.668 34.5703 43.0781 34.0898 43.0664C33.6211 43.0547 33.2344 42.6563 33.2344 42.1875C33.2344 41.707 33.6445 41.2969 34.125 41.3086C34.5938 41.3203 34.9805 41.7188 34.9805 42.1875Z" fill="#24CCD4"></path></svg> 