<?xml version="1.0" encoding="UTF-8"?> <svg xmlns="http://www.w3.org/2000/svg" width="105" height="105" viewBox="0 0 105 105" fill="none"><circle cx="52.387" cy="52.387" r="52.387" fill="#F3E1FF"></circle><circle cx="52.387" cy="52.387" r="52.387" fill="#F2F2F2"></circle><g clip-path="url(#clip0_1615_2)"><path d="M74.9875 79C59.6713 79 44.3423 79 29.0261 79C29.0261 76.4556 28.9617 73.8979 29.039 71.3535C29.1292 68.7827 30.4173 66.937 32.7231 65.9351C35.0933 64.9067 37.5151 63.9839 39.9239 63.0083C40.0785 62.9424 40.2202 62.8501 40.2846 62.8237C38.2622 62.2041 36.214 61.6372 34.2045 60.9385C32.852 60.4639 31.6153 59.7388 30.6621 58.5522C30.8811 58.3677 31.0743 58.1831 31.2933 57.9985C32.1564 57.2866 32.8262 56.4297 33.174 55.3486C33.5476 54.1489 33.9855 52.9492 34.153 51.71C34.6038 48.48 34.9259 45.2368 35.3123 41.9937C35.6344 39.3042 36.1496 36.6675 37.1415 34.1362C39.048 29.311 42.5131 26.3975 47.524 25.4219C48.4257 25.2505 49.3403 25.1318 50.2549 25C51.4271 25 52.5865 25 53.7587 25C54.6862 25.145 55.6265 25.2505 56.5411 25.4351C61.5005 26.4238 64.9528 29.311 66.8464 34.123C68.186 37.5376 68.5982 41.1367 68.9976 44.749C69.281 47.2803 69.5515 49.8115 69.9508 52.3164C70.3373 54.7554 71.1359 57.0098 73.2614 58.5127C73.2871 58.5259 73.3 58.5654 73.3515 58.6445C70.6593 61.3472 67.104 61.9141 63.5744 62.7446C63.729 62.8369 63.8063 62.9028 63.8965 62.9424C66.1636 63.8652 68.4179 64.854 70.7237 65.6978C73.0681 66.5547 74.8973 68.6772 74.9617 70.9976C75.0261 73.6606 74.9875 76.3237 74.9875 79ZM72.7976 76.7061C72.7976 74.9395 72.8492 73.2388 72.7847 71.5381C72.7203 69.7979 71.8702 68.4663 70.2213 67.9521C67.967 67.2534 65.8545 66.2251 63.6904 65.2891C61.3975 64.3003 59.0917 63.2983 57.8164 60.7803C53.9262 64.0234 50.0231 64.0103 46.1328 60.7539C45.4115 62.4282 44.1362 63.3906 42.7063 64.1157C39.8982 65.5396 37.0513 66.8711 34.0499 67.8203C32.4011 68.3345 31.3835 69.4683 31.2418 71.2612C31.1516 72.5137 31.1902 73.7925 31.1774 75.0581C31.1774 75.5986 31.1774 76.1392 31.1774 76.7061C45.0894 76.7061 58.9242 76.7061 72.7976 76.7061ZM39.9883 45.2104C40.0914 46.0674 40.1558 46.8979 40.2975 47.7285C40.7999 50.418 41.9463 52.8174 43.5436 54.9795C45.1152 57.1152 46.983 58.9478 49.3275 60.187C50.68 60.8989 52.0841 61.2944 53.5784 60.6484C54.274 60.3452 54.9696 60.0288 55.6008 59.6201C58.4347 57.7876 60.5602 55.2563 62.1188 52.2373C63.8063 48.9678 64.386 45.5005 63.6388 41.8354C63.5744 41.5059 63.51 41.2422 63.0978 41.1235C60.7019 40.4775 58.512 39.3833 56.4252 38.0386C55.7425 37.6035 55.0984 37.1289 54.4157 36.6543C50.2678 40.6094 45.7335 43.8394 39.9883 45.2104ZM58.5506 28.4409C58.4862 28.3882 58.4605 28.3618 58.4218 28.3486C58.3445 28.3091 58.2672 28.2827 58.1771 28.2563C54.377 26.9907 50.5254 26.9248 46.6739 27.9663C43.9816 28.6914 41.8433 30.2603 40.3361 32.7256C39.2927 34.4526 38.6229 36.3115 38.2107 38.2759C37.8629 39.9106 37.631 41.5718 37.3347 43.2988C37.9402 43.2197 38.4168 43.1802 38.8805 43.0879C42.3585 42.4419 45.4372 40.8994 48.3098 38.856C52.316 36.0083 55.6265 32.4487 58.5506 28.4409ZM65.906 41.8091C65.9318 41.9805 65.9446 42.1123 65.9575 42.2573C66.2409 44.3008 66.2796 46.3442 65.8416 48.3745C65.0172 52.1978 63.2009 55.4673 60.5859 58.2754C60.0578 58.8423 60.0191 59.4224 60.0578 60.0815C60.0835 60.5166 60.47 60.8857 60.8049 60.8198C62.8402 60.4243 64.8755 60.0684 66.8979 59.5806C67.9413 59.3301 68.9332 58.8555 69.8864 58.4995C69.4098 57.5107 68.9332 56.6538 68.5982 55.7441C67.5935 53.0942 67.3616 50.2993 67.0525 47.5044C66.8592 45.7246 66.6531 43.9448 66.4728 42.165C66.4341 41.8354 66.2924 41.7168 65.906 41.8091ZM34.0628 58.3809C34.153 58.4336 34.2045 58.4863 34.2689 58.5127C37.1286 59.8706 40.1944 60.4111 43.2989 60.833C43.4019 60.8462 43.5308 60.7803 43.608 60.7144C44.0847 60.2793 44.0975 59.1191 43.6982 58.605C42.7063 57.3525 41.6629 56.1265 40.787 54.7949C39.4344 52.7119 38.507 50.4048 38.0947 47.9131C37.9659 47.1484 37.8886 46.3574 37.7856 45.606C37.2059 45.4082 37.1286 45.7642 37.0771 46.1992C36.8968 47.8208 36.7551 49.4424 36.5232 51.064C36.1625 53.6348 35.6086 56.166 34.0628 58.3809ZM60.6503 29.4956C59.1303 31.3545 57.636 33.2002 56.116 35.0723C59.1045 37.2476 62.312 38.8955 66.0735 39.4756C65.249 35.4941 64.0253 31.8687 60.6503 29.4956Z" fill="#24CCD4"></path></g><defs><clipPath id="clip0_1615_2"><rect width="46" height="54" fill="white" transform="translate(29 25)"></rect></clipPath></defs></svg> 