<?xml version="1.0" encoding="UTF-8"?> <svg xmlns="http://www.w3.org/2000/svg" width="55" height="45" viewBox="0 0 55 45" fill="none"><path d="M0 2.41889C0.329198 1.86069 0.601145 1.24523 1.01622 0.758588C1.48855 0.214695 2.18989 0.028626 2.90553 0C3.10592 0 3.29198 0 3.49237 0C19.5086 0 35.5105 0 51.5267 0.014313C52.1851 0.014313 52.9008 0.14313 53.4876 0.429389C54.4466 0.901718 54.9332 1.80344 54.9475 2.87691C54.9761 4.47996 54.9618 6.09733 54.9475 7.70038C54.9475 8.2729 54.604 8.63073 54.1317 8.61641C53.6594 8.6021 53.3445 8.24428 53.3445 7.65744C53.3445 6.15458 53.3445 4.65172 53.3445 3.14886C53.3445 2.13263 52.8578 1.58874 51.8559 1.58874C46.8607 1.57443 41.8798 1.58874 36.8845 1.58874C36.813 1.58874 36.7414 1.60305 36.6412 1.61737C36.6269 1.77481 36.6126 1.93225 36.6126 2.08969C36.6126 3.39218 36.5983 4.70897 36.6269 6.01145C36.6412 6.29771 36.77 6.65554 36.9561 6.85592C37.9723 7.91508 38.4876 9.16031 38.4733 10.6345C38.459 11.98 38.4733 13.3111 38.4733 14.6565C38.4733 14.8569 38.4733 15.0429 38.4733 15.2719C39.2176 15.2719 39.9046 15.2719 40.6632 15.2719C40.6632 14.771 40.6632 14.27 40.6632 13.7834C40.6775 12.2376 41.6651 11.2357 43.2252 11.2214C44.3273 11.2071 45.4437 11.2071 46.5458 11.2214C48.0916 11.2357 49.0792 12.2376 49.0935 13.7977C49.1078 17.0038 49.1078 20.1956 49.0935 23.4017C49.0935 24.9905 48.1059 25.9637 46.5029 25.9781C45.4151 25.9924 44.3273 25.9924 43.2252 25.9781C41.6651 25.9637 40.6775 24.9905 40.6632 23.4303C40.6632 22.9151 40.6632 22.3998 40.6632 21.8273C39.9332 21.8273 39.2605 21.813 38.5878 21.8416C38.4876 21.8416 38.3588 21.9847 38.3158 22.0849C37.3139 24.2319 35.2385 24.7328 33.3922 23.2729C33.3492 23.2443 33.3063 23.2157 33.2634 23.2013C31.6174 24.4323 30.5296 24.4323 28.855 23.2013C27.209 24.4323 26.0353 24.4323 24.4323 23.187C23.645 23.917 22.7147 24.2748 21.6412 24.0458C20.5821 23.8311 19.8521 23.187 19.4227 22.1994C19.3655 22.0563 19.1794 21.8559 19.0649 21.8559C17.5048 21.8273 15.959 21.8416 14.3273 21.8416C14.3273 22.3998 14.3273 22.9008 14.3273 23.416C14.313 25.0048 13.3397 25.9924 11.7366 25.9924C10.6489 26.0067 9.56107 26.0067 8.45897 25.9924C6.89885 25.9781 5.91126 25.0048 5.89695 23.4447C5.88263 22.0992 5.89695 20.7681 5.89695 19.4227C5.89695 18.7643 6.16889 18.4208 6.66985 18.4065C7.18511 18.3922 7.5 18.7643 7.5 19.4227C7.5 20.7252 7.5 22.0277 7.5 23.3445C7.5 24.1174 7.75763 24.375 8.53053 24.375C9.58969 24.375 10.6345 24.3893 11.6937 24.375C12.4237 24.375 12.6956 24.1031 12.6956 23.3588C12.6956 20.1956 12.6956 17.0324 12.6956 13.855C12.6956 13.0964 12.4237 12.8387 11.6508 12.8244C10.6202 12.8244 9.57538 12.8244 8.54485 12.8244C7.77195 12.8244 7.51431 13.0964 7.5 13.855C7.5 14.3416 7.51431 14.8282 7.48569 15.3006C7.45706 15.8445 7.14218 16.1737 6.66985 16.1737C6.19752 16.1594 5.89695 15.8445 5.89695 15.2863C5.88263 14.7567 5.88263 14.2128 5.89695 13.6832C5.92557 12.3092 6.85592 11.2929 8.24427 11.25C9.47519 11.2071 10.7061 11.2214 11.9513 11.25C12.9676 11.2786 13.6975 11.8082 14.1555 12.7099C15.0429 12.4809 15.73 12.0515 16.2595 11.3073C17.6622 9.36069 19.0935 7.44275 20.4962 5.49618C20.6536 5.28149 20.7538 4.98092 20.7681 4.72328C20.7968 3.70706 20.7824 2.69084 20.7824 1.60305C20.5391 1.60305 20.3531 1.60305 20.1527 1.60305C14.5563 1.60305 8.95992 1.60305 3.34924 1.60305C2.07538 1.60305 1.61737 2.06107 1.61737 3.36355C1.61737 11.4647 1.61737 19.5658 1.61737 27.6813C1.61737 27.8531 1.61737 28.0391 1.61737 28.2968C1.84637 28.2968 2.04676 28.2968 2.26145 28.2968C11.6364 28.2968 21.0114 28.2968 30.3864 28.2968C31.2452 28.2968 31.646 28.5544 31.6174 29.1269C31.6031 29.6708 31.2309 29.9141 30.3864 29.9141C21.0258 29.9141 11.6794 29.9141 2.3187 29.9141C2.10401 29.9141 1.88931 29.9141 1.61737 29.9141C1.61737 30.5439 1.61737 31.145 1.61737 31.7462C1.61737 32.5191 1.60305 33.292 1.61737 34.0506C1.63168 34.9094 2.16126 35.4389 3.02004 35.4819C3.16317 35.4819 3.3063 35.4819 3.44943 35.4819C19.48 35.4819 35.5105 35.4819 51.541 35.4819C52.9151 35.4819 53.3588 35.0382 53.3588 33.6498C53.3588 32.4189 53.3588 31.188 53.3588 29.8998C53.1011 29.8998 52.8864 29.8998 52.6861 29.8998C46.8607 29.8998 41.021 29.8998 35.1956 29.8998C35.0239 29.8998 34.8378 29.9141 34.666 29.8855C34.2223 29.8139 33.9504 29.5563 33.9504 29.0983C33.9504 28.6403 34.2223 28.3683 34.666 28.2968C34.8378 28.2681 35.0239 28.2824 35.1956 28.2824C41.0496 28.2824 46.8893 28.2824 52.7433 28.2824C52.9294 28.2824 53.1298 28.2824 53.3731 28.2824C53.3731 28.0248 53.3731 27.8244 53.3731 27.6097C53.3731 22.3998 53.3731 17.2042 53.3731 11.9943C53.3731 11.8225 53.3588 11.6365 53.3874 11.4647C53.4447 11.0067 53.7309 10.7347 54.1746 10.7347C54.6183 10.7204 54.9046 10.9924 54.9761 11.4361C55.0048 11.5935 54.9905 11.751 54.9905 11.9227C54.9905 19.2223 54.9905 26.5219 54.9905 33.8216C54.9905 35.8826 53.7882 37.0992 51.7271 37.0992C46.1164 37.0992 40.4914 37.0992 34.8807 37.0992C34.666 37.0992 34.4656 37.0992 34.2223 37.0992C34.2223 39.2032 34.2223 41.25 34.2223 43.3826C34.8664 43.3826 35.4962 43.3826 36.1403 43.3826C36.3693 43.3826 36.6126 43.3683 36.8273 43.4256C37.1994 43.5115 37.3998 43.7691 37.4141 44.1555C37.4284 44.542 37.2567 44.8282 36.8845 44.9284C36.6698 44.9857 36.4265 44.9857 36.1975 44.9857C30.3435 44.9857 24.5038 44.9857 18.6498 44.9857C18.5496 44.9857 18.4351 44.9857 18.3349 44.9857C17.7338 44.9571 17.4189 44.6565 17.4332 44.1555C17.4475 43.6689 17.7624 43.3969 18.3349 43.3826C19.0792 43.3683 19.8378 43.3826 20.6107 43.3826C20.6107 41.2643 20.6107 39.2032 20.6107 37.0849C20.3817 37.0849 20.167 37.0849 19.9666 37.0849C14.5849 37.0849 9.20324 37.042 3.80725 37.1136C1.96088 37.1279 0.658397 36.541 0.0429389 34.7376C0 23.9599 0 13.1966 0 2.41889ZM22.3712 1.64599C22.3712 2.7624 22.3569 3.83588 22.3855 4.90935C22.3998 5.45324 22.2424 5.89695 21.9132 6.34065C20.4819 8.24428 19.0792 10.1622 17.6908 12.0945C17.0038 13.0534 16.1737 13.7977 15.0286 14.1412C14.6708 14.2557 14.4275 14.4704 14.499 14.8855C14.5706 15.2863 14.8855 15.3578 15.229 15.3578C16.4313 15.3578 17.5477 15.0286 18.6212 14.4847C19.0792 14.2557 19.2939 13.9695 19.2223 13.4399C19.1794 13.1966 19.208 12.9389 19.2223 12.6956C19.251 12.2376 19.5372 11.9656 19.9809 11.937C20.4389 11.9084 20.7109 12.1803 20.8111 12.624C20.8397 12.7958 20.8254 12.9819 20.8254 13.1536C20.8254 15.7872 20.8254 18.4065 20.8254 21.0401C20.8254 21.7844 21.2261 22.3139 21.8702 22.4857C22.5 22.6574 23.1155 22.3712 23.4876 21.7271C24.0172 20.8254 24.8473 20.8254 25.3769 21.7414C25.9924 22.7863 27.2805 22.7863 27.8817 21.7414C28.4256 20.8254 29.2414 20.8111 29.771 21.7128C30.4008 22.7863 31.6746 22.7863 32.3044 21.7128C32.8197 20.8397 33.6641 20.8254 34.1794 21.6985C34.5658 22.3569 35.1527 22.6431 35.7824 22.4857C36.4265 22.3282 36.8416 21.7987 36.8416 21.0544C36.8559 17.5191 36.8416 13.9695 36.8416 10.4342C36.8416 9.54676 36.5267 8.77386 35.8969 8.17271C35.2099 7.51431 34.9523 6.75573 34.9666 5.81107C35.0095 4.43702 34.9809 3.06298 34.9809 1.66031C30.7872 1.64599 26.6221 1.64599 22.3712 1.64599ZM32.5191 37.1279C29.0553 37.1279 25.6489 37.1279 22.2281 37.1279C22.2281 39.2176 22.2281 41.2643 22.2281 43.3397C25.6632 43.3397 29.084 43.3397 32.5191 43.3397C32.5191 41.25 32.5191 39.2032 32.5191 37.1279ZM42.2662 18.6355C42.2662 20.2099 42.2662 21.7844 42.2662 23.3588C42.2662 24.1317 42.5239 24.3893 43.2968 24.4036C44.3273 24.4036 45.3721 24.4036 46.4027 24.4036C47.2185 24.4036 47.4761 24.146 47.4761 23.3445C47.4761 20.1956 47.4761 17.0468 47.4761 13.9122C47.4761 13.1536 47.2042 12.8674 46.4456 12.8674C45.4151 12.8531 44.3702 12.8674 43.3397 12.8674C42.5382 12.8674 42.2805 13.125 42.2662 13.9265C42.2662 15.4866 42.2662 17.0611 42.2662 18.6355ZM14.3559 16.9895C14.3559 18.0773 14.3559 19.1365 14.3559 20.1956C15.9876 20.1956 17.5763 20.1956 19.1794 20.1956C19.1794 19.1221 19.1794 18.0773 19.1794 16.9895C17.562 16.9895 15.959 16.9895 14.3559 16.9895ZM40.6202 16.9466C40.3626 16.9466 40.1479 16.9323 39.9332 16.9466C39.4609 16.9752 38.8311 16.8321 38.5592 17.0754C38.3158 17.2901 38.4733 17.9485 38.459 18.4065C38.4447 19.0076 38.459 19.5945 38.459 20.1956C39.2319 20.1956 39.9046 20.1956 40.6202 20.1956C40.6202 19.1221 40.6202 18.0773 40.6202 16.9466Z" fill="#24CCD4"></path></svg> 